<svg width="350" height="425" viewBox="0 0 350 425" fill="none" xmlns="http://www.w3.org/2000/svg">
<g clip-path="url(#clip0_1966_21147)">
<path d="M181.82 424.121C269.633 424.121 340.82 418.077 340.82 410.621C340.82 403.165 269.633 397.121 181.82 397.121C94.0065 397.121 22.8198 403.165 22.8198 410.621C22.8198 418.077 94.0065 424.121 181.82 424.121Z" fill="#EAEAEA"/>
<path d="M335.399 288.448C335.399 288.448 344.139 276.788 341.079 272.128C338.019 267.468 324.359 277.948 324.359 277.948L335.399 288.448Z" fill="#F08B2E" stroke="#4F2C26" stroke-width="3" stroke-linecap="round" stroke-linejoin="round"/>
<path d="M283.37 244.449C283.37 244.449 330.88 233.599 335.6 247.569C340.32 261.539 324.4 277.929 324.4 277.929C324.4 277.929 327.79 280.869 330.2 284.809C330.2 284.809 341.33 275.819 346.39 279.169C351.45 282.519 335.84 307.269 323.26 306.139C310.67 305.009 301.19 288.949 303.14 279.099C304.97 269.879 316.62 263.599 315.05 258.799C313.73 254.779 283.89 264.189 283.89 264.189L283.37 244.439V244.449Z" fill="#F08B2E" stroke="#4F2C26" stroke-width="3" stroke-linecap="round" stroke-linejoin="round"/>
<path d="M330 284.48C330.82 285.7 331.79 288.42 331.62 290.42" stroke="#4F2C26" stroke-width="3" stroke-linecap="round" stroke-linejoin="round"/>
<path d="M209.28 344.43C209.28 344.43 189.04 404.91 190.63 405.56C210.96 411.06 232.44 412.26 253.62 408.78C251.6 401.02 247.44 393.66 241.1 388.75C234.76 383.84 226.12 381.65 218.45 383.97L226.85 342.48L209.28 344.42V344.43Z" fill="#F08B2E"/>
<mask id="mask0_1966_21147" style="mask-type:luminance" maskUnits="userSpaceOnUse" x="190" y="342" width="64" height="69">
<path d="M209.28 344.43C209.28 344.43 189.04 404.91 190.63 405.56C210.96 411.06 232.44 412.26 253.62 408.78C251.6 401.02 247.44 393.66 241.1 388.75C234.76 383.84 226.12 381.65 218.45 383.97L226.85 342.48L209.28 344.42V344.43Z" fill="white"/>
</mask>
<g mask="url(#mask0_1966_21147)">
<path d="M241.82 348.02C226.17 355.17 209.1 359.19 191.91 359.78C193.35 349.61 194.79 339.44 196.23 329.27C213.9 326.81 231.45 323.41 248.76 319.09C248.03 324.94 247.3 330.8 241.82 348.02Z" fill="#BF5D24"/>
</g>
<path d="M209.28 344.43C209.28 344.43 189.04 404.91 190.63 405.56C210.96 411.06 232.44 412.26 253.62 408.78C251.6 401.02 247.44 393.66 241.1 388.75C234.76 383.84 226.12 381.65 218.45 383.97L226.85 342.48L209.28 344.42V344.43Z" stroke="#4F2C26" stroke-width="3" stroke-linecap="round" stroke-linejoin="round"/>
<path d="M159.37 343.219C159.37 343.219 139.87 385.619 139.14 386.049C130.67 383.709 120.27 383.969 112.72 388.439C105.17 392.919 99.5898 400.549 98.2598 409.359C119.46 412.999 144.46 411.459 157.64 407.429L178.2 344.709L159.37 343.219Z" fill="#F08B2E"/>
<mask id="mask1_1966_21147" style="mask-type:luminance" maskUnits="userSpaceOnUse" x="98" y="343" width="81" height="69">
<path d="M159.37 343.219C159.37 343.219 139.87 385.619 139.14 386.049C130.67 383.709 120.27 383.969 112.72 388.439C105.17 392.919 99.5898 400.549 98.2598 409.359C119.46 412.999 144.46 411.459 157.64 407.429L178.2 344.709L159.37 343.219Z" fill="white"/>
</mask>
<g mask="url(#mask1_1966_21147)">
<path d="M182.21 359.468C169.67 362.458 156.61 363.228 143.81 361.728C145.65 350.048 147.49 338.378 149.34 326.698C162.48 326.778 175.62 325.538 188.51 323.008C186.9 334.868 185.29 346.728 182.22 359.458L182.21 359.468Z" fill="#BF5D24"/>
</g>
<path d="M159.37 343.219C159.37 343.219 139.87 385.619 139.14 386.049C130.67 383.709 120.27 383.969 112.72 388.439C105.17 392.919 99.5898 400.549 98.2598 409.359C119.46 412.999 144.46 411.459 157.64 407.429L178.2 344.709L159.37 343.219Z" stroke="#4F2C26" stroke-width="3" stroke-linecap="round" stroke-linejoin="round"/>
<path d="M87.7295 301.991C122.18 217.341 120.92 118.951 85.2495 33.7111C90.8795 31.7611 96.4995 29.8111 105.39 28.6211C132.4 67.9611 145.1 115.711 149.11 163.261C153.12 210.811 148.9 258.631 144.68 306.171C127.9 305.021 111.34 303.801 87.7295 301.981V301.991Z" fill="#F08B2E" stroke="#4F2C26" stroke-width="3" stroke-linecap="round" stroke-linejoin="round"/>
<path d="M115.77 289.971C105.74 273.171 105.77 250.861 115.84 234.091C118.38 229.861 121.54 225.891 122.99 221.171C124.44 216.451 123.66 210.551 119.58 207.781C116.96 206.001 113.53 205.831 110.86 204.131C104.76 200.261 105.78 190.791 109.68 184.711C113.58 178.631 119.57 173.821 122.05 167.031C128.26 150.081 111.72 132.191 114.43 114.341C115.27 108.851 121.02 97.7806 111.93 92.6006C109.13 91.0006 105.84 90.5006 103.04 88.9006C98.0096 86.0406 96.6696 79.2606 97.5396 73.5406C98.4096 67.8206 100.93 62.4206 101.55 56.6706C102.16 50.9206 100.12 44.1706 94.7496 42.0206C90.9596 40.5006 86.6096 41.6806 82.6196 40.8006C73.7696 38.8606 70.1596 26.8506 74.3196 18.8106C78.4796 10.7706 87.7296 6.58061 96.6996 5.31061C112.52 3.06061 128.48 8.04061 143.07 14.5506C193.54 37.0606 234.51 78.7406 259.57 127.991C284.63 177.241 294.23 233.671 292.14 292.111C234.08 313.471 168.67 314.221 115.78 289.951L115.77 289.971Z" fill="#FFD147"/>
<mask id="mask2_1966_21147" style="mask-type:luminance" maskUnits="userSpaceOnUse" x="72" y="4" width="221" height="305">
<path d="M115.77 289.971C105.74 273.171 105.77 250.861 115.84 234.091C118.38 229.861 121.54 225.891 122.99 221.171C124.44 216.451 123.66 210.551 119.58 207.781C116.96 206.001 113.53 205.831 110.86 204.131C104.76 200.261 105.78 190.791 109.68 184.711C113.58 178.631 119.57 173.821 122.05 167.031C128.26 150.081 111.72 132.191 114.43 114.341C115.27 108.851 121.02 97.7806 111.93 92.6006C109.13 91.0006 105.84 90.5006 103.04 88.9006C98.0096 86.0406 96.6696 79.2606 97.5396 73.5406C98.4096 67.8206 100.93 62.4206 101.55 56.6706C102.16 50.9206 100.12 44.1706 94.7496 42.0206C90.9596 40.5006 86.6096 41.6806 82.6196 40.8006C73.7696 38.8606 70.1596 26.8506 74.3196 18.8106C78.4796 10.7706 87.7296 6.58061 96.6996 5.31061C112.52 3.06061 128.48 8.04061 143.07 14.5506C193.54 37.0606 234.51 78.7406 259.57 127.991C284.63 177.241 294.23 233.671 292.14 292.111C234.08 313.471 168.67 314.221 115.78 289.951L115.77 289.971Z" fill="white"/>
</mask>
<g mask="url(#mask2_1966_21147)">
<path d="M103.23 0C93.7596 6.16 89.7796 19.53 94.3396 29.87C97.9896 38.16 106.27 44.36 107.65 53.31C108.97 61.85 103.57 70.96 106.92 78.92C109.42 84.84 116.01 88.03 119.28 93.57C124.16 101.82 120.37 112.28 120.98 121.85C121.98 137.71 135.29 152.46 130.96 167.75C128.77 175.5 122.15 182.29 123.18 190.28C124.04 196.96 130.13 202 131.3 208.63C132.65 216.25 127.32 223.2 124.29 230.32C117.8 245.6 122.3 264.1 132.92 276.86C143.53 289.62 159.36 297.18 175.56 300.8C191.76 304.42 208.52 304.45 226.88 303.18C254.66 296.2 280.2 280.58 299.06 259.02C298.58 267.41 298.1 275.8 297.62 284.18C236.62 320.96 156.38 323.43 93.2396 290.47C94.8996 244.19 96.5596 197.77 92.4096 151.65C88.2696 105.53 78.1396 59.45 57.3296 18.09C69.7896 7.97 85.6896 2.16 103.23 0Z" fill="#FAB23C"/>
</g>
<path d="M115.77 289.971C105.74 273.171 105.77 250.861 115.84 234.091C118.38 229.861 121.54 225.891 122.99 221.171C124.44 216.451 123.66 210.551 119.58 207.781C116.96 206.001 113.53 205.831 110.86 204.131C104.76 200.261 105.78 190.791 109.68 184.711C113.58 178.631 119.57 173.821 122.05 167.031C128.26 150.081 111.72 132.191 114.43 114.341C115.27 108.851 121.02 97.7806 111.93 92.6006C109.13 91.0006 105.84 90.5006 103.04 88.9006C98.0096 86.0406 96.6696 79.2606 97.5396 73.5406C98.4096 67.8206 100.93 62.4206 101.55 56.6706C102.16 50.9206 100.12 44.1706 94.7496 42.0206C90.9596 40.5006 86.6096 41.6806 82.6196 40.8006C73.7696 38.8606 70.1596 26.8506 74.3196 18.8106C78.4796 10.7706 87.7296 6.58061 96.6996 5.31061C112.52 3.06061 128.48 8.04061 143.07 14.5506C193.54 37.0606 234.51 78.7406 259.57 127.991C284.63 177.241 294.23 233.671 292.14 292.111C234.08 313.471 168.67 314.221 115.78 289.951L115.77 289.971Z" stroke="#4F2C26" stroke-width="3" stroke-linecap="round" stroke-linejoin="round"/>
<path d="M115.03 21.0808C109.48 23.2808 106.12 29.6008 106.69 35.5508C107.26 41.4908 111.34 46.7908 116.62 49.5908C121.9 52.3808 128.21 52.8408 134.06 51.6508C139.66 50.5108 145.16 47.7108 148.33 42.9608C151.5 38.2008 151.75 31.3008 147.95 27.0308C145.28 24.0408 141.22 22.7708 137.37 21.6508C133.51 20.5308 129.59 19.4208 125.57 19.3408C121.55 19.2608 117.3 20.1808 115.02 21.0908L115.03 21.0808Z" fill="#FAB23C"/>
<path d="M132.719 86.9489C131.659 86.8089 130.659 87.6489 130.259 88.6489C129.859 89.6489 129.929 90.7589 130.019 91.8289C130.109 92.8989 130.229 93.9989 129.919 95.0289C128.919 98.2989 124.289 99.1989 123.019 102.369C122.079 104.699 123.499 107.529 125.739 108.669C127.979 109.809 130.739 109.489 133.009 108.399C137.089 106.429 139.809 101.929 139.659 97.3889C139.509 92.8589 136.779 87.4789 132.739 86.9489H132.719Z" fill="#FAB23C"/>
<path d="M170.77 54.0308C166.48 54.9708 164.07 59.8008 164.02 64.2008C163.97 68.5908 165.62 72.8108 166.5 77.1108C167.38 81.4208 167.35 86.3408 164.46 89.6608C171.29 89.7408 178.06 86.1608 181.84 80.4608C185.62 74.7608 186.29 67.1408 183.56 60.8708C182.3 57.9808 180.27 55.3008 177.43 53.9208C174.59 52.5408 170.89 52.7008 170.77 54.0308Z" fill="#FAB23C"/>
<path d="M210.5 81.1103C203.56 85.6903 200.85 95.2703 203.27 103.22C205.69 111.17 212.53 117.33 220.36 120.14C226.88 122.49 234.9 122.44 239.94 117.69C245.31 112.63 245.46 103.81 242.3 97.1503C237.14 86.3003 223.86 80.0203 210.5 81.1103Z" fill="#FAB23C"/>
<path d="M145.27 129.04C137.59 131.61 133.82 141.51 136.87 149.01C139.91 156.51 148.46 160.96 156.53 160.37C164.6 159.78 171.94 154.78 176.61 148.17C179.31 144.35 181.27 139.73 180.76 135.08C179.94 127.6 172.6 121.97 165.1 121.39C157.6 120.81 151.75 126.88 145.27 129.05V129.04Z" fill="#FAB23C"/>
<path d="M198.34 158.18C192.79 163.64 191.48 172.93 195.31 179.71C203 180.55 210.97 175.92 214.07 168.83C217.17 161.74 215.13 152.75 209.28 147.68C204.82 151.92 200.38 156.18 198.35 158.18H198.34Z" fill="#FAB23C"/>
<path d="M246.229 144.639C242.099 148.079 240.889 154.559 243.489 159.259C246.089 163.959 252.219 166.379 257.329 164.709C258.469 164.339 259.589 163.759 260.329 162.819C261.069 161.879 261.359 160.509 260.809 159.449C260.239 158.349 258.969 157.839 257.849 157.319C252.199 154.689 247.819 149.479 246.229 144.629V144.639Z" fill="#FAB23C"/>
<path d="M127.26 269.953C125.66 270.103 124.04 270.803 123.15 272.133C122.25 273.463 122.32 275.483 123.55 276.503C125.39 278.023 128.25 276.643 130.5 277.453C133.81 278.633 134.13 283.723 137.33 285.193C139.62 286.243 142.53 284.693 143.45 282.353C144.37 280.013 143.6 277.253 142.03 275.283C140.46 273.313 138.21 272.013 135.93 270.953C133.23 269.703 130.25 269.683 127.27 269.963L127.26 269.953Z" fill="#FAB23C"/>
<path d="M148.669 36.781C144.779 45.301 133.239 49.771 123.429 46.531C112.749 43.011 106.939 36.591 108.959 27.711C110.989 18.831 121.179 14.841 132.489 16.161C143.659 17.461 152.459 28.481 148.669 36.781Z" fill="#FA4741"/>
<mask id="mask3_1966_21147" style="mask-type:luminance" maskUnits="userSpaceOnUse" x="108" y="15" width="42" height="33">
<path d="M148.669 36.781C144.779 45.301 133.239 49.771 123.429 46.531C112.749 43.011 106.939 36.591 108.959 27.711C110.989 18.831 121.179 14.841 132.489 16.161C143.659 17.461 152.459 28.481 148.669 36.781Z" fill="white"/>
</mask>
<g mask="url(#mask3_1966_21147)">
<path opacity="0.52" d="M114.089 15.6517C111.499 19.9317 108.799 24.9117 110.309 29.6817C111.489 33.3917 114.939 35.8917 118.369 37.7317C123.249 40.3517 128.679 42.2517 134.209 42.0317C139.739 41.8117 145.379 39.1817 148.219 34.4217C151.599 28.7517 150.249 20.9717 145.789 16.1017C141.339 11.2317 134.339 9.14168 127.769 9.75168C121.199 10.3617 115.329 13.5817 114.079 15.6417L114.089 15.6517Z" fill="#FF6A59"/>
</g>
<path d="M148.669 36.781C144.779 45.301 133.239 49.771 123.429 46.531C112.749 43.011 106.939 36.591 108.959 27.711C110.989 18.831 121.179 14.841 132.489 16.161C143.659 17.461 152.459 28.481 148.669 36.781Z" stroke="#4F2C26" stroke-width="3" stroke-linecap="round" stroke-linejoin="round"/>
<path d="M119.56 29.9227C122.36 29.8827 125.15 31.3327 126.72 33.6527" stroke="#CF3241" stroke-width="3" stroke-linecap="round" stroke-linejoin="round"/>
<path d="M131.83 25.9324C135.43 25.4524 139.21 26.5324 142.02 28.8324" stroke="#CF3241" stroke-width="3" stroke-linecap="round" stroke-linejoin="round"/>
<path d="M210.259 80.3604C219.099 74.4604 232.619 76.8704 239.819 85.6304C247.659 95.1704 249.189 104.66 241.869 111.97C234.549 119.29 222.589 117.21 212.819 109.41C203.169 101.72 201.659 86.1004 210.259 80.3604Z" fill="#FA4741"/>
<mask id="mask4_1966_21147" style="mask-type:luminance" maskUnits="userSpaceOnUse" x="204" y="77" width="43" height="40">
<path d="M210.259 80.3604C219.099 74.4604 232.619 76.8704 239.819 85.6304C247.659 95.1704 249.189 104.66 241.869 111.97C234.549 119.29 222.589 117.21 212.819 109.41C203.169 101.72 201.659 86.1004 210.259 80.3604Z" fill="white"/>
</mask>
<g mask="url(#mask4_1966_21147)">
<path opacity="0.52" d="M215.849 73.5289C212.519 75.9889 209.179 78.7589 207.569 82.5789C205.959 86.3989 206.719 91.5089 210.269 93.6289C211.519 94.3689 213.009 94.6989 214.139 95.6189C215.989 97.1189 216.379 99.7089 217.279 101.919C220.119 108.909 229.329 112.159 236.249 109.159C243.169 106.159 247.099 97.9189 245.859 90.4789C244.619 83.0389 238.759 76.7789 231.669 74.2189C224.579 71.6589 216.799 72.8389 215.859 73.5289H215.849Z" fill="#FF6A59"/>
</g>
<path d="M210.259 80.3604C219.099 74.4604 232.619 76.8704 239.819 85.6304C247.659 95.1704 249.189 104.66 241.869 111.97C234.549 119.29 222.589 117.21 212.819 109.41C203.169 101.72 201.659 86.1004 210.259 80.3604Z" stroke="#4F2C26" stroke-width="3" stroke-linecap="round" stroke-linejoin="round"/>
<path d="M237.449 94.5587C233.259 92.8387 228.069 93.8987 224.899 97.1487" stroke="#CF3241" stroke-width="3" stroke-linecap="round" stroke-linejoin="round"/>
<path d="M222.22 89.5903C219.99 88.2103 217.4 87.4203 214.77 87.3203" stroke="#CF3241" stroke-width="3" stroke-linecap="round" stroke-linejoin="round"/>
<path d="M219.1 101.711C222.22 101.861 225.28 102.911 227.84 104.701" stroke="#CF3241" stroke-width="3" stroke-linecap="round" stroke-linejoin="round"/>
<path d="M137.4 144.552C135.08 133.922 142.43 121.932 153.47 118.352C165.49 114.452 175.11 116.542 179.34 126.252C183.58 135.962 177.12 146.582 166.04 152.982C155.1 159.302 139.65 154.902 137.39 144.552H137.4Z" fill="#FA4741"/>
<mask id="mask5_1966_21147" style="mask-type:luminance" maskUnits="userSpaceOnUse" x="136" y="116" width="45" height="40">
<path d="M137.4 144.552C135.08 133.922 142.43 121.932 153.47 118.352C165.49 114.452 175.11 116.542 179.34 126.252C183.58 135.962 177.12 146.582 166.04 152.982C155.1 159.302 139.65 154.902 137.39 144.552H137.4Z" fill="white"/>
</mask>
<g mask="url(#mask5_1966_21147)">
<path opacity="0.52" d="M144.84 116.312C137.5 120.782 132.94 129.482 133.46 138.062C133.69 141.962 134.96 145.892 137.57 148.792C140.18 151.692 144.24 153.412 148.07 152.662C151.83 151.922 154.89 149.022 158.65 148.312C162.06 147.672 166.13 148.762 168.65 146.372C170.77 144.362 170.57 140.952 171.86 138.332C172.94 136.152 175 134.632 176.43 132.662C180.08 127.632 178.79 120.042 174.37 115.672C169.95 111.302 163.15 109.942 157.04 111.102C150.93 112.252 145.62 115.842 144.84 116.312Z" fill="#FF6A59"/>
</g>
<path d="M137.4 144.552C135.08 133.922 142.43 121.932 153.47 118.352C165.49 114.452 175.11 116.542 179.34 126.252C183.58 135.962 177.12 146.582 166.04 152.982C155.1 159.302 139.65 154.902 137.39 144.552H137.4Z" stroke="#4F2C26" stroke-width="3" stroke-linecap="round" stroke-linejoin="round"/>
<path d="M165.03 122.391C162.61 124.301 160.72 126.891 159.66 129.791" stroke="#CF3241" stroke-width="3" stroke-linecap="round" stroke-linejoin="round"/>
<path d="M150.83 132.551C148.15 132.941 145.6 134.151 143.6 135.981" stroke="#CF3241" stroke-width="3" stroke-linecap="round" stroke-linejoin="round"/>
<path d="M164.97 135.719C160.92 137.269 157.83 141.089 157.16 145.379" stroke="#CF3241" stroke-width="3" stroke-linecap="round" stroke-linejoin="round"/>
<path d="M166.929 304.853C167.119 294.233 176.799 284.483 188.099 283.563C200.399 282.563 209.069 286.713 210.909 296.893C212.749 307.073 204.219 315.723 192.249 319.313C180.429 322.863 166.739 315.203 166.919 304.853H166.929Z" fill="#FA4741"/>
<mask id="mask6_1966_21147" style="mask-type:luminance" maskUnits="userSpaceOnUse" x="166" y="283" width="46" height="38">
<path d="M166.929 304.853C167.119 294.233 176.799 284.483 188.099 283.563C200.399 282.563 209.069 286.713 210.909 296.893C212.749 307.073 204.219 315.723 192.249 319.313C180.429 322.863 166.739 315.203 166.919 304.853H166.929Z" fill="white"/>
</mask>
<g mask="url(#mask6_1966_21147)">
<path opacity="0.52" d="M202.729 281.164C206.959 284.774 206.359 291.874 202.939 296.264C199.529 300.654 194.179 303.004 189.059 305.174C183.099 307.704 176.209 310.224 170.399 307.374C164.219 304.334 162.139 295.774 164.969 289.494C167.809 283.214 174.409 279.264 181.179 277.994C187.949 276.724 196.249 275.654 202.719 281.164H202.729Z" fill="#FF6A59"/>
</g>
<path d="M166.929 304.853C167.119 294.233 176.799 284.483 188.099 283.563C200.399 282.563 209.069 286.713 210.909 296.893C212.749 307.073 204.219 315.723 192.249 319.313C180.429 322.863 166.739 315.203 166.919 304.853H166.929Z" stroke="#4F2C26" stroke-width="3" stroke-linecap="round" stroke-linejoin="round"/>
<path d="M178.959 294.684C181.879 293.614 185.219 293.774 188.029 295.104" stroke="#CF3241" stroke-width="3" stroke-linecap="round" stroke-linejoin="round"/>
<path d="M194.459 296.044C195.799 293.484 198.429 291.644 201.299 291.254" stroke="#CF3241" stroke-width="3" stroke-linecap="round" stroke-linejoin="round"/>
<path d="M197.06 176.411C194.05 173.331 192.85 168.611 194 164.461C195.13 160.391 198.22 157.221 201.04 154.081C203.85 150.931 206.63 147.331 206.86 143.121C212.87 147.781 215.67 156.221 213.62 163.541C211.57 170.871 204.81 176.631 197.06 176.411Z" fill="#8CBF39" stroke="#4F2C26" stroke-width="3" stroke-linecap="round" stroke-linejoin="round"/>
<path d="M206.529 157.371C203.879 166.271 198.769 174.421 191.919 180.681" stroke="#4F2C26" stroke-width="3" stroke-linecap="round" stroke-linejoin="round"/>
<path d="M173.309 50.8633C169.429 52.7533 166.629 56.6933 166.119 60.9733C165.629 65.0333 167.069 69.0433 168.259 72.9633C169.449 76.8833 170.379 81.1633 168.939 84.9933C174.029 83.4233 178.739 80.3733 181.829 76.0233C184.919 71.6833 186.259 66.0133 184.939 60.8433C183.619 55.6833 179.499 51.2033 173.309 50.8633Z" fill="#8CBF39" stroke="#4F2C26" stroke-width="3" stroke-linecap="round" stroke-linejoin="round"/>
<path d="M175.679 68.3219C176.179 59.2419 174.249 50.0419 170.149 41.9219" stroke="#4F2C26" stroke-width="3" stroke-linecap="round" stroke-linejoin="round"/>
<path d="M142.84 279.639C144.97 275.819 140.57 270.849 136.65 268.919C132.58 266.909 124.08 266.729 124.19 272.129C124.22 273.349 124.49 273.699 125.66 274.049C128.21 274.799 131.03 273.289 133.42 274.459C136.21 275.819 136.14 280.059 138.82 281.619C139.95 282.279 141.91 281.299 142.83 279.649L142.84 279.639Z" fill="#8CBF39" stroke="#4F2C26" stroke-width="3" stroke-linecap="round" stroke-linejoin="round"/>
<path d="M134.019 84.2808C134.989 83.9408 136.099 84.0908 136.879 84.7708C140.609 87.9908 142.109 93.5808 140.269 98.1708C138.569 102.411 134.179 105.421 129.579 105.801C128.069 105.921 126.699 104.931 126.399 103.441C126.099 101.961 126.949 100.471 128.389 100.041C130.749 99.3408 132.779 97.4608 133.429 95.1208C134.009 93.0408 133.459 90.7608 132.159 89.0508C130.979 87.5008 131.559 85.2508 133.359 84.5208C133.569 84.4408 133.779 84.3608 133.999 84.2808H134.019Z" fill="#8CBF39" stroke="#4F2C26" stroke-width="3" stroke-linecap="round" stroke-linejoin="round"/>
<path d="M259.639 159.859C259.279 160.819 258.449 161.579 257.429 161.739C252.569 162.539 247.319 160.099 244.969 155.749C242.799 151.729 243.309 146.429 245.959 142.659C246.829 141.419 248.479 141.009 249.809 141.729C251.139 142.449 251.739 144.049 251.139 145.439C250.159 147.699 250.299 150.459 251.679 152.469C252.899 154.239 254.999 155.289 257.149 155.389C259.089 155.479 260.449 157.359 259.859 159.219C259.789 159.429 259.719 159.649 259.629 159.869L259.639 159.859Z" fill="#8CBF39" stroke="#4F2C26" stroke-width="3" stroke-linecap="round" stroke-linejoin="round"/>
<path d="M105.26 285.031C109.32 284.321 113.62 284.841 117.53 286.651C167.42 309.721 245.01 303.781 292.41 276.071C298.93 272.261 312.1 275.321 313.68 292.401C315.51 312.111 304.26 320.671 295.72 324.611C235.58 352.381 164.46 353.761 100.98 335.451C96.1895 334.071 91.9595 331.061 89.3795 326.791C82.6395 315.671 85.9095 299.851 94.4195 290.831" fill="#F08B2E"/>
<mask id="mask7_1966_21147" style="mask-type:luminance" maskUnits="userSpaceOnUse" x="85" y="274" width="229" height="74">
<path d="M105.26 285.031C109.32 284.321 113.62 284.841 117.53 286.651C167.42 309.721 245.01 303.781 292.41 276.071C298.93 272.261 312.1 275.321 313.68 292.401C315.51 312.111 304.26 320.671 295.72 324.611C235.58 352.381 164.46 353.761 100.98 335.451C96.1895 334.071 91.9595 331.061 89.3795 326.791C82.6395 315.671 85.9095 299.851 94.4195 290.831" fill="white"/>
</mask>
<g mask="url(#mask7_1966_21147)">
<path d="M114.37 282C120.94 285.88 126.18 291.98 129.04 299.05C131.09 304.12 131.91 309.68 131.29 316.3C130.82 321.28 134.28 325.75 139.18 326.77C177.89 334.8 215.2 333.21 254.1 326.07C269 323.34 289.13 317.16 301.33 308.17C313.53 299.19 314.75 274.68 305.5 258.91C238.03 245.36 180.83 268.97 114.38 281.99L114.37 282Z" fill="#FAA937"/>
</g>
<path d="M105.26 285.031C109.32 284.321 113.62 284.841 117.53 286.651C167.42 309.721 245.01 303.781 292.41 276.071C298.93 272.261 312.1 275.321 313.68 292.401C315.51 312.111 304.26 320.671 295.72 324.611C235.58 352.381 164.46 353.761 100.98 335.451C96.1895 334.071 91.9595 331.061 89.3795 326.791C82.6395 315.671 85.9095 299.851 94.4195 290.831" stroke="#4F2C26" stroke-width="3" stroke-linecap="round" stroke-linejoin="round"/>
<path d="M114.92 300.142C112.45 297.252 108.2 296.202 104.53 297.182C100.86 298.162 97.8297 300.992 96.1697 304.402C94.5097 307.812 94.1097 311.752 94.5897 315.522C94.9897 318.702 96.1897 322.052 98.9097 323.752C100.84 324.952 103.31 325.122 105.5 324.492C107.69 323.862 109.61 322.492 111.18 320.842C116.29 315.492 119.65 305.682 114.91 300.142H114.92Z" fill="#FAA937"/>
<path d="M101.799 293.871C106.199 292.001 111.599 294.281 114.279 298.241C116.959 302.191 117.299 307.361 116.339 312.041C115.599 315.681 114.069 319.251 111.449 321.891C108.829 324.521 104.989 326.101 101.329 325.461C97.6695 324.821 94.4195 321.691 94.1895 317.981" stroke="#4F2C26" stroke-width="3" stroke-linecap="round" stroke-linejoin="round"/>
<path d="M104.04 256.204C98.4601 258.304 91.0001 260.694 84.1701 262.184C73.9301 264.414 63.2001 262.024 54.9601 255.554C52.9601 253.984 51.1901 252.344 49.9001 250.754C45.2601 255.784 40.6101 260.814 35.5601 267.284C41.8501 272.164 48.8301 276.144 56.3001 279.234C62.6601 281.874 69.6101 282.664 76.4001 281.524C84.4501 280.174 91.5701 278.014 100.39 275.244" fill="#F08B2E"/>
<path d="M104.04 256.204C98.4601 258.304 91.0001 260.694 84.1701 262.184C73.9301 264.414 63.2001 262.024 54.9601 255.554C52.9601 253.984 51.1901 252.344 49.9001 250.754C45.2601 255.784 40.6101 260.814 35.5601 267.284C41.8501 272.164 48.8301 276.144 56.3001 279.234C62.6601 281.874 69.6101 282.664 76.4001 281.524C84.4501 280.174 91.5701 278.014 100.39 275.244" stroke="#4F2C26" stroke-width="3" stroke-linecap="round" stroke-linejoin="round"/>
<path d="M53.3098 257.033C55.8798 250.103 54.5698 242.443 49.8498 235.833C48.8598 230.903 49.2598 225.693 50.9898 220.973C51.8098 218.733 52.9398 216.393 52.3798 214.073C51.6198 210.933 47.7698 209.273 44.6398 210.063C41.5098 210.853 39.1298 213.463 37.6098 216.323C34.8598 221.493 34.4098 227.833 34.1698 234.403C27.2298 232.213 16.6098 231.013 12.1198 236.243C9.73984 239.013 10.1998 244.323 13.3698 247.483C13.2198 251.623 13.0698 256.073 13.7798 260.153C14.4898 264.233 16.1298 268.273 19.0898 271.173C22.4598 274.473 27.2398 276.003 31.9398 276.313C34.2798 276.463 37.0498 276.353 39.1198 275.393" fill="#F08B2E"/>
<path d="M53.3098 257.033C55.8798 250.103 54.5698 242.443 49.8498 235.833C48.8598 230.903 49.2598 225.693 50.9898 220.973C51.8098 218.733 52.9398 216.393 52.3798 214.073C51.6198 210.933 47.7698 209.273 44.6398 210.063C41.5098 210.853 39.1298 213.463 37.6098 216.323C34.8598 221.493 34.4098 227.833 34.1698 234.403C27.2298 232.213 16.6098 231.013 12.1198 236.243C9.73984 239.013 10.1998 244.323 13.3698 247.483C13.2198 251.623 13.0698 256.073 13.7798 260.153C14.4898 264.233 16.1298 268.273 19.0898 271.173C22.4598 274.473 27.2398 276.003 31.9398 276.313C34.2798 276.463 37.0498 276.353 39.1198 275.393" stroke="#4F2C26" stroke-width="3" stroke-linecap="round" stroke-linejoin="round"/>
<path d="M32.9499 234.023C36.1199 234.783 42.4999 238.503 39.7499 243.683C38.6599 245.733 36.2399 246.653 33.9899 247.223C28.6699 248.573 23.1099 248.943 17.6699 248.303" stroke="#4F2C26" stroke-width="3" stroke-linecap="round" stroke-linejoin="round"/>
<path d="M39.6898 246.664C39.6898 246.664 39.7098 246.714 39.7198 246.734C41.5298 250.624 39.6498 255.414 35.8898 256.934C30.8998 258.954 25.4398 259.854 20.0498 259.524" stroke="#4F2C26" stroke-width="3" stroke-linecap="round" stroke-linejoin="round"/>
<path d="M39.8299 255.922C39.8299 255.922 39.8599 255.962 39.8699 255.982C42.3699 259.382 40.6399 264.062 36.4199 265.592C33.3099 266.722 29.8699 267.292 26.4399 267.202" stroke="#4F2C26" stroke-width="3" stroke-linecap="round" stroke-linejoin="round"/>
<path d="M39.0397 264.773C44.1097 266.113 44.1797 273.673 39.0997 275.413C33.4897 277.333 28.6397 275.583 27.6597 275.693" stroke="#4F2C26" stroke-width="3" stroke-linecap="round" stroke-linejoin="round"/>
<path d="M126 203.84C112.29 214.03 98.5797 224.22 84.2297 235.76C83.0197 236.73 82.2597 238.17 82.1397 239.72C81.8697 243.27 81.9497 246.83 82.4697 250.31C82.8297 252.71 84.6797 254.62 87.0697 255.03C87.0997 255.03 87.1297 255.04 87.1697 255.05C90.3497 255.59 93.3097 253.35 93.6897 250.15C94.6297 242.12 99.7697 234.59 106.39 229.68C114.57 223.61 124.7 220.84 134.66 218.71C133.41 212.69 130.83 206.95 126 203.84Z" fill="#5678A8" stroke="#4F2C26" stroke-width="3" stroke-linecap="round" stroke-linejoin="round"/>
<path d="M304.529 199.6C282.659 196.35 247.709 194.11 226.149 197.21C221.889 195.53 217.779 194.91 213.719 195.14C210.579 195.32 207.479 196.02 204.559 197.16C182.979 194.13 148.259 196.37 126.489 199.6C124.669 199.87 123.269 201.39 123.199 203.23C123.139 205.06 123.199 206.89 123.399 208.7C123.599 210.55 125.129 211.97 126.979 212.12C128.669 212.25 129.579 212.26 130.499 212.26C129.979 223.71 130.989 235.23 133.469 246.43C135.759 256.77 143.679 265.01 153.899 267.77C161.949 269.94 170.559 270.76 179.139 270.16C192.949 269.19 203.999 258.36 205.619 244.61C206.909 233.66 207.289 222.86 206.809 212.18C212.529 211.04 218.439 210.88 224.209 211.72C223.689 222.55 224.069 233.51 225.379 244.61C226.999 258.36 238.049 269.19 251.859 270.16C260.439 270.76 269.049 269.94 277.099 267.77C287.319 265.01 295.239 256.77 297.529 246.43C300.009 235.24 301.019 223.72 300.499 212.26C301.409 212.26 302.329 212.26 304.019 212.12C305.869 211.97 307.409 210.55 307.599 208.7C307.799 206.88 307.859 205.05 307.799 203.23C307.739 201.39 306.329 199.87 304.509 199.6H304.529Z" fill="#5678A8" stroke="#4F2C26" stroke-width="3" stroke-linecap="round" stroke-linejoin="round"/>
<path d="M140.84 239.591C139.87 231.221 139.5 221.211 139.75 213.051C157.22 210.571 180.22 210.941 197.84 212.131C198.48 219.891 198.64 230.451 197.88 239.531C196.82 252.141 186.11 261.701 173.45 261.461C169.34 261.381 165.17 261.061 161.15 260.501C150.42 259.001 142.08 250.351 140.84 239.591Z" fill="#354973"/>
<mask id="mask8_1966_21147" style="mask-type:luminance" maskUnits="userSpaceOnUse" x="139" y="211" width="60" height="51">
<path d="M140.84 239.591C139.87 231.221 139.5 221.211 139.75 213.051C157.22 210.571 180.22 210.941 197.84 212.131C198.48 219.891 198.64 230.451 197.88 239.531C196.82 252.141 186.11 261.701 173.45 261.461C169.34 261.381 165.17 261.061 161.15 260.501C150.42 259.001 142.08 250.351 140.84 239.591Z" fill="white"/>
</mask>
<g mask="url(#mask8_1966_21147)">
<path d="M134.95 230.641L162 202.621L171.08 203.781L136.5 239.911L134.95 230.641Z" fill="#93C3ED"/>
<path d="M137.85 249.763L176.3 205.723L192.72 206.683L146.74 259.623L137.85 249.763Z" fill="#93C3ED"/>
</g>
<path d="M140.84 239.591C139.87 231.221 139.5 221.211 139.75 213.051C157.22 210.571 180.22 210.941 197.84 212.131C198.48 219.891 198.64 230.451 197.88 239.531C196.82 252.141 186.11 261.701 173.45 261.461C169.34 261.381 165.17 261.061 161.15 260.501C150.42 259.001 142.08 250.351 140.84 239.591Z" stroke="#4F2C26" stroke-width="3" stroke-linecap="round" stroke-linejoin="round"/>
<path d="M290.179 239.591C291.149 231.221 291.519 221.211 291.269 213.051C273.799 210.571 250.799 210.941 233.179 212.131C232.539 219.891 232.379 230.451 233.139 239.531C234.199 252.141 244.91 261.701 257.57 261.461C261.68 261.381 265.849 261.061 269.869 260.501C280.599 259.001 288.939 250.351 290.179 239.591Z" fill="#354973"/>
<mask id="mask9_1966_21147" style="mask-type:luminance" maskUnits="userSpaceOnUse" x="232" y="211" width="60" height="51">
<path d="M290.179 239.591C291.149 231.221 291.519 221.211 291.269 213.051C273.799 210.571 250.799 210.941 233.179 212.131C232.539 219.891 232.379 230.451 233.139 239.531C234.199 252.141 244.91 261.701 257.57 261.461C261.68 261.381 265.849 261.061 269.869 260.501C280.599 259.001 288.939 250.351 290.179 239.591Z" fill="white"/>
</mask>
<g mask="url(#mask9_1966_21147)">
<path d="M224.35 232.563L251.4 204.543L260.48 205.703L225.9 241.833L224.35 232.563Z" fill="#93C3ED"/>
<path d="M227.25 251.685L265.7 207.645L282.12 208.605L236.14 261.545L227.25 251.685Z" fill="#93C3ED"/>
</g>
<path d="M290.179 239.591C291.149 231.221 291.519 221.211 291.269 213.051C273.799 210.571 250.799 210.941 233.179 212.131C232.539 219.891 232.379 230.451 233.139 239.531C234.199 252.141 244.91 261.701 257.57 261.461C261.68 261.381 265.849 261.061 269.869 260.501C280.599 259.001 288.939 250.351 290.179 239.591Z" stroke="#4F2C26" stroke-width="3" stroke-linecap="round" stroke-linejoin="round"/>
<path d="M227.93 270.57C224.22 272.38 219.85 272.8 215.87 271.73C211.89 270.66 208.32 268.11 206.02 264.68" stroke="#4F2C26" stroke-width="3" stroke-linecap="round" stroke-linejoin="round"/>
<path d="M208.7 258.191C208.68 262.951 204.31 267.251 199.55 267.201" stroke="#4F2C26" stroke-width="3" stroke-linecap="round" stroke-linejoin="round"/>
<path d="M226.57 264.02C226.15 266.16 226.76 268.48 228.17 270.15C229.58 271.82 231.77 272.8 233.95 272.75" stroke="#4F2C26" stroke-width="3" stroke-linecap="round" stroke-linejoin="round"/>
<path d="M145.68 183.22C148.47 179.07 153.09 176.21 158.05 175.57C163.01 174.93 168.21 176.51 171.96 179.81" stroke="#4F2C26" stroke-width="3" stroke-linecap="round" stroke-linejoin="round"/>
<path d="M247.27 179.431C250.26 176.221 254.82 174.541 259.18 175.051C263.54 175.551 267.59 178.231 269.77 182.031" stroke="#4F2C26" stroke-width="3" stroke-linecap="round" stroke-linejoin="round"/>
<path d="M340.82 347.258C340.4 356.348 338.65 364.418 331.71 368.508H349.92C343.16 364.128 340.92 356.468 340.81 347.258H340.82Z" fill="#FFF1D1"/>
<path d="M340.82 389.758C340.4 380.668 338.65 372.598 331.71 368.508H349.92C343.16 372.888 340.92 380.548 340.81 389.758H340.82Z" fill="#FFF1D1"/>
<path d="M340.82 83.3789C340.4 92.4689 338.65 100.539 331.71 104.629H349.92C343.16 100.249 340.92 92.5889 340.81 83.3789H340.82Z" fill="#FFF1D1"/>
<path d="M340.82 125.879C340.4 116.789 338.65 108.719 331.71 104.629H349.92C343.16 109.009 340.92 116.669 340.81 125.879H340.82Z" fill="#FFF1D1"/>
<path d="M9.11 132.027C8.69 141.117 6.94 149.187 0 153.277H18.21C11.45 148.897 9.21 141.237 9.1 132.027H9.11Z" fill="#FFF1D1"/>
<path d="M9.11 174.527C8.69 165.437 6.94 157.367 0 153.277H18.21C11.45 157.657 9.21 165.317 9.1 174.527H9.11Z" fill="#FFF1D1"/>
<path d="M61.0402 94C60.8302 98.55 59.9602 102.58 56.4902 104.63H65.6002C62.2202 102.44 61.1002 98.61 61.0502 94H61.0402Z" fill="#FFF1D1"/>
<path d="M61.0402 115.251C60.8302 110.701 59.9602 106.671 56.4902 104.621H65.6002C62.2202 106.811 61.1002 110.641 61.0502 115.251H61.0402Z" fill="#FFF1D1"/>
<path d="M70.1501 352.059C69.9401 356.609 69.0701 360.639 65.6001 362.689H74.7101C71.3301 360.499 70.2101 356.669 70.1601 352.059H70.1501Z" fill="#FFF1D1"/>
<path d="M70.1501 373.31C69.9401 368.76 69.0701 364.73 65.6001 362.68H74.7101C71.3301 364.87 70.2101 368.7 70.1601 373.31H70.1501Z" fill="#FFF1D1"/>
<path d="M22.82 308.098C22.61 312.648 21.74 316.678 18.27 318.728H27.38C24 316.538 22.88 312.708 22.83 308.098H22.82Z" fill="#FFF1D1"/>
<path d="M22.82 329.349C22.61 324.799 21.74 320.769 18.27 318.719H27.38C24 320.909 22.88 324.739 22.83 329.349H22.82Z" fill="#FFF1D1"/>
<path d="M256.82 28.3789C256.61 32.9289 255.74 36.9589 252.27 39.0089H261.38C258 36.8189 256.88 32.9889 256.83 28.3789H256.82Z" fill="#FFF1D1"/>
<path d="M256.82 49.63C256.61 45.08 255.74 41.05 252.27 39H261.38C258 41.19 256.88 45.02 256.83 49.63H256.82Z" fill="#FFF1D1"/>
<path d="M331.72 183.707C331.51 188.257 330.64 192.287 327.17 194.337H336.28C332.9 192.147 331.78 188.317 331.73 183.707H331.72Z" fill="#FFF1D1"/>
<path d="M331.72 204.958C331.51 200.408 330.64 196.378 327.17 194.328H336.28C332.9 196.518 331.78 200.348 331.73 204.958H331.72Z" fill="#FFF1D1"/>
<path d="M274.38 352.059C274.17 356.609 273.3 360.639 269.83 362.689H278.94C275.56 360.499 274.44 356.669 274.39 352.059H274.38Z" fill="#FFF1D1"/>
<path d="M274.38 373.31C274.17 368.76 273.3 364.73 269.83 362.68H278.94C275.56 364.87 274.44 368.7 274.39 373.31H274.38Z" fill="#FFF1D1"/>
</g>
<defs>
<clipPath id="clip0_1966_21147">
<rect width="349.93" height="424.12" fill="white"/>
</clipPath>
</defs>
</svg>
