<svg width="343" height="218" viewBox="0 0 343 218" fill="none" xmlns="http://www.w3.org/2000/svg">
<g clip-path="url(#clip0_1234_23531)">
<rect width="343" height="218" rx="16" fill="#4685F1"/>
<g clip-path="url(#clip1_1234_23531)">
<rect width="343" height="218" rx="16" fill="#4C4F52"/>
<g clip-path="url(#clip2_1234_23531)">
<path d="M17.0277 121.522C14.1245 121.522 11.1546 121.028 8.1847 120.039C-9.47474 114.132 -11.4724 95.0885 -10.0607 85.8406C-9.58128 82.7402 -6.69131 80.602 -3.60158 81.0831C-0.511841 81.5642 1.61901 84.4641 1.13957 87.5646C1.04634 88.2461 -1.21769 104.924 11.7672 109.254C16.7347 110.911 21.1829 110.35 25.3913 107.517C31.2778 103.548 34.7804 96.4917 35.8192 93.124C31.6907 89.4623 19.8245 80.3614 13.3121 75.831C-9.28829 60.1284 -15.8806 51.4285 -14.9084 38.5724C-14.2159 29.3379 -8.14296 9.94679 5.18819 -2.77568C21.4359 -18.2912 43.5435 -22.4608 58.939 -12.9056C66.8364 -8.01435 72.1769 -0.356806 74.4143 9.22514C76.3853 17.6979 75.7061 26.9324 72.4832 35.2314C63.5336 58.2708 45.8608 62.8947 45.115 63.0685C42.0786 63.8168 39.0022 61.9593 38.2564 58.9123C37.5106 55.8787 39.3351 52.8183 42.3583 52.0432C42.9975 51.8695 55.2499 48.3147 61.9355 31.1019C67.8486 15.867 61.9088 2.28926 52.9859 -3.24342C41.9587 -10.0858 25.5112 -6.51758 12.9924 5.44315C2.55126 15.4126 -3.00228 31.3157 -3.6149 39.4143C-4.08102 45.6152 -2.70928 50.8538 19.7579 66.4763C23.5535 69.1223 29.8528 73.7997 35.0734 77.8757C46.1006 86.4821 46.7798 87.7918 47.2592 89.93C48.4179 95.035 43.4636 106.688 35.3664 114.052C29.946 118.983 23.6334 121.509 17.0277 121.509V121.522Z" fill="#45494F"/>
<path d="M282.839 46.5373C282.439 46.5373 282.026 46.4972 281.627 46.4036C278.564 45.7354 276.632 42.7018 277.298 39.6281L279.256 30.6342C279.922 27.5738 282.945 25.6227 286.008 26.2909C289.058 26.9591 291.002 29.9927 290.337 33.0664L288.379 42.0604C287.793 44.7198 285.449 46.5373 282.852 46.5373H282.839Z" fill="#45494F"/>
<path fill-rule="evenodd" clip-rule="evenodd" d="M78.8759 115.723C80.4341 115.936 81.939 116.03 83.4039 116.03L83.3773 116.003C98.3465 116.003 108.268 106.047 108.721 105.579C110.905 103.348 110.865 99.7795 108.655 97.5744C106.444 95.3827 102.861 95.3961 100.651 97.6012C100.304 97.9486 92.1005 106.007 80.3541 104.443C75.7062 103.815 72.3901 102.011 70.1926 98.8975C67.023 94.3938 66.9431 88.1662 67.4225 84.745L107.403 90.104C110.333 90.5049 113.063 88.5671 113.689 85.6672C113.955 84.451 116.073 73.4659 110.146 64.4853C106.737 59.3135 101.49 56.0126 94.5776 54.6895C71.6443 50.2928 59.2587 68.2539 56.5152 81.4041C55.1968 87.7252 55.5697 97.8283 60.9634 105.473C64.9721 111.139 71.1648 114.694 78.8759 115.723ZM102.901 78.023L71.9639 73.8802C75.5597 68.695 81.8457 63.8171 92.4734 65.8484C96.3089 66.5835 98.9991 68.1737 100.69 70.7129C102.195 72.9714 102.755 75.6977 102.901 78.023Z" fill="#45494F"/>
<path d="M50.7885 237C50.3224 237 49.8429 236.947 49.3635 236.813C46.327 236.024 44.5158 232.924 45.3015 229.877L66.8365 146.473C67.6222 143.426 70.712 141.608 73.7484 142.397C76.7849 143.185 78.5961 146.286 77.8104 149.333L68.8932 183.869C84.1682 188.589 94.5528 184.251 99.5714 181.059C106.617 176.569 110.958 169.566 111.491 161.855C111.97 154.986 110.132 149.012 106.19 144.562C101.09 138.829 92.5263 135.515 81.3926 135.007C52.9857 133.71 40.0541 150.389 39.9209 150.562C38.0298 153.061 34.4872 153.556 31.9835 151.672C29.493 149.774 28.9869 146.206 30.8781 143.707C31.544 142.825 47.5786 122.07 81.912 123.647C96.1621 124.302 107.482 128.926 114.647 136.998C120.667 143.773 123.477 152.647 122.798 162.643C122.012 174.003 115.766 184.213 105.658 190.654C98.7724 195.051 90.6219 197.269 81.9786 197.269L81.9653 197.256C76.7905 197.256 71.4371 196.462 66.0534 194.867L56.2754 232.737C55.6095 235.303 53.3189 237 50.7885 237Z" fill="#45494F"/>
<path d="M118.802 124.142C119.375 124.316 119.948 124.409 120.52 124.409C122.918 124.409 125.155 122.859 125.914 120.44L138.017 82.1107C141.135 83.0508 144.246 83.6682 147.307 83.9688C147.336 84.005 147.366 84.0409 147.396 84.0766C148.288 85.1323 169.543 110.216 180.504 117.74C181.49 118.409 182.595 118.729 183.7 118.729H183.714C185.512 118.729 187.296 117.874 188.388 116.257C190.159 113.664 189.494 110.136 186.91 108.359C180.671 104.075 169.098 91.6021 161.472 82.9767C165.12 82.0444 168.56 80.5736 171.701 78.5705C180.304 73.0913 185.618 64.3914 186.284 54.7159C186.83 46.8045 183.967 39.0534 178.214 32.8926C171.541 25.7562 161.566 21.5065 151.498 21.5065H151.351C122.838 21.6268 109.44 37.5833 108.881 38.2649C106.883 40.6971 107.229 44.2787 109.653 46.2699C112.077 48.2745 115.646 47.927 117.631 45.4948C117.724 45.3745 128.138 32.9861 151.391 32.8926H151.498C158.49 32.8926 165.375 35.7926 169.943 40.6838C173.512 44.5058 175.31 49.2233 174.977 53.9408C174.551 59.9813 171.142 65.4605 165.615 68.9886C158.985 73.2209 150.501 73.9966 141.438 71.2778L148.807 47.9407C149.753 44.9472 148.102 41.7532 145.118 40.8044C142.135 39.8556 138.952 41.5127 138.007 44.5062L115.113 117.006C114.168 119.999 115.819 123.193 118.802 124.142Z" fill="#45494F"/>
<path d="M223.228 113.798C224.546 113.932 225.825 113.999 227.076 113.999V113.985C243.231 113.985 253.566 103.535 254.032 103.054C254.817 102.238 255.35 101.209 255.55 100.1L259.172 80.0809C259.692 77.1676 257.907 74.3344 255.044 73.5727L229.194 66.7036C226.171 65.9018 223.068 67.7059 222.269 70.7395C221.47 73.7731 223.268 76.8869 226.291 77.6888L247.08 83.2215L244.736 96.1577C241.966 98.4563 234.534 103.521 224.373 102.479C218.154 101.837 212.813 99.0844 209.324 94.7011C205.795 90.2643 204.356 84.344 205.182 77.5819C206.128 69.804 209.936 51.6024 224.879 50.4932C240.567 49.3171 250.196 59.3534 250.636 59.8212C252.767 62.1198 256.336 62.2668 258.626 60.1419C260.93 58.0171 261.077 54.4221 258.959 52.1102C258.413 51.5222 245.375 37.5836 224.053 39.1605C207.859 40.3499 196.605 54.2083 193.928 76.2187C192.73 86.0813 194.994 94.9416 200.467 101.811C205.874 108.586 213.958 112.849 223.228 113.798Z" fill="#45494F"/>
<path d="M132.347 203.524C131.934 203.524 131.521 203.484 131.108 203.39C128.058 202.708 126.127 199.675 126.806 196.601L137.874 146.673C138.553 143.613 141.589 141.689 144.639 142.357C147.689 143.038 149.62 146.072 148.941 149.146L137.874 199.073C137.288 201.72 134.944 203.524 132.347 203.524Z" fill="#45494F"/>
<path d="M145.611 135.915C146.011 136.009 146.424 136.049 146.823 136.049L146.836 136.036C149.433 136.036 151.777 134.231 152.363 131.572L154.321 122.578C154.987 119.504 153.043 116.471 149.993 115.803C146.93 115.134 143.907 117.086 143.241 120.146L141.283 129.14C140.617 132.213 142.561 135.247 145.611 135.915Z" fill="#45494F"/>
<path d="M268.348 114.012C267.936 114.012 267.523 113.972 267.11 113.878C264.06 113.197 262.129 110.163 262.808 107.09L273.875 57.1619C274.555 54.0882 277.591 52.1638 280.641 52.8453C283.691 53.5269 285.622 56.5605 284.942 59.6342L273.875 109.562C273.289 112.208 270.945 114.012 268.348 114.012Z" fill="#45494F"/>
<path fill-rule="evenodd" clip-rule="evenodd" d="M314.921 111.165C317.105 111.58 319.316 111.794 321.513 111.794L321.5 111.807C328.824 111.807 336.083 109.482 342.422 105.018C351.092 98.9108 356.978 89.6763 358.563 79.6667C361.054 63.9641 352.69 49.1568 338.68 44.4794C329.917 41.5394 320.101 42.8357 311.072 48.1011C300.764 54.1282 293.026 64.5922 290.882 75.417C289.31 83.4086 290.935 91.5339 295.477 98.296C300.018 105.058 306.917 109.629 314.921 111.165ZM316.798 57.9236C320.9 55.5314 325.149 54.3153 329.184 54.3153L329.157 54.3019C331.208 54.3019 333.206 54.6093 335.111 55.2508C345.006 58.5517 348.775 69.1225 347.39 77.8626C346.297 84.745 342.022 91.4136 335.936 95.69C330.223 99.7126 323.524 101.236 317.065 99.9932C312.057 99.031 307.729 96.1712 304.892 91.9348C302.056 87.6984 301.03 82.6201 302.016 77.622C303.547 69.8977 309.207 62.347 316.798 57.9236Z" fill="#45494F"/>
<path d="M153.908 201.572C151.91 201.572 150.033 200.516 149.007 198.739C147.835 196.708 148.022 194.169 149.487 192.338L193.795 136.824L164.855 140.686C161.752 141.1 158.902 138.909 158.489 135.795C158.077 132.681 160.261 129.821 163.364 129.407L206.3 123.687C208.591 123.38 210.842 124.502 211.987 126.534C213.119 128.552 212.919 131.064 211.481 132.882L167.479 188.021L206.181 181.941C209.27 181.459 212.174 183.571 212.653 186.685C213.132 189.785 211.028 192.699 207.925 193.18L154.8 201.532C154.507 201.572 154.214 201.599 153.921 201.599L153.908 201.572Z" fill="#45494F"/>
<path d="M206.221 211.235C207.246 212.985 209.111 214.028 211.095 214.028L211.082 214.014C211.402 214.014 211.735 213.988 212.067 213.934L277.538 202.361C280.614 201.813 282.679 198.86 282.133 195.773C281.587 192.686 278.657 190.628 275.567 191.162L224.919 200.116L275.38 137.052C276.859 135.207 277.045 132.628 275.833 130.583C274.621 128.539 272.277 127.47 269.947 127.897L221.337 136.784C218.26 137.346 216.223 140.312 216.782 143.399C217.341 146.486 220.285 148.531 223.374 147.97L257.042 141.809L206.674 204.78C205.209 206.624 205.022 209.19 206.221 211.235Z" fill="#45494F"/>
<path fill-rule="evenodd" clip-rule="evenodd" d="M276.566 182.796C275.327 182.796 274.075 182.382 273.023 181.553C270.586 179.588 270.187 176.007 272.144 173.561L312.391 123.139C313.576 121.642 315.427 120.854 317.332 121.028C319.223 121.201 320.901 122.324 321.806 124.008L338.264 154.83C338.389 155.031 338.501 155.241 338.6 155.459L345.419 168.229C346.897 170.995 345.858 174.443 343.102 175.927C340.345 177.41 336.909 176.368 335.431 173.601L330.199 163.807L291.91 166.985L280.987 180.671C279.869 182.074 278.217 182.809 276.566 182.809V182.796ZM301.664 154.766L324.364 152.881L315.867 136.971L301.664 154.766Z" fill="#45494F"/>
</g>
</g>
</g>
<defs>
<clipPath id="clip0_1234_23531">
<rect width="343" height="218" rx="16" fill="white"/>
</clipPath>
<clipPath id="clip1_1234_23531">
<rect width="343" height="218" rx="16" fill="white"/>
</clipPath>
<clipPath id="clip2_1234_23531">
<rect width="343" height="234" fill="white" transform="translate(0 -8)"/>
</clipPath>
</defs>
</svg>
