<svg width="35" height="35" viewBox="0 0 35 35" fill="none" xmlns="http://www.w3.org/2000/svg">
<path fill-rule="evenodd" clip-rule="evenodd" d="M13.9903 5.96875C11.9925 5.96875 10.1928 7.17643 9.43565 9.02522L7.5579 13.61H28.45L26.5916 9.03747C25.8375 7.18218 24.0346 5.96875 22.0319 5.96875H13.9903ZM32.081 13.8295L29.6314 7.80204C28.3746 4.70988 25.3697 2.6875 22.0319 2.6875H13.9903C10.6606 2.6875 7.66117 4.70029 6.39919 7.78162L3.92307 13.8275C3.19181 14.1815 2.6875 14.9306 2.6875 15.7975V24.5475C2.6875 25.7557 3.66688 26.735 4.875 26.735H31.125C32.3331 26.735 33.3125 25.7557 33.3125 24.5475V15.7975C33.3125 14.9322 32.8101 14.1843 32.081 13.8295ZM11.1679 28.9471H4.3623V31.1265C4.3623 32.3346 5.34168 33.314 6.5498 33.314H8.98036C10.1885 33.314 11.1679 32.3346 11.1679 31.1265V28.9471ZM31.7056 28.9471H24.9V31.1265C24.9 32.3346 25.8794 33.314 27.0875 33.314H29.5181C30.7262 33.314 31.7056 32.3346 31.7056 31.1265V28.9471ZM10.317 23.2398C11.5377 22.5063 11.7655 20.5385 10.8258 18.8446C9.88618 17.1506 8.13491 16.372 6.91427 17.1055C5.69363 17.839 5.46584 19.8069 6.40549 21.5008C7.34514 23.1947 9.09641 23.9733 10.317 23.2398ZM29.6623 21.5006C28.7226 23.1946 26.9714 23.9732 25.7507 23.2397C24.5301 22.5062 24.3023 20.5383 25.2419 18.8444C26.1816 17.1505 27.9329 16.3719 29.1535 17.1054C30.3741 17.8389 30.6019 19.8067 29.6623 21.5006Z" fill="#4080F7"/>
</svg>
