<svg width="10" height="14" viewBox="0 0 10 14" fill="none" xmlns="http://www.w3.org/2000/svg">
<path d="M5.53033 0.46967C5.23744 0.176777 4.76256 0.176777 4.46967 0.46967L0.46967 4.46967C0.176777 4.76256 0.176777 5.23744 0.46967 5.53033C0.762563 5.82322 1.23744 5.82322 1.53033 5.53033L5 2.06066L8.46967 5.53033C8.76256 5.82322 9.23744 5.82322 9.53033 5.53033C9.82322 5.23744 9.82322 4.76256 9.53033 4.46967L5.53033 0.46967ZM1.53033 8.46967C1.23744 8.17678 0.762563 8.17678 0.46967 8.46967C0.176777 8.76256 0.176777 9.23744 0.46967 9.53033L4.46967 13.5303C4.61032 13.671 4.80109 13.75 5 13.75C5.19891 13.75 5.38968 13.671 5.53033 13.5303L9.53033 9.53033C9.82322 9.23744 9.82322 8.76256 9.53033 8.46967C9.23744 8.17678 8.76256 8.17678 8.46967 8.46967L5 11.9393L1.53033 8.46967Z" fill="#4080F7"/>
</svg>
