<svg width="24" height="24" viewBox="0 0 24 24" fill="none" xmlns="http://www.w3.org/2000/svg">
<path d="M0 6.5C0 5.70435 0.316071 4.94129 0.87868 4.37868C1.44129 3.81607 2.20435 3.5 3 3.5H21C21.7956 3.5 22.5587 3.81607 23.1213 4.37868C23.6839 4.94129 24 5.70435 24 6.5V18.5C24 19.2956 23.6839 20.0587 23.1213 20.6213C22.5587 21.1839 21.7956 21.5 21 21.5H3C2.20435 21.5 1.44129 21.1839 0.87868 20.6213C0.316071 20.0587 0 19.2956 0 18.5V6.5ZM3 5C2.60218 5 2.22064 5.15804 1.93934 5.43934C1.65804 5.72064 1.5 6.10218 1.5 6.5V8H22.5V6.5C22.5 6.10218 22.342 5.72064 22.0607 5.43934C21.7794 5.15804 21.3978 5 21 5H3ZM22.5 11H1.5V18.5C1.5 18.8978 1.65804 19.2794 1.93934 19.5607C2.22064 19.842 2.60218 20 3 20H21C21.3978 20 21.7794 19.842 22.0607 19.5607C22.342 19.2794 22.5 18.8978 22.5 18.5V11Z" fill="#FFD900"/>
</svg>
