<svg width="10" height="13" viewBox="0 0 10 13" fill="none" xmlns="http://www.w3.org/2000/svg">
<path d="M1.53033 0.46967C1.23744 0.176777 0.762563 0.176777 0.46967 0.46967C0.176777 0.762563 0.176777 1.23744 0.46967 1.53033L4.46967 5.53033C4.61032 5.67098 4.80109 5.75 5 5.75C5.19891 5.75 5.38968 5.67098 5.53033 5.53033L9.53033 1.53033C9.82322 1.23744 9.82322 0.762564 9.53033 0.469671C9.23744 0.176778 8.76256 0.176778 8.46967 0.469671L5 3.93934L1.53033 0.46967ZM5.53033 7.46967C5.38968 7.32902 5.19891 7.25 5 7.25C4.80109 7.25 4.61032 7.32902 4.46967 7.46967L0.46967 11.4697C0.176777 11.7626 0.176777 12.2374 0.46967 12.5303C0.762563 12.8232 1.23744 12.8232 1.53033 12.5303L5 9.06066L8.46967 12.5303C8.76256 12.8232 9.23744 12.8232 9.53033 12.5303C9.82322 12.2374 9.82322 11.7626 9.53033 11.4697L5.53033 7.46967Z" fill="#4080F7"/>
</svg>
