<svg width="24" height="24" viewBox="0 0 24 24" fill="none" xmlns="http://www.w3.org/2000/svg">
<mask id="path-2-inside-1_3131_6494" fill="white">
<path d="M2 9.13734C2 14.0003 6.01943 16.5917 8.96173 18.9111C10 19.7296 11 20.5002 12 20.5002C13 20.5002 14 19.7296 15.0383 18.9111C17.9806 16.5917 22 14.0003 22 9.13734C22 4.27441 16.4998 0.825708 12 5.50088C7.50016 0.825708 2 4.27441 2 9.13734Z"/>
</mask>
<path d="M8.96173 18.9111L8.0331 20.0891H8.03311L8.96173 18.9111ZM12 5.50088L10.9193 6.54108C11.202 6.83487 11.5922 7.00088 12 7.00088C12.4078 7.00088 12.798 6.83487 13.0807 6.54108L12 5.50088ZM15.0383 18.9111L14.1096 17.7331L15.0383 18.9111ZM9.89036 17.7331C8.3302 16.5032 6.75599 15.3973 5.49907 13.982C4.29358 12.6246 3.5 11.1007 3.5 9.13734H0.5C0.5 12.0369 1.71614 14.2402 3.25593 15.9741C4.7443 17.65 6.65096 18.9995 8.0331 20.0891L9.89036 17.7331ZM3.5 9.13734C3.5 7.26707 4.5557 5.73756 5.93615 5.10655C7.22206 4.51876 9.05324 4.60235 10.9193 6.54108L13.0807 4.46068C10.4469 1.72424 7.2781 1.19459 4.68897 2.37809C2.19438 3.51837 0.5 6.14467 0.5 9.13734H3.5ZM8.03311 20.0891C8.53844 20.4875 9.12866 20.9514 9.73843 21.3077C10.3477 21.6637 11.1192 22.0002 12 22.0002V19.0002C11.8808 19.0002 11.6523 18.9514 11.252 18.7175C10.8522 18.4839 10.4233 18.1533 9.89036 17.7331L8.03311 20.0891ZM15.9669 20.0891C17.349 18.9995 19.2557 17.65 20.7441 15.9741C22.2839 14.2402 23.5 12.0369 23.5 9.13734H20.5C20.5 11.1007 19.7064 12.6246 18.5009 13.982C17.244 15.3973 15.6698 16.5032 14.1096 17.7331L15.9669 20.0891ZM23.5 9.13734C23.5 6.14467 21.8056 3.51837 19.311 2.37809C16.7219 1.19459 13.5531 1.72424 10.9193 4.46068L13.0807 6.54108C14.9468 4.60235 16.7779 4.51876 18.0638 5.10655C19.4443 5.73756 20.5 7.26707 20.5 9.13734H23.5ZM14.1096 17.7331C13.5767 18.1533 13.1478 18.4839 12.748 18.7175C12.3477 18.9514 12.1192 19.0002 12 19.0002V22.0002C12.8808 22.0002 13.6523 21.6637 14.2616 21.3077C14.8713 20.9514 15.4616 20.4875 15.9669 20.0891L14.1096 17.7331Z" fill="#4080F7" mask="url(#path-2-inside-1_3131_6494)"/>
</svg>
