<svg width="52" height="60" viewBox="0 0 52 60" fill="none" xmlns="http://www.w3.org/2000/svg">
<g filter="url(#filter0_f_3891_2247)">
<ellipse cx="26" cy="53.5" rx="7" ry="2.5" fill="black" fill-opacity="0.2"/>
</g>
<g filter="url(#filter1_d_3891_2247)">
<path fill-rule="evenodd" clip-rule="evenodd" d="M26 4C37.598 4 47 13.402 47 25C47 33.8926 41.4727 41.4942 33.6663 44.5567L27.1961 53.4007C27.0612 53.5858 26.8821 53.7369 26.6739 53.8412C26.4657 53.9455 26.2346 54 26 54C25.7654 54 25.5343 53.9455 25.3261 53.8412C25.1179 53.7369 24.9388 53.5858 24.8039 53.4007L18.3337 44.5567C10.5273 41.4941 5 33.8926 5 25C5 13.402 14.402 4 26 4Z" fill="white"/>
</g>
<path d="M43 25C43 15.6112 35.3888 8 26 8C16.6112 8 9 15.6112 9 25C9 34.3888 16.6112 42 26 42C35.3888 42 43 34.3888 43 25Z" fill="#4685F1"/>
<g clip-path="url(#clip0_3891_2247)">
<path d="M15.2503 25.8428C15.0436 25.8428 14.8352 25.8075 14.6235 25.7352C13.3732 25.3151 13.2371 23.969 13.3396 23.317C13.3732 23.0985 13.5799 22.9489 13.7984 22.9825C14.0168 23.0161 14.1664 23.2228 14.1328 23.4413C14.1261 23.49 13.963 24.6664 14.8806 24.9739C15.2318 25.0916 15.5478 25.0529 15.8452 24.8546C16.2637 24.5757 16.5124 24.0782 16.5863 23.8413C16.2939 23.5808 15.4553 22.9372 14.9966 22.6162C13.4001 21.502 12.9362 20.8869 13.0068 19.9795C13.0589 19.3274 13.4925 17.9612 14.4403 17.0654C15.5948 15.9748 17.1611 15.6857 18.25 16.3647C18.808 16.7125 19.1844 17.2537 19.3407 17.9309C19.4785 18.5292 19.4281 19.1812 19.1978 19.766C18.5593 21.3894 17.3056 21.7121 17.2535 21.7255C17.0384 21.7776 16.8216 21.6465 16.7678 21.4297C16.7157 21.2146 16.8468 20.9995 17.0602 20.9458C17.1056 20.934 17.9744 20.6853 18.4517 19.4719C18.8735 18.3981 18.4567 17.4385 17.8265 17.0453C17.0468 16.5596 15.8822 16.8083 14.9932 17.6486C14.2521 18.3494 13.8538 19.4703 13.8084 20.0416C13.7748 20.4802 13.8706 20.85 15.457 21.9574C15.7259 22.144 16.1696 22.4767 16.5393 22.7657C17.319 23.3758 17.3661 23.4682 17.3997 23.6194C17.4804 23.9808 17.1275 24.8009 16.551 25.3185C16.1662 25.6646 15.7175 25.8428 15.2503 25.8411" fill="white"/>
<path d="M19.152 22.4917L21.3417 22.7908C21.3316 22.6261 21.2929 22.4345 21.1871 22.2749C21.0678 22.0951 20.8779 21.9825 20.6056 21.9304C19.8527 21.7842 19.4074 22.127 19.152 22.4917ZM19.9519 25.4696C19.8477 25.4696 19.7418 25.4628 19.6309 25.4477C19.0848 25.3738 18.6461 25.1217 18.3655 24.72C17.9857 24.1789 17.9622 23.4664 18.0563 23.0194C18.2529 22.0917 19.1352 20.8263 20.7585 21.1422C21.2476 21.238 21.619 21.4716 21.8593 21.8363C22.2777 22.4715 22.1248 23.2462 22.1063 23.3319C22.0626 23.537 21.8677 23.6731 21.6593 23.6445L18.8293 23.258C18.794 23.5 18.7991 23.9386 19.0226 24.2579C19.1772 24.478 19.4125 24.6058 19.7402 24.6511C20.572 24.7654 21.1551 24.1974 21.1787 24.1739C21.335 24.0193 21.5887 24.0176 21.745 24.1739C21.9013 24.3302 21.903 24.5822 21.7484 24.7385C21.7164 24.7705 21.0106 25.4729 19.9519 25.4679" fill="white"/>
<path d="M17.6149 33.9997C17.5813 33.9997 17.5477 33.9947 17.5141 33.9863C17.3006 33.9308 17.1712 33.7107 17.2284 33.4956L18.7728 27.6138C18.8282 27.3987 19.0484 27.2709 19.2635 27.3281C19.4786 27.3835 19.6063 27.6037 19.5492 27.8188L18.0048 33.7006C17.9577 33.8821 17.7947 33.9997 17.6149 33.9997Z" fill="white"/>
<path d="M22.5783 26.0695C22.538 26.0695 22.4976 26.0628 22.4573 26.0511C22.2455 25.9838 22.1296 25.757 22.1968 25.5469L23.8353 20.4348C23.9025 20.2247 24.1294 20.1071 24.3395 20.176C24.5512 20.2432 24.6672 20.4701 24.6 20.6801L22.9614 25.7923C22.9077 25.9637 22.748 26.0712 22.5783 26.0712" fill="white"/>
<path d="M19.8313 31.2026C19.3507 31.2026 18.8499 31.1034 18.3508 30.9085C18.1441 30.8278 18.0433 30.5942 18.1239 30.3892C18.2046 30.1842 18.4382 30.0817 18.6432 30.1623C19.87 30.6413 20.6985 30.3068 21.0816 30.0649C21.5807 29.7489 21.89 29.2565 21.9303 28.712C21.9656 28.2264 21.8379 27.8046 21.5589 27.4903C21.1993 27.0836 20.5926 26.8483 19.8044 26.8097C17.7929 26.7122 16.8736 27.8869 16.8635 27.8987C16.7291 28.0751 16.477 28.1087 16.3006 27.9743C16.1241 27.8399 16.0905 27.5878 16.2249 27.4113C16.272 27.3491 17.4131 25.8871 19.8431 26.0081C20.8514 26.0585 21.653 26.3862 22.1588 26.9576C22.584 27.4365 22.7806 28.0634 22.7302 28.7692C22.6714 29.5708 22.2277 30.29 21.5102 30.7421C21.0211 31.0513 20.443 31.2059 19.8313 31.2026Z" fill="white"/>
<path d="M24.792 23.2378C24.387 23.2378 23.9651 23.1538 23.545 22.9908C23.3383 22.9101 23.2375 22.6765 23.3182 22.4715C23.3988 22.2648 23.6307 22.164 23.8374 22.2447C24.5651 22.5287 25.2575 22.5018 25.7851 22.169C26.1784 21.922 26.4204 21.5355 26.4506 21.1086C26.4742 20.7759 26.3498 20.4431 26.0977 20.1726C25.7751 19.8264 25.2894 19.6197 24.7936 19.618H24.7869C23.14 19.618 22.3989 20.4902 22.3922 20.5003C22.251 20.6717 21.9973 20.6952 21.8275 20.5541C21.6561 20.4129 21.6326 20.1591 21.7738 19.9894C21.8141 19.9424 22.7669 18.8181 24.7852 18.8164H24.7953C25.5079 18.8181 26.2137 19.1206 26.6842 19.6264C27.0909 20.0633 27.2909 20.6095 27.2506 21.1674C27.2018 21.8497 26.822 22.4631 26.212 22.848C25.7969 23.1101 25.3079 23.2412 24.7903 23.2395" fill="white"/>
<path d="M27.0553 25.6836C26.978 25.6836 26.899 25.66 26.8284 25.613C26.0537 25.0786 24.5547 23.304 24.4908 23.2283C24.348 23.0586 24.3698 22.8065 24.5396 22.6637C24.7093 22.5208 24.9614 22.5427 25.1042 22.7124C25.5176 23.2031 26.7141 24.561 27.2822 24.9525C27.4653 25.0786 27.5107 25.329 27.3847 25.5105C27.3074 25.6231 27.1813 25.6852 27.0519 25.6836" fill="white"/>
<path d="M30.1286 25.3608C30.0395 25.3608 29.9488 25.3558 29.8564 25.3457C29.1993 25.2768 28.6279 24.9743 28.2481 24.4937C27.8616 24.0063 27.7036 23.3812 27.791 22.6854C27.986 21.1326 28.7859 20.1579 29.932 20.0773C31.4428 19.9714 32.362 20.9579 32.4007 20.9999C32.5502 21.1629 32.5385 21.4167 32.3755 21.5662C32.2125 21.7158 31.9587 21.704 31.8091 21.5427C31.7789 21.5108 31.0983 20.7999 29.9875 20.8789C28.9287 20.9528 28.6548 22.2384 28.5859 22.7863C28.5254 23.2635 28.6262 23.682 28.8749 23.9946C29.1203 24.3055 29.4984 24.5004 29.9387 24.5475C30.658 24.6231 31.1857 24.2668 31.3823 24.1072L31.5503 23.1946L30.0782 22.7997C29.8648 22.7426 29.7371 22.5224 29.7942 22.3073C29.8513 22.0939 30.0715 21.9662 30.2866 22.0233L32.1167 22.514C32.3183 22.5678 32.446 22.7678 32.4074 22.9745L32.1469 24.3861C32.1318 24.4651 32.0948 24.5374 32.0394 24.5945C32.0057 24.6281 31.2714 25.3642 30.1269 25.3608" fill="white"/>
<path d="M23.3979 31.6559C23.3693 31.6559 23.3391 31.6525 23.3105 31.6458C23.0937 31.5971 22.9593 31.382 23.008 31.1652L23.8029 27.6445C23.8516 27.4277 24.0667 27.2933 24.2819 27.342C24.4986 27.3907 24.6331 27.6058 24.5843 27.8226L23.7895 31.3433C23.7474 31.5299 23.5811 31.6576 23.3962 31.6559" fill="white"/>
<path d="M24.4388 26.8983C24.4103 26.8983 24.3817 26.8949 24.3531 26.8882C24.1363 26.8395 24.0002 26.626 24.049 26.4093L24.1901 25.774C24.2388 25.5572 24.4523 25.4211 24.6691 25.4699C24.8858 25.5186 25.022 25.732 24.9732 25.9488L24.8321 26.5824C24.7901 26.7706 24.6237 26.8966 24.4388 26.8966" fill="white"/>
<path d="M33.0522 25.3707C33.0236 25.3707 32.9934 25.3674 32.9648 25.3607C32.748 25.3119 32.6136 25.0968 32.6623 24.88L33.4572 21.3593C33.5059 21.1426 33.721 21.0081 33.9378 21.0569C34.1546 21.1056 34.2891 21.3207 34.2403 21.5375L33.4454 25.0582C33.4034 25.2447 33.2371 25.3724 33.0539 25.3707" fill="white"/>
<path d="M37.3722 21.1732C37.0865 21.1732 36.7857 21.2573 36.4933 21.4253C35.9555 21.7362 35.5522 22.2673 35.443 22.8117C35.3724 23.1646 35.443 23.5243 35.643 23.8234C35.843 24.1225 36.1488 24.3259 36.5034 24.3948C36.9605 24.4839 37.4361 24.378 37.8411 24.0957C38.273 23.7948 38.5772 23.326 38.6561 22.8403C38.757 22.2236 38.4914 21.4774 37.7924 21.2421C37.6579 21.1968 37.5167 21.1749 37.3705 21.1732M36.8177 25.2283C36.6614 25.2283 36.5051 25.2132 36.3505 25.1829C35.7841 25.072 35.2968 24.7477 34.9758 24.2704C34.6565 23.7915 34.5422 23.2184 34.6565 22.6538C34.8111 21.8908 35.3606 21.1531 36.0934 20.7313C36.7336 20.3615 37.4294 20.2725 38.0495 20.4825C39.041 20.817 39.6292 21.8622 39.4493 22.9714C39.3351 23.6772 38.9166 24.3276 38.2999 24.7561C37.8495 25.0704 37.3353 25.2317 36.816 25.23" fill="white"/>
<path d="M24.9251 31.5249C24.7839 31.5249 24.6512 31.4493 24.5789 31.3232C24.4965 31.1804 24.51 31.0006 24.6142 30.8712L27.7651 26.9623L25.7149 27.2278C25.4948 27.2564 25.2931 27.1001 25.2662 26.8816C25.2377 26.6615 25.3923 26.4615 25.6124 26.4329L28.6541 26.0397C28.8155 26.0178 28.9751 26.0985 29.0558 26.2413C29.1364 26.3842 29.1213 26.5623 29.0188 26.69L25.8897 30.572L28.6323 30.1519C28.8508 30.1183 29.0558 30.2679 29.0894 30.488C29.123 30.7065 28.9718 30.9115 28.7533 30.9451L24.9889 31.5215C24.9688 31.5249 24.9469 31.5266 24.9268 31.5266" fill="white"/>
<path d="M28.9736 32.415C28.8341 32.415 28.7014 32.341 28.6291 32.2167C28.5451 32.0721 28.5585 31.8906 28.6627 31.7612L32.2456 27.328L29.8592 27.7549C29.6408 27.7935 29.4324 27.649 29.3937 27.4305C29.3551 27.2121 29.4996 27.0037 29.7181 26.965L33.1631 26.3483C33.3278 26.318 33.4942 26.3953 33.5799 26.5399C33.6656 26.6844 33.6522 26.8659 33.5463 26.997L29.9584 31.4369L33.548 30.8168C33.7664 30.7798 33.9748 30.926 34.0118 31.1445C34.0488 31.363 33.9026 31.5697 33.6841 31.6083L29.0442 32.4099C29.0207 32.4133 28.9971 32.415 28.9736 32.415Z" fill="white"/>
<path d="M33.6169 30.2274C33.5296 30.2274 33.4405 30.1988 33.3665 30.1383C33.1935 29.9989 33.1666 29.7468 33.306 29.5737L36.168 26.0244C36.252 25.9203 36.3831 25.8648 36.5192 25.8766C36.6536 25.89 36.7729 25.969 36.8351 26.0883L38.4972 29.2157C38.6013 29.4124 38.5274 29.6544 38.3308 29.7585C38.1342 29.8627 37.8922 29.7888 37.788 29.5922L36.4116 27.0025L33.9312 30.0778C33.8522 30.177 33.7346 30.2274 33.6169 30.2274Z" fill="white"/>
<path d="M34.503 29.1284C34.2963 29.1284 34.1215 28.9687 34.1047 28.7587C34.0879 28.5385 34.2526 28.3436 34.4727 28.3268L37.6203 28.0764C37.8438 28.0596 38.0337 28.2243 38.0522 28.4444C38.069 28.6662 37.9043 28.8595 37.6842 28.8763L34.5366 29.1267C34.5248 29.1267 34.5147 29.1267 34.503 29.1267" fill="white"/>
</g>
<defs>
<filter id="filter0_f_3891_2247" x="17" y="49" width="18" height="9" filterUnits="userSpaceOnUse" color-interpolation-filters="sRGB">
<feFlood flood-opacity="0" result="BackgroundImageFix"/>
<feBlend mode="normal" in="SourceGraphic" in2="BackgroundImageFix" result="shape"/>
<feGaussianBlur stdDeviation="1" result="effect1_foregroundBlur_3891_2247"/>
</filter>
<filter id="filter1_d_3891_2247" x="0" y="0" width="52" height="60" filterUnits="userSpaceOnUse" color-interpolation-filters="sRGB">
<feFlood flood-opacity="0" result="BackgroundImageFix"/>
<feColorMatrix in="SourceAlpha" type="matrix" values="0 0 0 0 0 0 0 0 0 0 0 0 0 0 0 0 0 0 127 0" result="hardAlpha"/>
<feOffset dy="1"/>
<feGaussianBlur stdDeviation="2.5"/>
<feComposite in2="hardAlpha" operator="out"/>
<feColorMatrix type="matrix" values="0 0 0 0 0 0 0 0 0 0 0 0 0 0 0 0 0 0 0.1 0"/>
<feBlend mode="normal" in2="BackgroundImageFix" result="effect1_dropShadow_3891_2247"/>
<feBlend mode="normal" in="SourceGraphic" in2="effect1_dropShadow_3891_2247" result="shape"/>
</filter>
<clipPath id="clip0_3891_2247">
<rect width="26.4832" height="18" fill="white" transform="translate(13 16)"/>
</clipPath>
</defs>
</svg>
