<svg width="52" height="60" viewBox="0 0 52 60" fill="none" xmlns="http://www.w3.org/2000/svg">
<g filter="url(#filter0_f_1358_44231)">
<ellipse cx="26" cy="53.5" rx="7" ry="2.5" fill="black" fill-opacity="0.2"/>
</g>
<g filter="url(#filter1_d_1358_44231)">
<path fill-rule="evenodd" clip-rule="evenodd" d="M26 4C37.598 4 47 13.402 47 25C47 33.8926 41.4727 41.4942 33.6663 44.5567L27.1961 53.4007C27.0612 53.5858 26.8821 53.7369 26.6739 53.8412C26.4657 53.9455 26.2346 54 26 54C25.7654 54 25.5343 53.9455 25.3261 53.8412C25.1179 53.7369 24.9388 53.5858 24.8039 53.4007L18.3337 44.5567C10.5273 41.4941 5 33.8926 5 25C5 13.402 14.402 4 26 4Z" fill="white"/>
</g>
<path d="M43 25C43 15.6112 35.3888 8 26 8C16.6112 8 9 15.6112 9 25C9 34.3888 16.6112 42 26 42C35.3888 42 43 34.3888 43 25Z" fill="#3478F5"/>
<g clip-path="url(#clip0_1358_44231)">
<g clip-path="url(#clip1_1358_44231)">
<path d="M24.1917 22.325L22.6667 22.88V25.8333H21V21.7083H21.0125L25.4025 20.11C25.6058 20.0325 25.8275 19.9933 26.0542 20.0008C26.5071 20.0121 26.9452 20.1643 27.3077 20.4361C27.6702 20.7079 27.9389 21.0859 28.0767 21.5175C28.2317 22.0033 28.3733 22.3317 28.5017 22.5025C28.8895 23.0197 29.3925 23.4394 29.9709 23.7282C30.5492 24.0171 31.1869 24.1672 31.8333 24.1667V25.8333C30.9727 25.8343 30.1226 25.6444 29.3442 25.2774C28.5658 24.9104 27.8785 24.3754 27.3317 23.7108L26.7508 27.0075L28.5 28.475V34.1667H26.8333V29.2517L24.9417 27.665L24.3358 31.1042L18.5908 30.0917L18.8808 28.45L22.9842 29.1733L24.1917 22.325ZM27.25 19.5833C26.808 19.5833 26.384 19.4077 26.0715 19.0952C25.7589 18.7826 25.5833 18.3587 25.5833 17.9167C25.5833 17.4746 25.7589 17.0507 26.0715 16.7382C26.384 16.4256 26.808 16.25 27.25 16.25C27.692 16.25 28.1159 16.4256 28.4285 16.7382C28.7411 17.0507 28.9167 17.4746 28.9167 17.9167C28.9167 18.3587 28.7411 18.7826 28.4285 19.0952C28.1159 19.4077 27.692 19.5833 27.25 19.5833Z" fill="white"/>
</g>
</g>
<defs>
<filter id="filter0_f_1358_44231" x="17" y="49" width="18" height="9" filterUnits="userSpaceOnUse" color-interpolation-filters="sRGB">
<feFlood flood-opacity="0" result="BackgroundImageFix"/>
<feBlend mode="normal" in="SourceGraphic" in2="BackgroundImageFix" result="shape"/>
<feGaussianBlur stdDeviation="1" result="effect1_foregroundBlur_1358_44231"/>
</filter>
<filter id="filter1_d_1358_44231" x="0" y="0" width="52" height="60" filterUnits="userSpaceOnUse" color-interpolation-filters="sRGB">
<feFlood flood-opacity="0" result="BackgroundImageFix"/>
<feColorMatrix in="SourceAlpha" type="matrix" values="0 0 0 0 0 0 0 0 0 0 0 0 0 0 0 0 0 0 127 0" result="hardAlpha"/>
<feOffset dy="1"/>
<feGaussianBlur stdDeviation="2.5"/>
<feComposite in2="hardAlpha" operator="out"/>
<feColorMatrix type="matrix" values="0 0 0 0 0 0 0 0 0 0 0 0 0 0 0 0 0 0 0.1 0"/>
<feBlend mode="normal" in2="BackgroundImageFix" result="effect1_dropShadow_1358_44231"/>
<feBlend mode="normal" in="SourceGraphic" in2="effect1_dropShadow_1358_44231" result="shape"/>
</filter>
<clipPath id="clip0_1358_44231">
<rect width="20" height="20" fill="white" transform="translate(16 15)"/>
</clipPath>
<clipPath id="clip1_1358_44231">
<rect width="20" height="20" fill="white" transform="translate(16 15)"/>
</clipPath>
</defs>
</svg>
