<svg width="35" height="35" viewBox="0 0 35 35" fill="none" xmlns="http://www.w3.org/2000/svg">
<path d="M26.5475 0.713312C27.0311 0.592351 27.5358 0.583152 28.0235 0.686413C28.5111 0.789675 28.9689 1.00268 29.3619 1.30927C29.7549 1.61585 30.0729 2.00795 30.2918 2.4558C30.5107 2.90365 30.6246 3.39547 30.625 3.89394V6.56269H31.7188C32.589 6.56269 33.4236 6.90839 34.0389 7.52374C34.6543 8.1391 35 8.9737 35 9.84394V29.5314C35 30.4017 34.6543 31.2363 34.0389 31.8516C33.4236 32.467 32.589 32.8127 31.7188 32.8127H3.28125C2.41101 32.8127 1.57641 32.467 0.961056 31.8516C0.345702 31.2363 2.14575e-07 30.4017 2.14575e-07 29.5314V9.84394C-0.00030507 8.99924 0.325155 8.18697 0.908638 7.57619C1.49212 6.9654 2.28867 6.60317 3.1325 6.56488L26.5475 0.713312ZM12.1669 6.56269H28.4375V3.89394C28.4371 3.72798 28.399 3.56429 28.326 3.41526C28.253 3.26623 28.147 3.13576 28.0161 3.03375C27.8852 2.93173 27.7328 2.86084 27.5705 2.82643C27.4081 2.79203 27.2401 2.79503 27.0791 2.83519L12.1669 6.56269ZM3.28125 8.75019C2.99117 8.75019 2.71297 8.86542 2.50785 9.07054C2.30273 9.27566 2.1875 9.55386 2.1875 9.84394V29.5314C2.1875 29.8215 2.30273 30.0997 2.50785 30.3048C2.71297 30.51 2.99117 30.6252 3.28125 30.6252H31.7188C32.0088 30.6252 32.287 30.51 32.4921 30.3048C32.6973 30.0997 32.8125 29.8215 32.8125 29.5314V9.84394C32.8125 9.55386 32.6973 9.27566 32.4921 9.07054C32.287 8.86542 32.0088 8.75019 31.7188 8.75019H3.28125Z" fill="#4080F7"/>
</svg>
