<svg width="35" height="35" viewBox="0 0 35 35" fill="none" xmlns="http://www.w3.org/2000/svg">
<g clip-path="url(#clip0_1134_8802)">
<path d="M2.53927 17.5C2.53927 20.4591 3.41669 23.3518 5.0606 25.8123C6.7045 28.2727 9.04107 30.1905 11.7749 31.3231C14.5086 32.4557 17.5169 32.7523 20.4192 32.1753C23.3215 31.5983 25.9876 30.1737 28.0803 28.0816C30.173 25.9895 31.5984 23.3239 32.1762 20.4217C32.7541 17.5196 32.4584 14.5112 31.3266 11.7771C30.1948 9.04302 28.2777 6.70589 25.8177 5.06126C23.3577 3.41664 20.4653 2.53837 17.5061 2.5375C17.1696 2.5375 16.8469 2.40383 16.609 2.16589C16.3711 1.92796 16.2374 1.60524 16.2374 1.26875C16.2374 0.932257 16.3711 0.609545 16.609 0.371608C16.8469 0.133672 17.1696 0 17.5061 0C21.4236 0.00115334 25.2274 1.31669 28.3085 3.73601C31.3896 6.15532 33.5699 9.53848 34.5003 13.3439C35.4307 17.1492 35.0573 21.1567 33.44 24.7248C31.8227 28.2928 29.055 31.215 25.58 33.0235C22.105 34.832 18.1237 35.4223 14.2734 34.6998C10.4232 33.9773 6.9267 31.9838 4.34375 29.0385C1.7608 26.0932 0.240788 22.3664 0.0270539 18.4548C-0.18668 14.5432 0.918231 10.673 3.16489 7.46375L1.71458 6.20156C1.54135 6.05095 1.41222 5.85615 1.34097 5.63794C1.26971 5.41972 1.25899 5.18626 1.30995 4.96244C1.36091 4.73861 1.47164 4.53281 1.63035 4.36695C1.78905 4.20109 1.98978 4.0814 2.21114 4.02063L7.72364 2.51125C7.925 2.45631 8.1368 2.4519 8.34027 2.49839C8.54374 2.54489 8.7326 2.64087 8.8901 2.77782C9.0476 2.91477 9.16889 3.08847 9.2432 3.2835C9.31752 3.47854 9.34257 3.6889 9.31614 3.89594L8.58989 9.56594C8.56075 9.79381 8.47028 10.0095 8.32815 10.19C8.18601 10.3704 7.99755 10.5089 7.78285 10.5907C7.56816 10.6724 7.33531 10.6944 7.10913 10.6541C6.88296 10.6139 6.67196 10.513 6.49864 10.3622L5.09208 9.13719C3.42325 11.6066 2.53326 14.5196 2.53708 17.5H2.53927Z" fill="#4080F7"/>
<path d="M19.7812 19.4318H9.07102V17.1662H19.7812C20.7699 17.1662 21.5869 16.9946 22.2322 16.6513C22.8776 16.3011 23.3582 15.8274 23.674 15.2301C23.9898 14.6259 24.1477 13.9394 24.1477 13.1705C24.1477 12.4015 23.9898 11.7184 23.674 11.1211C23.3582 10.5169 22.8776 10.0432 22.2322 9.69993C21.5869 9.34979 20.7699 9.17472 19.7812 9.17472H14.9616V28H12.4077V6.90909H19.7812C21.3466 6.90909 22.6373 7.19401 23.6534 7.76385C24.6695 8.33369 25.4247 9.09233 25.919 10.0398C26.4134 10.9872 26.6605 12.0308 26.6605 13.1705C26.6605 14.3101 26.4134 15.3537 25.919 16.3011C25.4247 17.2486 24.6695 18.0072 23.6534 18.5771C22.6373 19.1469 21.3466 19.4318 19.7812 19.4318ZM19.6165 21.4091V23.6747H9.07102V21.4091H19.6165Z" fill="#4080F7"/>
</g>
<defs>
<clipPath id="clip0_1134_8802">
<rect width="35" height="35" fill="white"/>
</clipPath>
</defs>
</svg>
