<svg width="20" height="21" viewBox="0 0 20 21" fill="none" xmlns="http://www.w3.org/2000/svg">
<path fill-rule="evenodd" clip-rule="evenodd" d="M8 15C11.5899 15 14.5 12.0899 14.5 8.5C14.5 4.91015 11.5899 2 8 2C4.41015 2 1.5 4.91015 1.5 8.5C1.5 12.0899 4.41015 15 8 15ZM8 16.5C9.9395 16.5 11.7178 15.8098 13.1027 14.6616L14.0513 15.6103C13.9178 16.1107 14.0473 16.6667 14.4398 17.0592L17.4431 20.0625C18.0289 20.6483 18.9786 20.6483 19.5644 20.0625C20.1502 19.4767 20.1502 18.5269 19.5644 17.9412L16.5611 14.9379C16.1685 14.5452 15.6123 14.4158 15.1119 14.5495L14.1632 13.6008C15.3104 12.2162 16 10.4386 16 8.5C16 4.08172 12.4183 0.5 8 0.5C3.58172 0.5 0 4.08172 0 8.5C0 12.9183 3.58172 16.5 8 16.5Z" fill="#CBCBCB"/>
</svg>
