<svg width="35" height="35" viewBox="0 0 35 35" fill="none" xmlns="http://www.w3.org/2000/svg">
<path d="M31.7445 28.8982L18.1335 5.75611L4.25693 28.8982H31.7445ZM19.9289 4.44852L33.7453 27.9397C34.572 29.3453 33.5693 31.1253 31.9509 31.1253H4.04854C2.42218 31.1253 1.42063 29.3295 2.26325 27.9243L16.3492 4.43311C17.1656 3.07153 19.124 3.07996 19.9289 4.44852ZM17.9997 21.6462C17.1879 21.6462 16.5412 21.0079 16.5412 20.1878V13.6253C16.5413 12.8053 17.1879 12.167 17.9997 12.167C18.8114 12.167 19.4512 12.8053 19.4512 13.6253V20.1878C19.4512 21.0078 18.8114 21.6462 17.9997 21.6462ZM19.458 25.292C19.458 26.112 18.8114 26.7503 17.9997 26.7503C17.1879 26.7503 16.5413 26.112 16.5413 25.292C16.5413 24.472 17.1879 23.8337 17.9997 23.8337C18.8114 23.8337 19.458 24.472 19.458 25.292Z" fill="#E93F3F"/>
</svg>
