<svg width="24" height="24" viewBox="0 0 24 24" fill="none" xmlns="http://www.w3.org/2000/svg">
<path d="M5.5 10C5.5 6.2139 8.39575 3.5 12 3.5C15.5896 3.5 18.5 6.41394 18.5 10C18.5 11.0788 18.1052 12.282 17.4538 13.5174C16.8065 14.745 15.9344 15.9511 15.0475 17.0215C14.1625 18.0896 13.2754 19.0075 12.6087 19.6589C12.3749 19.8873 12.1687 20.0824 12 20.2391C11.8313 20.0824 11.6251 19.8873 11.3913 19.6589C10.7246 19.0075 9.83749 18.0896 8.95251 17.0215C8.06561 15.9511 7.19353 14.745 6.54624 13.5174C5.89484 12.282 5.5 11.0788 5.5 10ZM11.1833 21.526C11.2852 21.6189 11.3658 21.6909 11.4215 21.7402C11.8121 22.0859 12.1838 22.0896 12.5785 21.7402C12.6342 21.6909 12.7148 21.6189 12.8167 21.526C13.0206 21.3402 13.3102 21.0706 13.6569 20.7318C14.3496 20.055 15.275 19.0979 16.2025 17.9785C17.1281 16.8614 18.0685 15.5675 18.7806 14.217C19.4886 12.8743 20 11.4212 20 10C20 5.58606 16.4186 2 12 2C7.59612 2 4 5.35697 4 10C4 11.4212 4.51141 12.8743 5.21938 14.217C5.93146 15.5675 6.87189 16.8614 7.79748 17.9785C8.72501 19.0979 9.65041 20.055 10.3431 20.7318C10.6898 21.0706 10.9794 21.3402 11.1833 21.526ZM10 10C10 8.89543 10.8954 8 12 8C13.1046 8 14 8.89543 14 10C14 11.1046 13.1046 12 12 12C10.8954 12 10 11.1046 10 10ZM12 6.5C10.067 6.5 8.5 8.067 8.5 10C8.5 11.933 10.067 13.5 12 13.5C13.933 13.5 15.5 11.933 15.5 10C15.5 8.067 13.933 6.5 12 6.5Z" fill="#4080F7"/>
</svg>
