<svg width="20" height="21" viewBox="0 0 20 21" xmlns="http://www.w3.org/2000/svg">
   <path
      d="M2.63991 1.99707C3.22814 1.99621 3.73738 2.40559 3.86293 2.98026L6.23487 13.8368C6.51077 15.0996 7.6289 15.9998 8.9215 15.9998H14.7557C15.1699 15.9998 15.5057 15.6641 15.5057 15.2498C15.5057 14.8356 15.1699 14.4998 14.7557 14.4998H8.9215C8.33395 14.4998 7.82571 14.0907 7.7003 13.5166L7.47872 12.5024L14.4938 12.5027C15.6649 12.5027 16.7288 11.8215 17.2186 10.758L19.9067 4.92069C20.2118 4.25817 19.7277 3.50237 18.9982 3.50237L5.51239 3.50237L5.32837 2.6601C5.05214 1.39581 3.93182 0.495178 2.63771 0.497073L0.748902 0.499839C0.334689 0.500445 -0.000605656 0.836723 8.21446e-07 1.25094C0.000607358 1.66515 0.336885 2.00044 0.751098 1.99984L2.63991 1.99707ZM7.15864 11.0025L5.86913 5.0023L18.2176 5.0023L15.856 10.1304C15.6111 10.6622 15.0792 11.0028 14.4936 11.0028L7.15864 11.0025ZM10.0042 18.9998C10.0042 19.8283 9.33237 20.4998 8.5036 20.4998C7.67483 20.4998 7.00298 19.8283 7.00298 18.9998C7.00298 18.1714 7.67483 17.4998 8.5036 17.4998C9.33237 17.4998 10.0042 18.1714 10.0042 18.9998ZM14.5809 20.4998C15.4097 20.4998 16.0815 19.8283 16.0815 18.9998C16.0815 18.1714 15.4097 17.4998 14.5809 17.4998C13.7521 17.4998 13.0803 18.1714 13.0803 18.9998C13.0803 19.8283 13.7521 20.4998 14.5809 20.4998Z"
      fill="currentFill" />
</svg>