<svg width="22" height="24" viewBox="0 0 22 24"  xmlns="http://www.w3.org/2000/svg">
<g clip-path="url(#clip0_2187_9731)">
<path d="M21.045 6.12557C20.8517 5.90407 20.673 5.66989 20.4876 5.44164C20.4283 5.48567 20.453 5.45812 20.4817 5.43543C21.0664 4.97327 21.4372 4.37092 21.6446 3.66268C21.8877 2.83236 21.8674 1.99177 21.7513 1.14469C21.7077 0.827041 21.6405 0.53721 21.3222 0.380005H21.0038C20.6232 0.60771 20.5778 0.732502 20.6303 1.17711C20.679 1.58903 20.7356 2.00662 20.7183 2.41854C20.6758 3.42417 20.3769 4.31122 19.3999 4.81039C19.322 4.8501 19.2018 4.85901 19.1192 4.83011C18.0932 4.47275 17.1065 4.55675 16.1577 5.07807C15.3997 5.49458 14.7923 6.08019 14.3055 6.78788C14.1891 6.95724 14.0952 7.15875 14.0513 7.35863C13.4355 10.16 12.2449 12.6917 10.4485 14.928C7.83137 18.1861 4.51388 20.4842 0.619801 21.9752C0.317154 22.0911 0.156355 22.2953 0.174763 22.5568C0.193442 22.8228 0.364798 23.0106 0.689914 23.0767C1.40863 23.2231 2.12546 23.3922 2.85149 23.4892C5.42859 23.8336 7.9272 23.4933 10.3457 22.5549C12.5844 21.6862 14.5538 20.3867 16.3109 18.7657C18.1038 17.1121 19.6636 15.2697 20.7545 13.0699C21.3685 11.832 21.8758 10.5557 21.9835 9.15893C22.071 8.02689 21.8076 6.99938 21.0447 6.12557H21.045ZM20.1121 11.8282C19.4118 13.4921 18.3902 14.9488 17.2023 16.2953C15.5903 18.1226 13.74 19.6566 11.5717 20.7905C9.11315 22.0765 6.50194 22.6656 3.72451 22.4752C3.40752 22.4533 3.09187 22.4079 2.77596 22.3717C2.74727 22.3685 2.7202 22.352 2.67039 22.3337C3.11732 22.1043 3.55099 21.8926 3.97464 21.6627C6.72635 20.1687 9.1478 18.2685 11.1367 15.8396C12.9509 13.6239 14.2257 11.1337 14.9498 8.36426C14.9666 8.2997 14.9872 8.23595 15.0107 8.15546C15.6425 8.28403 16.2495 8.34616 16.8902 8.18436C16.8659 8.4045 16.8458 8.60439 16.8215 8.80373C16.7901 9.06142 16.8328 9.29209 17.0743 9.43579C17.3109 9.57652 17.5334 9.52088 17.7549 9.37745C18.1349 9.13111 18.5228 8.89638 18.9297 8.64301C19.3103 9.31262 19.6955 9.95954 19.836 10.7159C19.8469 10.7747 19.8563 10.8377 19.8479 10.8958C19.8025 11.2031 19.917 11.4268 20.2134 11.5775C20.1785 11.6645 20.1471 11.7469 20.1127 11.8279L20.1121 11.8282ZM20.7608 9.83286C20.7269 9.75426 20.7072 9.69672 20.6787 9.64405C20.3141 8.96688 19.9619 8.28241 19.5772 7.61659C19.3875 7.28813 19.0889 7.24626 18.7551 7.44506C18.5291 7.57985 18.3079 7.72247 18.0559 7.87914C18.0694 7.60875 18.0881 7.3724 18.0903 7.13552C18.0916 6.9856 18.0762 6.83407 18.0551 6.68524C18.0199 6.43511 17.8583 6.30924 17.6195 6.25684C17.3856 6.20552 17.195 6.27494 17.0581 6.46024C16.9741 6.57368 16.9371 6.72143 16.8529 6.83488C16.7722 6.94374 16.6739 7.07258 16.5556 7.11499C16.2048 7.24032 15.8442 7.179 15.4777 7.10959C16.3835 5.90948 17.7023 5.3941 18.9143 5.94567C20.6316 6.72711 21.1682 8.04363 20.7605 9.83259L20.7608 9.83286Z" fill="#4080F7"/>
<path d="M15.3649 12.9521C15.0538 12.8602 14.7826 13.018 14.6629 13.3562C14.5874 13.5695 14.5165 13.7854 14.4266 13.9928C13.6356 15.8163 12.4023 17.2971 10.8612 18.5326C10.4546 18.8586 10.0157 19.1447 9.59372 19.452C9.37336 19.6128 9.29432 19.8532 9.37526 20.0914C9.4497 20.311 9.65869 20.4585 9.96621 20.4596C10.0163 20.4393 10.137 20.4112 10.235 20.348C11.8495 19.3065 13.2404 18.0291 14.3332 16.443C14.9236 15.5865 15.4158 14.6784 15.7208 13.6792C15.824 13.3418 15.6662 13.0409 15.3649 12.9521Z" fill="#4080F7"/>
</g>
<defs>
<clipPath id="clip0_2187_9731">
<rect width="21.8261" height="23.2407" fill="currentFill" transform="translate(0.173828 0.379639)"/>
</clipPath>
</defs>
</svg>
