<svg width="16" height="16" viewBox="0 0 16 16" fill="currentFill" xmlns="http://www.w3.org/2000/svg">
    <path d="M3.46976 3.46967C3.76265 3.17678 4.23753 3.17678 4.53042 3.46967L8.00005 6.9393L11.4697 3.46969C11.7626 3.17679 12.2374 3.17679 12.5303 3.46969C12.8232 3.76258 12.8232 4.23745 12.5303 4.53035L9.06071 7.99996L12.5304 11.4697C12.8233 11.7626 12.8233 12.2374 12.5304 12.5303C12.2375 12.8232 11.7627 12.8232 11.4698 12.5303L8.00005 9.06062L4.53033 12.5303C4.23744 12.8232 3.76256 12.8232 3.46967 12.5303C3.17678 12.2375 3.17678 11.7626 3.46967 11.4697L6.93939 7.99996L3.46976 4.53033C3.17687 4.23744 3.17687 3.76256 3.46976 3.46967Z" fill="#D9D9D9"/>
</svg>
