<svg width="20" height="18" viewBox="0 0 20 18" fill="none" xmlns="http://www.w3.org/2000/svg">
   <mask id="path-1-inside-1_2223_1190" fill="white">
      <path
         d="M0 6.1371C0 11 4.01943 13.5914 6.96173 15.9109C8 16.7294 9 17.5 10 17.5C11 17.5 12 16.7294 13.0383 15.9109C15.9806 13.5914 20 11 20 6.1371C20 1.27416 14.4998 -2.17454 10 2.50063C5.50016 -2.17454 0 1.27416 0 6.1371Z" />
   </mask>
   <path
      d="M6.96173 15.9109L6.0331 17.0889H6.03311L6.96173 15.9109ZM10 2.50063L8.91927 3.54083C9.20204 3.83462 9.59223 4.00063 10 4.00063C10.4078 4.00063 10.798 3.83462 11.0807 3.54083L10 2.50063ZM13.0383 15.9109L12.1096 14.7329L13.0383 15.9109ZM7.89036 14.7329C6.3302 13.503 4.75599 12.3971 3.49907 10.9818C2.29358 9.62433 1.5 8.10043 1.5 6.1371H-1.5C-1.5 9.0367 -0.283864 11.24 1.25593 12.9738C2.7443 14.6498 4.65096 15.9993 6.0331 17.0889L7.89036 14.7329ZM1.5 6.1371C1.5 4.26683 2.5557 2.73732 3.93615 2.10631C5.22206 1.51852 7.05324 1.6021 8.91927 3.54083L11.0807 1.46043C8.44692 -1.27601 5.2781 -1.80566 2.68897 -0.622156C0.194385 0.518124 -1.5 3.14443 -1.5 6.1371H1.5ZM6.03311 17.0889C6.53844 17.4872 7.12866 17.9511 7.73843 18.3075C8.34772 18.6635 9.1192 19 10 19V16C9.8808 16 9.65228 15.9512 9.252 15.7173C8.85221 15.4837 8.42329 15.153 7.89036 14.7329L6.03311 17.0889ZM13.9669 17.0889C15.349 15.9993 17.2557 14.6498 18.7441 12.9738C20.2839 11.24 21.5 9.0367 21.5 6.1371H18.5C18.5 8.10043 17.7064 9.62433 16.5009 10.9818C15.244 12.3971 13.6698 13.503 12.1096 14.7329L13.9669 17.0889ZM21.5 6.1371C21.5 3.14443 19.8056 0.518124 17.311 -0.622156C14.7219 -1.80566 11.5531 -1.27601 8.91927 1.46043L11.0807 3.54083C12.9468 1.6021 14.7779 1.51852 16.0638 2.10631C17.4443 2.73732 18.5 4.26683 18.5 6.1371H21.5ZM12.1096 14.7329C11.5767 15.153 11.1478 15.4837 10.748 15.7173C10.3477 15.9512 10.1192 16 10 16V19C10.8808 19 11.6523 18.6635 12.2616 18.3075C12.8713 17.9511 13.4616 17.4872 13.9669 17.0889L12.1096 14.7329Z"
      fill="#4080F7" mask="url(#path-1-inside-1_2223_1190)" />
</svg>