<svg width="18" height="21" viewBox="0 0 18 21" fill="none" xmlns="http://www.w3.org/2000/svg">
<path d="M5.25 1.25C5.25 0.835786 4.91421 0.5 4.5 0.5C4.08579 0.5 3.75 0.835786 3.75 1.25V2.5H3.25C1.45507 2.5 0 3.95507 0 5.75V17.25C0 19.0449 1.45507 20.5 3.25 20.5H14.75C16.5449 20.5 18 19.0449 18 17.25V5.75C18 3.95507 16.5449 2.5 14.75 2.5H14.25V1.25C14.25 0.835786 13.9142 0.5 13.5 0.5C13.0858 0.5 12.75 0.835786 12.75 1.25V2.5H5.25V1.25ZM3.25 4H14.75C15.7165 4 16.5 4.7835 16.5 5.75V7H1.5V5.75C1.5 4.7835 2.2835 4 3.25 4ZM16.5 8.5V17.25C16.5 18.2165 15.7165 19 14.75 19H3.25C2.2835 19 1.5 18.2165 1.5 17.25V8.5H16.5ZM3.25 11C3.25 10.7239 3.47386 10.5 3.75 10.5H5.75C6.02614 10.5 6.25 10.7239 6.25 11V13C6.25 13.2761 6.02614 13.5 5.75 13.5H3.75C3.47386 13.5 3.25 13.2761 3.25 13V11ZM8 10.5C7.72386 10.5 7.5 10.7239 7.5 11V13C7.5 13.2761 7.72386 13.5 8 13.5H10C10.2761 13.5 10.5 13.2761 10.5 13V11C10.5 10.7239 10.2761 10.5 10 10.5H8ZM12 11C12 10.7239 12.2239 10.5 12.5 10.5H14.5C14.7761 10.5 15 10.7239 15 11V13C15 13.2761 14.7761 13.5 14.5 13.5H12.5C12.2239 13.5 12 13.2761 12 13V11Z" fill="#B1B1B1"/>
</svg>
