<svg width="96" height="96" viewBox="0 0 96 96" fill="none" xmlns="http://www.w3.org/2000/svg">
<g clip-path="url(#clip0_3038_8868)">
<path d="M52.8278 9.50976C52.6022 14.3222 48.6298 18.1536 43.7616 18.1536C38.8934 18.1536 34.6848 14.0899 34.6848 9.0768C34.6848 7.24128 35.2301 5.53248 36.168 4.104L23.5162 0L0 72.4838L44.8378 87.0307C44.951 84.6864 46.8883 82.8202 49.2614 82.8202C51.6346 82.8202 53.6899 84.8026 53.6899 87.2486C53.6899 88.1424 53.425 88.9738 52.9699 89.6688L72.4838 96L96 23.5162L52.8278 9.50976ZM32.4259 77.3501C30.7258 77.3501 29.3482 75.9715 29.3482 74.2723C29.3482 72.5731 30.7267 71.1946 32.4259 71.1946C34.1251 71.1946 35.5037 72.5731 35.5037 74.2723C35.5037 75.9715 34.1251 77.3501 32.4259 77.3501ZM64.9162 84.1094C60.8966 84.1094 57.6374 80.8512 57.6374 76.8307C57.6374 72.8102 60.8957 69.552 64.9162 69.552C68.9366 69.552 72.1949 72.8102 72.1949 76.8307C72.1949 80.8512 68.9366 84.1094 64.9162 84.1094Z" fill="#FFD400"/>
<path d="M16.0079 42.0366C15.908 41.594 15.7679 41.3243 13.4879 39.5521C12.4088 38.714 11.1071 37.7483 10.3218 37.2039C5.67732 33.986 5.39316 32.907 5.48916 31.6283C5.61588 29.9588 6.76404 26.6843 8.92404 24.6289C11.5122 22.1655 14.9116 21.4302 17.1916 22.8385C19.0367 23.979 20.2636 26.7755 19.0405 29.9156C17.6591 33.4619 15.1247 34.1953 14.9941 34.2308C14.372 34.3902 13.9928 35.0219 14.1474 35.6468C14.3029 36.2747 14.9365 36.6577 15.5653 36.5031C15.7199 36.4647 19.3746 35.5134 21.2236 30.7662C21.8898 29.0545 22.0328 27.1508 21.6239 25.4065C21.1612 23.4308 20.0543 21.8535 18.4232 20.8455C15.238 18.8775 10.6674 19.7348 7.30932 22.9316C4.55316 25.5543 3.29748 29.5499 3.15348 31.4516C2.9538 34.0993 4.31604 35.8935 8.9874 39.1297C10.3314 40.0609 12.7861 41.9358 13.6396 42.6923C13.4264 43.3844 12.7026 44.8398 11.4844 45.6567C10.6156 46.2395 9.69492 46.3575 8.66868 46.0148C5.98548 45.1211 6.45108 41.6871 6.4722 41.546C6.57012 40.9067 6.1314 40.3086 5.49204 40.2107C4.85268 40.1118 4.2546 40.5515 4.15668 41.1908C3.86484 43.0964 4.27764 47.0219 7.92948 48.2382C8.54388 48.4427 9.15636 48.5435 9.75828 48.5435C11.1234 48.5435 12.428 48.0222 13.5493 47.0075C15.2245 45.4907 16.2469 43.0897 16.0088 42.0375L16.0079 42.0366Z" fill="#2470F4"/>
<path d="M17.9239 40.2776C17.6513 41.5804 17.7281 43.6616 18.8427 45.237C19.6692 46.4053 20.9499 47.1359 22.5454 47.348C22.867 47.3912 23.179 47.4104 23.4804 47.4104C26.5735 47.4104 28.6251 45.358 28.7191 45.262C29.1703 44.8021 29.1627 44.0668 28.7057 43.6127C28.2487 43.1586 27.5076 43.1624 27.0516 43.6165C26.9806 43.6876 25.2833 45.3484 22.8555 45.0248C21.8955 44.8962 21.2091 44.5228 20.7559 43.8824C20.0993 42.9541 20.082 41.6706 20.1819 40.965L28.4475 42.068C29.0532 42.1496 29.6196 41.7503 29.7483 41.1532C29.802 40.9007 30.2407 38.638 29.0148 36.788C28.3083 35.7224 27.2254 35.0437 25.7959 34.7701C21.0535 33.8648 18.4932 37.5666 17.9259 40.2757L17.9239 40.2776ZM25.3543 37.0741C26.1473 37.2258 26.7041 37.5532 27.0535 38.0754C27.3655 38.542 27.4807 39.1026 27.5115 39.5816L21.114 38.7272C21.8571 37.6607 23.1569 36.6546 25.3543 37.0741Z" fill="#2470F4"/>
<path d="M23.1715 48.9782C16.0733 48.6518 12.7593 52.9286 12.6211 53.111C12.2304 53.6275 12.3331 54.3619 12.8486 54.7517C13.3651 55.1414 14.0995 55.0397 14.4893 54.5241C14.5152 54.4896 17.1888 51.0509 23.063 51.3187C25.3641 51.4243 27.1372 52.1049 28.1904 53.2877C29.0054 54.2025 29.3846 55.4342 29.2867 56.8502C29.1763 58.439 28.2787 59.8809 26.8233 60.8064C25.7856 61.4649 23.639 62.3597 20.4787 61.3862L22.3219 54.2736C22.4841 53.6477 22.1078 53.0083 21.4819 52.8461C20.856 52.6838 20.2166 53.0601 20.0544 53.6861L15.6009 70.871C15.4387 71.4969 15.815 72.1363 16.4409 72.2985C16.5398 72.3245 16.6387 72.336 16.7357 72.336C17.2569 72.336 17.7321 71.9856 17.8685 71.4585L19.8912 63.6547C21.0048 63.984 22.1126 64.1472 23.183 64.1472C24.9715 64.1472 26.6553 63.6902 28.08 62.7849C30.1699 61.4573 31.4621 59.3529 31.6243 57.0134C31.7673 54.9542 31.1846 53.1273 29.9405 51.7305C28.4573 50.0659 26.1168 49.1155 23.1715 48.9792V48.9782Z" fill="#2470F4"/>
<path d="M36.695 40.8058C36.7008 40.8125 36.7056 40.8192 36.7113 40.8259C36.8976 41.0448 41.2905 46.2125 43.5571 47.7629C43.7596 47.9011 43.9891 47.9674 44.2176 47.9674C44.591 47.9674 44.9587 47.7888 45.1852 47.4567C45.551 46.9229 45.4137 46.1933 44.88 45.8285C43.5897 44.9463 41.1974 42.3773 39.6211 40.6003C40.3747 40.4083 41.087 40.1059 41.735 39.6941C43.5139 38.5642 44.6121 36.7719 44.7513 34.7779C44.8646 33.1488 44.2713 31.5514 43.0819 30.2823C41.7033 28.8106 39.6412 27.9351 37.559 27.9351H37.5292C31.6339 27.9591 28.8633 31.2471 28.7481 31.3872C28.3372 31.8864 28.4092 32.6256 28.9084 33.0365C29.4076 33.4474 30.1468 33.3754 30.5577 32.8762C30.5788 32.8503 32.7321 30.2986 37.5388 30.2794H37.56C39.0048 30.2794 40.4294 30.8784 41.3721 31.8855C42.1113 32.6746 42.4809 33.6442 42.4137 34.6176C42.3273 35.8618 41.6227 36.9917 40.4784 37.7184C39.1065 38.5901 37.3516 38.7504 35.4787 38.1898L37.0022 33.3821C37.1971 32.7658 36.8563 32.1072 36.239 31.9114C35.6217 31.7165 34.9641 32.0583 34.7683 32.6746L30.0364 47.6122C29.8416 48.2285 30.1823 48.8871 30.7996 49.0829C30.9177 49.1203 31.0368 49.1376 31.1539 49.1376C31.6511 49.1376 32.112 48.8189 32.2704 48.3197L34.7721 40.4218C35.4182 40.6157 36.0624 40.7443 36.696 40.8058H36.695Z" fill="#2470F4"/>
<path d="M52.3889 46.9526C52.6615 46.9805 52.9265 46.9929 53.1847 46.9929C56.5246 46.9929 58.6625 44.8387 58.7585 44.7398C58.9207 44.5728 59.0302 44.3606 59.0714 44.1321L59.8193 40.008C59.9287 39.407 59.5572 38.8224 58.9668 38.6669L53.6215 37.2518C52.9956 37.0867 52.3543 37.4592 52.1892 38.0841C52.0231 38.7101 52.3966 39.3513 53.0215 39.5165L57.3204 40.655L56.8366 43.32C56.2615 43.7913 54.7265 44.8349 52.625 44.6217C51.3396 44.4912 50.2346 43.9219 49.5137 43.0195C48.7841 42.1056 48.4884 40.8864 48.6583 39.4925C48.8542 37.8902 49.6423 34.1376 52.7316 33.9101C55.9735 33.6691 57.9665 35.7379 58.0558 35.8329C58.4945 36.3053 59.2327 36.3341 59.707 35.8982C60.1831 35.4605 60.2138 34.7193 59.7761 34.2432C59.6638 34.1213 56.969 31.2499 52.5588 31.5744C49.2132 31.8201 46.8852 34.6752 46.3313 39.2102C46.0836 41.2435 46.5502 43.0665 47.682 44.4835C48.7994 45.8822 50.4708 46.7597 52.387 46.9545L52.3889 46.9526Z" fill="#2470F4"/>
<path d="M36.1389 52.8344C35.5101 52.6952 34.8813 53.0927 34.7411 53.7243L32.4534 64.0117C32.3132 64.6434 32.7107 65.2693 33.3433 65.4095C33.4288 65.4287 33.5142 65.4373 33.5987 65.4373C34.1353 65.4373 34.6201 65.0658 34.7411 64.5195L37.0288 54.2322C37.1689 53.6005 36.7715 52.9746 36.1389 52.8344Z" fill="#2470F4"/>
<path d="M35.8538 48.2612L35.4477 50.114C35.3095 50.7457 35.7098 51.3706 36.3415 51.5089C36.426 51.5271 36.5104 51.5358 36.593 51.5358C37.1316 51.5358 37.6164 51.1623 37.7364 50.6151L38.1424 48.7623C38.2807 48.1306 37.8804 47.5057 37.2487 47.3674C36.617 47.2282 35.992 47.6295 35.8538 48.2612Z" fill="#2470F4"/>
<path d="M61.4639 46.9652C61.5494 46.9844 61.6348 46.993 61.7193 46.993C62.2559 46.993 62.7407 46.6215 62.8617 46.0753L65.1494 35.7879C65.2895 35.1562 64.8921 34.5303 64.2595 34.3901C63.6287 34.2509 63.0019 34.6474 62.8617 35.2791L60.574 45.5665C60.4339 46.1981 60.8313 46.8241 61.4639 46.9642V46.9652Z" fill="#2470F4"/>
<path d="M64.4621 33.0652C64.5466 33.0835 64.631 33.0921 64.7136 33.0921C65.2522 33.0921 65.737 32.7187 65.857 32.1715L66.263 30.3187C66.4013 29.686 66.001 29.062 65.3693 28.9238C64.7376 28.7855 64.1126 29.1859 63.9744 29.8175L63.5683 31.6703C63.4301 32.302 63.8304 32.927 64.4621 33.0652Z" fill="#2470F4"/>
<path d="M76.2653 32.67C74.4509 32.0652 72.4234 32.3302 70.5562 33.416C68.4231 34.6563 66.8237 36.8134 66.3811 39.0444C66.0547 40.6908 66.3917 42.3651 67.3306 43.759C68.2685 45.152 69.696 46.0937 71.3501 46.4115C71.8032 46.4988 72.2592 46.5411 72.7133 46.5411C74.2291 46.5411 75.7287 46.062 77.04 45.1424C78.8333 43.8848 80.0496 41.9811 80.377 39.919C80.8916 36.6828 79.1616 33.6339 76.2653 32.6691V32.67ZM78.0624 39.5523C77.8368 40.9692 76.9517 42.342 75.6941 43.2243C74.5123 44.0528 73.1271 44.3686 71.7908 44.1104C70.754 43.9116 69.8602 43.3212 69.2727 42.4496C68.6852 41.5769 68.474 40.5296 68.6784 39.4995C68.9943 37.9078 70.1645 36.3536 71.7331 35.4406C72.5808 34.9481 73.4583 34.6956 74.2935 34.6956C74.7178 34.6956 75.1306 34.76 75.5232 34.8915C77.5671 35.5721 78.3476 37.7504 78.0615 39.5504L78.0624 39.5523Z" fill="#2470F4"/>
<path d="M50.1984 61.9642C50.0986 61.3248 49.4976 60.889 48.8602 60.9878L40.8586 62.2406L49.9556 50.88C50.2551 50.5066 50.2964 49.9891 50.0612 49.5725C49.826 49.1558 49.3594 48.9235 48.8861 48.9869L40.01 50.1658C39.3687 50.2512 38.9175 50.8397 39.0029 51.481C39.0884 52.1222 39.6768 52.5725 40.3181 52.488L46.3018 51.6931L37.1415 63.1325C36.8391 63.5098 36.7997 64.0339 37.0426 64.4525C37.2538 64.8173 37.6426 65.0362 38.0554 65.0362C38.1159 65.0362 38.1764 65.0314 38.2368 65.0218L49.2212 63.3024C49.8605 63.2026 50.2973 62.6026 50.1975 61.9642H50.1984Z" fill="#2470F4"/>
<path d="M63.2147 62.8916L52.744 64.7368L63.1763 51.7412C63.4826 51.3601 63.52 50.8283 63.2694 50.4078C63.0198 49.9883 62.535 49.7675 62.0531 49.8548L52.0029 51.6856C51.3664 51.8017 50.944 52.4113 51.0602 53.0478C51.1763 53.6843 51.784 54.1057 52.4224 53.9905L59.3843 52.7224L48.9693 65.6968C48.664 66.0769 48.6266 66.6068 48.8742 67.0273C49.0874 67.3873 49.4733 67.6024 49.8822 67.6024C49.9494 67.6024 50.0176 67.5966 50.0858 67.5851L63.6218 65.1995C64.2592 65.0872 64.6845 64.4795 64.5722 63.842C64.4598 63.2056 63.8531 62.7812 63.2147 62.8916Z" fill="#2470F4"/>
<path d="M76.227 55.5014C76.2145 55.4774 76.202 55.4524 76.1886 55.4294L72.7729 49.054C72.5876 48.7075 72.2391 48.4771 71.8475 48.4406C71.4548 48.4041 71.0718 48.5673 70.826 48.8745L62.5047 59.2627C62.1006 59.7676 62.1812 60.5049 62.6871 60.9091C62.9031 61.0819 63.1614 61.1664 63.4187 61.1664C63.7623 61.1664 64.1022 61.0166 64.3335 60.7276L66.5915 57.9081L74.5086 57.2534L75.5895 59.2723C75.8948 59.8425 76.6043 60.0575 77.1755 59.7513C77.7457 59.446 77.9607 58.7356 77.6545 58.1654L76.227 55.5004V55.5014ZM68.6084 55.391L71.546 51.7238L73.3028 55.0022L68.6094 55.39L68.6084 55.391Z" fill="#2470F4"/>
</g>
<defs>
<clipPath id="clip0_3038_8868">
<rect width="96" height="96" fill="white"/>
</clipPath>
</defs>
</svg>
