<svg width="38" height="48" viewBox="0 0 38 48" fill="none" xmlns="http://www.w3.org/2000/svg">
<path d="M3.8335 19.3333C3.8335 10.4991 10.5903 4.16663 19.0002 4.16663C27.3758 4.16663 34.1668 10.9658 34.1668 19.3333C34.1668 21.8506 33.2455 24.6579 31.7256 27.5405C30.2153 30.405 28.1804 33.2192 26.111 35.7168C24.046 38.2089 21.9761 40.3507 20.4204 41.8706C19.8749 42.4036 19.3939 42.8589 19.0002 43.2246C18.6064 42.8589 18.1254 42.4036 17.5799 41.8706C16.0242 40.3507 13.9543 38.2089 11.8894 35.7168C9.81991 33.2192 7.78507 30.405 6.27472 27.5405C4.75479 24.6579 3.83349 21.8506 3.8335 19.3333ZM17.0945 46.2273C17.3324 46.4441 17.5205 46.6122 17.6504 46.7271C18.5617 47.5337 19.429 47.5423 20.35 46.7271C20.4799 46.6122 20.6679 46.4441 20.9058 46.2273C21.3815 45.7938 22.0572 45.1647 22.8664 44.3741C24.4825 42.7951 26.6418 40.5618 28.806 37.9498C30.9658 35.3433 33.1601 32.3241 34.8216 29.1729C36.4735 26.0399 37.6668 22.6494 37.6668 19.3333C37.6668 9.0341 29.3101 0.666626 19.0002 0.666626C8.72444 0.666626 0.333506 8.49955 0.333496 19.3333C0.333496 22.6494 1.52678 26.0399 3.17872 29.1729C4.84024 32.3241 7.03457 35.3433 9.19429 37.9498C11.3585 40.5618 13.5178 42.7951 15.134 44.3741C15.9431 45.1647 16.6188 45.7938 17.0945 46.2273ZM14.3335 19.3333C14.3335 16.756 16.4228 14.6666 19.0002 14.6666C21.5775 14.6666 23.6668 16.756 23.6668 19.3333C23.6668 21.9106 21.5775 24 19.0002 24C16.4228 24 14.3335 21.9106 14.3335 19.3333ZM19.0002 11.1666C14.4898 11.1666 10.8335 14.823 10.8335 19.3333C10.8335 23.8436 14.4898 27.5 19.0002 27.5C23.5105 27.5 27.1668 23.8436 27.1668 19.3333C27.1668 14.823 23.5105 11.1666 19.0002 11.1666Z" fill="#FFD400"/>
</svg>
