<svg width="80" height="95" viewBox="0 0 80 95" fill="none" xmlns="http://www.w3.org/2000/svg">
<g filter="url(#filter0_f_1142_17237)">
<ellipse cx="40.0002" cy="87.7698" rx="11.6667" ry="4.23077" fill="black" fill-opacity="0.2"/>
</g>
<g filter="url(#filter1_d_1142_17237)">
<path fill-rule="evenodd" clip-rule="evenodd" d="M40 4C59.33 4 75 19.9111 75 39.5385C75 54.5874 65.7879 67.4516 52.7772 72.6344L41.9935 87.6011C41.7687 87.9144 41.4702 88.1701 41.1232 88.3467C40.7762 88.5232 40.391 88.6154 40 88.6154C39.609 88.6154 39.2238 88.5232 38.8768 88.3467C38.5298 88.1701 38.2313 87.9144 38.0065 87.6011L27.2228 72.6344C14.2121 67.4516 5 54.5874 5 39.5385C5 19.9111 20.67 4 40 4Z" fill="white"/>
</g>
<path d="M68.3332 39.5388C68.3332 23.65 55.6479 10.7695 39.9998 10.7695C24.3518 10.7695 11.6665 23.65 11.6665 39.5388C11.6665 55.4276 24.3518 68.308 39.9998 68.308C55.6479 68.308 68.3332 55.4276 68.3332 39.5388Z" fill="#4685F1"/>
<g clip-path="url(#clip0_1142_17237)">
<path d="M22.0835 40.9656C21.739 40.9656 21.3917 40.9059 21.0388 40.7836C18.955 40.0726 18.7281 37.7946 18.899 36.6911C18.955 36.3214 19.2995 36.0683 19.6636 36.1252C20.0277 36.1821 20.277 36.5319 20.221 36.9016C20.2098 36.9841 19.9381 38.9748 21.4673 39.4953C22.0527 39.6943 22.5793 39.6289 23.075 39.2933C23.7725 38.8213 24.187 37.9794 24.3102 37.5784C23.8229 37.1376 22.4252 36.0484 21.6606 35.5052C18.9998 33.6197 18.2268 32.5788 18.3444 31.0431C18.4312 29.9396 19.1538 27.6275 20.7335 26.1116C22.6577 24.2659 25.2681 23.7768 27.0831 24.9257C28.013 25.5144 28.6403 26.4302 28.9008 27.5763C29.1305 28.5887 29.0465 29.6922 28.6628 30.6819C27.5984 33.4291 25.509 33.9752 25.4222 33.9979C25.0636 34.0861 24.7023 33.8643 24.6127 33.4974C24.5259 33.1334 24.7443 32.7693 25.1001 32.6783C25.1757 32.6584 26.6237 32.2375 27.4192 30.1842C28.1222 28.3669 27.4276 26.743 26.3773 26.0775C25.0777 25.2556 23.1367 25.6765 21.655 27.0985C20.4198 28.2844 19.756 30.1813 19.6804 31.1483C19.6244 31.8906 19.784 32.5162 22.428 34.3904C22.8762 34.7061 23.6156 35.2692 24.2318 35.7583C25.5314 36.7907 25.6098 36.9471 25.6658 37.203C25.8003 37.8145 25.2121 39.2023 24.2514 40.0783C23.61 40.6641 22.8622 40.9656 22.0835 40.9627" fill="white"/>
<path d="M28.5873 35.2951L32.2368 35.8013C32.22 35.5226 32.1556 35.1984 31.9791 34.9282C31.7803 34.6239 31.4638 34.4334 31.01 34.3452C29.7552 34.0978 29.013 34.678 28.5873 35.2951ZM29.9205 40.3346C29.7468 40.3346 29.5704 40.3232 29.3855 40.2976C28.4752 40.1725 27.7442 39.7459 27.2765 39.0662C26.6435 38.1504 26.6043 36.9446 26.7611 36.1881C27.0888 34.6183 28.5593 32.4768 31.2649 33.0114C32.0799 33.1735 32.6989 33.5688 33.0995 34.186C33.7969 35.261 33.542 36.572 33.5112 36.7171C33.4384 37.064 33.1135 37.2944 32.7662 37.2461L28.0495 36.592C27.9907 37.0015 27.9991 37.7438 28.3716 38.2841C28.6293 38.6567 29.0214 38.8728 29.5676 38.9496C30.954 39.143 31.9259 38.1817 31.9651 38.1419C32.2256 37.8803 32.6485 37.8774 32.909 38.1419C33.1695 38.4064 33.1723 38.833 32.9146 39.0975C32.8614 39.1515 31.685 40.3403 29.9205 40.3317" fill="white"/>
<path d="M26.0246 54.7686C25.9686 54.7686 25.9126 54.7601 25.8566 54.7459C25.5009 54.652 25.2852 54.2795 25.3804 53.9154L27.9544 43.9616C28.0469 43.5976 28.4138 43.3814 28.7723 43.4781C29.1308 43.572 29.3437 43.9446 29.2484 44.3086L26.6744 54.2624C26.596 54.5695 26.3243 54.7686 26.0246 54.7686Z" fill="white"/>
<path d="M34.2985 41.3489C34.2312 41.3489 34.164 41.3375 34.0968 41.3176C33.7439 41.2039 33.5506 40.8199 33.6627 40.4644L36.3935 31.8131C36.5055 31.4577 36.8836 31.2586 37.2338 31.3752C37.5867 31.4889 37.7799 31.8729 37.6679 32.2284L34.937 40.8797C34.8474 41.1697 34.5813 41.3518 34.2985 41.3518" fill="white"/>
<path d="M29.7192 50.0351C28.9181 50.0351 28.0835 49.8673 27.2516 49.5374C26.9071 49.4009 26.7391 49.0056 26.8735 48.6586C27.008 48.3117 27.3973 48.1382 27.739 48.2747C29.7836 49.0852 31.1644 48.5193 31.803 48.1098C32.6349 47.5751 33.1502 46.7418 33.2175 45.8204C33.2763 44.9985 33.0634 44.2846 32.5985 43.7528C31.9991 43.0646 30.988 42.6664 29.6744 42.601C26.3217 42.4361 24.7897 44.424 24.7729 44.4439C24.5488 44.7425 24.1287 44.7994 23.8346 44.5719C23.5405 44.3444 23.4845 43.9178 23.7085 43.6192C23.787 43.5139 25.6888 41.0397 29.7388 41.2445C31.4193 41.3298 32.7553 41.8843 33.5984 42.8513C34.307 43.6618 34.6347 44.7226 34.5507 45.9171C34.4526 47.2736 33.7132 48.4908 32.5172 49.2559C31.7022 49.7791 30.7387 50.0408 29.7192 50.0351Z" fill="white"/>
<path d="M37.9871 36.5566C37.3121 36.5566 36.6091 36.4145 35.9089 36.1386C35.5643 36.0021 35.3963 35.6068 35.5307 35.2598C35.6652 34.91 36.0517 34.7394 36.3962 34.8759C37.609 35.3565 38.7629 35.311 39.6424 34.7479C40.2978 34.3298 40.7011 33.6757 40.7515 32.9534C40.7908 32.3903 40.5835 31.8272 40.1634 31.3693C39.6256 30.7834 38.8161 30.4336 37.9899 30.4308H37.9787C35.2338 30.4308 33.9987 31.9068 33.9875 31.9239C33.7522 32.2139 33.3293 32.2538 33.0464 32.0149C32.7607 31.776 32.7215 31.3465 32.9567 31.0593C33.024 30.9797 34.6121 29.0771 37.9759 29.0742H37.9927C39.1803 29.0771 40.3566 29.589 41.1409 30.445C41.8187 31.1844 42.152 32.1087 42.0847 33.0529C42.0035 34.2075 41.3705 35.2456 40.3538 35.8969C39.662 36.3405 38.847 36.5623 37.9843 36.5595" fill="white"/>
<path d="M41.76 40.696C41.6311 40.696 41.4995 40.6562 41.3818 40.5766C40.0906 39.6722 37.5923 36.669 37.4858 36.541C37.2478 36.2538 37.2842 35.8272 37.5671 35.5854C37.85 35.3437 38.2701 35.3807 38.5082 35.6679C39.1972 36.4983 41.1914 38.7963 42.1381 39.4589C42.4434 39.6722 42.519 40.0959 42.3089 40.4031C42.1801 40.5936 41.97 40.6989 41.7544 40.696" fill="white"/>
<path d="M46.8799 40.1501C46.7314 40.1501 46.5802 40.1416 46.4261 40.1245C45.331 40.0079 44.3787 39.496 43.7457 38.6827C43.1015 37.8579 42.8382 36.8 42.9839 35.6226C43.3088 32.9948 44.642 31.3453 46.5522 31.2088C49.0702 31.0296 50.6022 32.699 50.6666 32.7701C50.9159 33.0459 50.8963 33.4754 50.6246 33.7285C50.3529 33.9816 49.93 33.9617 49.6807 33.6887C49.6303 33.6346 48.496 32.4317 46.6446 32.5653C44.8801 32.6905 44.4235 34.8661 44.3087 35.7932C44.2079 36.6009 44.3759 37.309 44.7904 37.838C45.1994 38.3641 45.8296 38.694 46.5634 38.7737C47.7622 38.9016 48.6416 38.2987 48.9693 38.0285L49.2494 36.4843L46.7959 35.816C46.4401 35.7193 46.2273 35.3467 46.3225 34.9827C46.4177 34.6215 46.7847 34.4054 47.1432 34.5021L50.1933 35.3325C50.5294 35.4235 50.7423 35.7619 50.6778 36.1117L50.2437 38.5006C50.2185 38.6343 50.1569 38.7566 50.0645 38.8533C50.0084 38.9102 48.7845 40.1558 46.8771 40.1501" fill="white"/>
<path d="M35.6625 50.8036C35.6149 50.8036 35.5645 50.7979 35.5169 50.7866C35.1556 50.7041 34.9315 50.3401 35.0127 49.9732L36.3375 44.0151C36.4188 43.6483 36.7773 43.4207 37.1358 43.5032C37.4971 43.5857 37.7212 43.9497 37.6399 44.3166L36.3151 50.2747C36.2451 50.5903 35.9678 50.8065 35.6597 50.8036" fill="white"/>
<path d="M37.3987 42.7525C37.3511 42.7525 37.3035 42.7468 37.2559 42.7354C36.8945 42.6529 36.6677 42.2917 36.7489 41.9249L36.9842 40.8499C37.0654 40.483 37.4211 40.2526 37.7824 40.3351C38.1437 40.4176 38.3706 40.7788 38.2894 41.1456L38.0541 42.2178C37.9841 42.5363 37.7068 42.7496 37.3987 42.7496" fill="white"/>
<path d="M51.7533 40.1669C51.7057 40.1669 51.6553 40.1612 51.6077 40.1498C51.2464 40.0674 51.0223 39.7033 51.1035 39.3365L52.4283 33.3784C52.5096 33.0115 52.8681 32.784 53.2294 32.8665C53.5907 32.949 53.8148 33.313 53.7335 33.6799L52.4087 39.6379C52.3387 39.9536 52.0614 40.1698 51.7561 40.1669" fill="white"/>
<path d="M58.9542 33.0626C58.478 33.0626 57.9767 33.2047 57.4893 33.4891C56.5931 34.0153 55.9209 34.914 55.7388 35.8354C55.6212 36.4326 55.7388 37.0412 56.0721 37.5475C56.4054 38.0537 56.9152 38.3978 57.5061 38.5144C58.268 38.6651 59.0606 38.486 59.7356 38.0082C60.4555 37.4991 60.9624 36.7056 61.094 35.8837C61.2621 34.84 60.8196 33.5773 59.6544 33.1792C59.4303 33.1024 59.1951 33.0654 58.9514 33.0626M58.0299 39.925C57.7694 39.925 57.5089 39.8994 57.2513 39.8482C56.3074 39.6605 55.4951 39.1116 54.9602 38.3039C54.428 37.4934 54.2375 36.5236 54.428 35.5681C54.6857 34.2769 55.6016 33.0284 56.8227 32.3146C57.8899 31.6889 59.0494 31.5382 60.0829 31.8937C61.7354 32.4596 62.7157 34.2286 62.4161 36.1056C62.2256 37.3 61.5282 38.4006 60.5003 39.1258C59.7496 39.6577 58.8926 39.9307 58.0271 39.9278" fill="white"/>
<path d="M38.2086 50.5816C37.9733 50.5816 37.7521 50.4536 37.6316 50.2403C37.4944 49.9986 37.5168 49.6943 37.6905 49.4753L42.9421 42.8603L39.525 43.3096C39.1581 43.358 38.822 43.0935 38.7772 42.7238C38.7296 42.3512 38.9873 42.0128 39.3542 41.9644L44.4237 41.299C44.6926 41.262 44.9587 41.3985 45.0931 41.6402C45.2276 41.882 45.2024 42.1834 45.0315 42.3996L39.8163 48.9691L44.3873 48.2581C44.7514 48.2012 45.0931 48.4543 45.1491 48.8269C45.2052 49.1966 44.9531 49.5436 44.589 49.6004L38.3151 50.5759C38.2814 50.5816 38.245 50.5845 38.2114 50.5845" fill="white"/>
<path d="M44.9557 52.0882C44.7232 52.0882 44.5019 51.9631 44.3815 51.7526C44.2415 51.508 44.2639 51.2009 44.4375 50.9819L50.4089 43.4796L46.4317 44.2019C46.0676 44.2673 45.7203 44.0228 45.6559 43.653C45.5915 43.2833 45.8323 42.9307 46.1965 42.8653L51.9382 41.8215C52.2127 41.7704 52.49 41.9012 52.6328 42.1458C52.7757 42.3903 52.7533 42.6975 52.5768 42.9193L46.597 50.433L52.5796 49.3836C52.9437 49.321 53.291 49.5685 53.3527 49.9382C53.4143 50.3079 53.1706 50.6577 52.8065 50.7231L45.0733 52.0797C45.0341 52.0854 44.9949 52.0882 44.9557 52.0882Z" fill="white"/>
<path d="M52.6943 48.3852C52.5486 48.3852 52.4002 48.3368 52.2769 48.2344C51.9884 47.9984 51.9436 47.5718 52.1761 47.2789L56.946 41.2724C57.086 41.0961 57.3045 41.0023 57.5313 41.0222C57.7554 41.0449 57.9543 41.1786 58.0579 41.3805L60.8279 46.6731C61.0016 47.0058 60.8784 47.4154 60.5507 47.5917C60.223 47.768 59.8196 47.6429 59.646 47.3101L57.3521 42.9276L53.218 48.132C53.0864 48.2998 52.8903 48.3852 52.6943 48.3852Z" fill="white"/>
<path d="M54.1707 46.5245C53.8261 46.5245 53.5349 46.2543 53.5068 45.8988C53.4788 45.5263 53.7533 45.1964 54.1202 45.1679L59.3662 44.7442C59.7388 44.7157 60.0553 44.9945 60.0861 45.367C60.1141 45.7424 59.8396 46.0695 59.4727 46.0979L54.2267 46.5217C54.2071 46.5217 54.1903 46.5217 54.1707 46.5217" fill="white"/>
</g>
<defs>
<filter id="filter0_f_1142_17237" x="26.3335" y="81.5391" width="27.3335" height="12.4609" filterUnits="userSpaceOnUse" color-interpolation-filters="sRGB">
<feFlood flood-opacity="0" result="BackgroundImageFix"/>
<feBlend mode="normal" in="SourceGraphic" in2="BackgroundImageFix" result="shape"/>
<feGaussianBlur stdDeviation="1" result="effect1_foregroundBlur_1142_17237"/>
</filter>
<filter id="filter1_d_1142_17237" x="0" y="0" width="80" height="94.6152" filterUnits="userSpaceOnUse" color-interpolation-filters="sRGB">
<feFlood flood-opacity="0" result="BackgroundImageFix"/>
<feColorMatrix in="SourceAlpha" type="matrix" values="0 0 0 0 0 0 0 0 0 0 0 0 0 0 0 0 0 0 127 0" result="hardAlpha"/>
<feOffset dy="1"/>
<feGaussianBlur stdDeviation="2.5"/>
<feComposite in2="hardAlpha" operator="out"/>
<feColorMatrix type="matrix" values="0 0 0 0 0 0 0 0 0 0 0 0 0 0 0 0 0 0 0.1 0"/>
<feBlend mode="normal" in2="BackgroundImageFix" result="effect1_dropShadow_1142_17237"/>
<feBlend mode="normal" in="SourceGraphic" in2="effect1_dropShadow_1142_17237" result="shape"/>
</filter>
<clipPath id="clip0_1142_17237">
<rect width="44.1387" height="30.4615" fill="white" transform="translate(18.3335 24.3086)"/>
</clipPath>
</defs>
</svg>
