<svg width="22" height="22" viewBox="0 0 22 22" fill="none" xmlns="http://www.w3.org/2000/svg">
<path d="M6.54833 14.4421C8.05621 15.9506 10.488 18.0847 12.9866 19.3116C15.5293 20.5601 17.5476 20.6258 18.9917 19.1475L18.9977 19.1413L19.0038 19.1352C19.7239 18.4148 20.097 17.9386 20.2191 17.5842C20.2629 17.4573 20.2557 17.3946 20.2433 17.3477C20.2274 17.2875 20.1653 17.1231 19.9021 16.8599C19.4813 16.4389 18.6368 15.8425 17.794 15.3014C17.3199 14.997 16.8388 14.7032 16.3515 14.4203C16.2434 14.358 16.1454 14.2668 16.0136 14.2751C15.9221 14.2808 15.788 14.3195 15.6426 14.4234L15.6229 14.4374L14.135 15.4298C13.7889 15.6816 13.3421 15.9006 12.801 15.9006C12.3058 15.9006 11.9221 15.7021 11.8227 15.6507C11.7625 15.6195 11.7047 15.5832 11.6461 15.5492C10.6807 14.9054 9.70264 14.1454 8.72296 13.1653C7.52763 11.9695 6.76683 10.8815 6.33998 10.241L6.24659 10.08C6.24459 10.076 6.24189 10.0707 6.23857 10.0643C6.18714 9.96482 5.98871 9.58096 5.98871 9.08559C5.98871 8.54427 6.20764 8.09734 6.45935 7.75111L6.83905 7.18133C6.84919 7.16612 6.85973 7.15026 6.87066 7.13381C7.02259 6.90524 7.25027 6.56271 7.51113 6.27422C7.59253 6.14303 7.61071 6.0539 7.6138 6.00602C7.61665 5.9617 7.61374 5.87038 7.51387 5.71052C7.19761 5.2043 6.92715 4.67425 6.59329 4.16161C6.05886 3.34099 5.45811 2.50993 5.02984 2.08149L4.98918 2.04081L4.95176 1.99714C4.7966 1.81605 4.69502 1.77401 4.65718 1.76184C3.8904 1.51528 3.19124 2.52581 2.74156 2.99384C1.53289 4.25185 1.4476 6.11956 2.46561 8.5427C3.45635 10.9009 5.24475 13.1842 6.52891 14.423L6.54833 14.4421ZM8.68369 7.21333C8.68369 7.21333 8.28444 7.71259 8.08482 8.01214L7.68555 8.61129C7.38611 9.0107 7.48592 9.21041 7.58574 9.41012C7.98499 10.0092 8.68369 11.0078 9.78164 12.1062C10.68 13.0049 11.5783 13.7038 12.4766 14.303C12.6763 14.4028 12.8759 14.5027 13.2751 14.2031L14.7723 13.2046C15.471 12.7053 16.3694 12.6054 17.0681 13.1047C17.0681 13.1047 19.8629 14.7024 20.9608 15.8008C22.5578 17.3984 21.4599 18.7964 20.0625 20.1944C15.7705 24.5879 8.58388 18.5967 5.48964 15.5012C2.69485 12.8052 -2.19604 5.71552 1.69671 1.92106C2.59504 0.922524 3.29373 0.423253 3.99243 0.323399C4.79094 0.123691 5.48964 0.323399 6.08853 1.02238C7.18648 2.12077 8.7835 4.81683 8.7835 4.91669C9.28257 5.71552 9.18276 6.51435 8.68369 7.21333Z" fill="#192435"/>
</svg>
