<svg width="24" height="24" viewBox="0 0 24 24" fill="none" xmlns="http://www.w3.org/2000/svg">
<path d="M4.50006 12C4.50006 7.85786 7.85792 4.5 12.0001 4.5C13.4329 4.5 14.7698 4.90106 15.9071 5.59667C16.2605 5.81279 16.7221 5.70153 16.9383 5.34816C17.1544 4.9948 17.0431 4.53314 16.6897 4.31702C15.3235 3.48143 13.7169 3 12.0001 3C7.02949 3 3.00006 7.02944 3.00006 12C3.00006 12.5375 3.04727 13.0646 3.1379 13.5771L1.70196 12.1411C1.40907 11.8482 0.934194 11.8482 0.641301 12.1411C0.348408 12.434 0.348407 12.9089 0.641301 13.2018L3.46973 16.0302C3.76262 16.3231 4.23749 16.3231 4.53039 16.0302L7.35882 13.2018C7.65171 12.9089 7.65171 12.434 7.35882 12.1411C7.06592 11.8482 6.59105 11.8482 6.29816 12.1411L4.70209 13.7372C4.57009 13.1803 4.50006 12.5988 4.50006 12ZM19.4315 10.9809L17.7006 12.7031C17.407 12.9953 16.9321 12.9941 16.64 12.7005C16.3478 12.4068 16.349 11.932 16.6426 11.6398L19.4781 8.81846C19.6197 8.67759 19.8116 8.59901 20.0113 8.60013C20.2111 8.60124 20.4021 8.68197 20.5421 8.82441L23.3389 11.6703C23.6292 11.9657 23.6251 12.4406 23.3297 12.7309C23.0342 13.0212 22.5594 13.0171 22.269 12.7217L20.9811 11.4111C20.9937 11.6059 21.0001 11.8022 21.0001 12C21.0001 16.9706 16.9706 21 12.0001 21C10.5737 21 9.22282 20.6676 8.02259 20.0755C7.65113 19.8922 7.49858 19.4425 7.68186 19.071C7.86514 18.6996 8.31484 18.547 8.6863 18.7303C9.68468 19.2229 10.8089 19.5 12.0001 19.5C16.1422 19.5 19.5001 16.1421 19.5001 12C19.5001 11.654 19.4767 11.3138 19.4315 10.9809Z" fill="#8B94A2"/>
</svg>
