<svg width="16" height="16" viewBox="0 0 16 16" fill="none" xmlns="http://www.w3.org/2000/svg">
<path d="M4.5 4.5C4.5 2.567 6.067 1 8 1C9.933 1 11.5 2.567 11.5 4.5V5H12.25C13.2165 5 14 5.7835 14 6.75V12.25C14 13.2165 13.2165 14 12.25 14H3.75C2.7835 14 2 13.2165 2 12.25V6.75C2 5.7835 2.7835 5 3.75 5H4.5V4.5ZM10 4.5C10 3.39543 9.10457 2.5 8 2.5C6.89543 2.5 6 3.39543 6 4.5V5H10V4.5ZM8 8.25C7.30964 8.25 6.75 8.80964 6.75 9.5C6.75 10.1904 7.30964 10.75 8 10.75C8.69036 10.75 9.25 10.1904 9.25 9.5C9.25 8.80964 8.69036 8.25 8 8.25Z" fill="#CBCBCB"/>
</svg>
