<svg width="41" height="40" viewBox="0 0 41 40" fill="none" xmlns="http://www.w3.org/2000/svg">
<g clip-path="url(#clip0_1100_14385)">
<path d="M20.666 0.49939C9.91602 0.49939 1.16602 9.24939 1.16602 19.9994C1.16602 30.7494 9.91602 39.5619 20.7285 39.5619C31.541 39.5619 40.291 30.8119 40.291 19.9994C40.291 9.18689 31.416 0.49939 20.666 0.49939ZM20.666 36.7494C11.416 36.7494 3.91602 29.2494 3.91602 19.9994C3.91602 10.7494 11.4785 3.31189 20.666 3.31189C29.8535 3.31189 37.416 10.8119 37.416 20.0619C37.416 29.3119 29.916 36.7494 20.666 36.7494Z" fill="#CBCBCB"/>
<path d="M13.166 16.7494C14.5467 16.7494 15.666 15.6301 15.666 14.2494C15.666 12.8687 14.5467 11.7494 13.166 11.7494C11.7853 11.7494 10.666 12.8687 10.666 14.2494C10.666 15.6301 11.7853 16.7494 13.166 16.7494Z" fill="#CBCBCB"/>
<path d="M28.166 16.7494C29.5467 16.7494 30.666 15.6301 30.666 14.2494C30.666 12.8687 29.5467 11.7494 28.166 11.7494C26.7853 11.7494 25.666 12.8687 25.666 14.2494C25.666 15.6301 26.7853 16.7494 28.166 16.7494Z" fill="#CBCBCB"/>
<path d="M20.6663 24.9998C17.2288 24.9998 13.9788 26.2498 11.4788 28.6248C10.9163 29.1248 10.8538 30.0623 11.4163 30.6248C11.9163 31.1873 12.8538 31.2498 13.4163 30.6873C15.4163 28.8748 17.9788 27.8123 20.6663 27.8123C23.3538 27.8123 25.9788 28.8123 27.9163 30.6873C28.1663 30.9373 28.5413 31.0623 28.8538 31.0623C29.2288 31.0623 29.6038 30.9373 29.8538 30.6248C30.3538 30.0623 30.3538 29.1873 29.7913 28.6248C27.3538 26.3123 24.1038 24.9998 20.6663 24.9998Z" fill="#CBCBCB"/>
</g>
<defs>
<clipPath id="clip0_1100_14385">
<rect width="40" height="40" fill="white" transform="translate(0.666016)"/>
</clipPath>
</defs>
</svg>
