<svg width="40" height="40" viewBox="0 0 40 40" fill="none" xmlns="http://www.w3.org/2000/svg">
<g clip-path="url(#clip0_1100_14386)">
<path d="M20 0.49939C9.25 0.49939 0.5 9.24939 0.5 19.9994C0.5 30.7494 9.25 39.5619 20.0625 39.5619C30.875 39.5619 39.625 30.8119 39.625 19.9994C39.625 9.18689 30.75 0.49939 20 0.49939ZM20 36.7494C10.75 36.7494 3.25 29.2494 3.25 19.9994C3.25 10.7494 10.8125 3.31189 20 3.31189C29.1875 3.31189 36.75 10.8119 36.75 20.0619C36.75 29.3119 29.25 36.7494 20 36.7494Z" fill="#4080F7"/>
<path d="M12.5 16.7494C13.8807 16.7494 15 15.6301 15 14.2494C15 12.8687 13.8807 11.7494 12.5 11.7494C11.1193 11.7494 10 12.8687 10 14.2494C10 15.6301 11.1193 16.7494 12.5 16.7494Z" fill="#4080F7"/>
<path d="M27.5 16.7494C28.8807 16.7494 30 15.6301 30 14.2494C30 12.8687 28.8807 11.7494 27.5 11.7494C26.1193 11.7494 25 12.8687 25 14.2494C25 15.6301 26.1193 16.7494 27.5 16.7494Z" fill="#4080F7"/>
<path d="M27.2503 25.3738C25.2503 27.1863 22.6878 28.2488 20.0003 28.2488C17.3128 28.2488 14.6878 27.2488 12.7503 25.3738C12.1878 24.8738 11.3128 24.8738 10.7503 25.4363C10.2503 25.9988 10.2503 26.8738 10.8128 27.4363C13.3128 29.7488 16.5628 31.0613 20.0003 31.0613C23.4378 31.0613 26.6878 29.8113 29.1878 27.4363C29.7503 26.9363 29.8128 25.9988 29.2503 25.4363C28.6878 24.8738 27.8128 24.8738 27.2503 25.3738Z" fill="#4080F7"/>
</g>
<defs>
<clipPath id="clip0_1100_14386">
<rect width="40" height="40" fill="white"/>
</clipPath>
</defs>
</svg>
