<svg xmlns="http://www.w3.org/2000/svg" style="display: none;">

   <!-- CART -->
   <symbol id="cart" viewBox="0 0 24 24">
      <path
         d="M2.63991 1.99707C3.22814 1.99621 3.73738 2.40559 3.86293 2.98026L6.23487 13.8368C6.51077 15.0996 7.6289 15.9998 8.9215 15.9998H14.7557C15.1699 15.9998 15.5057 15.6641 15.5057 15.2498C15.5057 14.8356 15.1699 14.4998 14.7557 14.4998H8.9215C8.33395 14.4998 7.82571 14.0907 7.7003 13.5166L7.47872 12.5024L14.4938 12.5027C15.6649 12.5027 16.7288 11.8215 17.2186 10.758L19.9067 4.92069C20.2118 4.25817 19.7277 3.50237 18.9982 3.50237L5.51239 3.50237L5.32837 2.6601C5.05214 1.39581 3.93182 0.495178 2.63771 0.497073L0.748902 0.499839C0.334689 0.500445 -0.000605656 0.836723 8.21446e-07 1.25094C0.000607358 1.66515 0.336885 2.00044 0.751098 1.99984L2.63991 1.99707ZM7.15864 11.0025L5.86913 5.0023L18.2176 5.0023L15.856 10.1304C15.6111 10.6622 15.0792 11.0028 14.4936 11.0028L7.15864 11.0025ZM10.0042 18.9998C10.0042 19.8283 9.33237 20.4998 8.5036 20.4998C7.67483 20.4998 7.00298 19.8283 7.00298 18.9998C7.00298 18.1714 7.67483 17.4998 8.5036 17.4998C9.33237 17.4998 10.0042 18.1714 10.0042 18.9998ZM14.5809 20.4998C15.4097 20.4998 16.0815 19.8283 16.0815 18.9998C16.0815 18.1714 15.4097 17.4998 14.5809 17.4998C13.7521 17.4998 13.0803 18.1714 13.0803 18.9998C13.0803 19.8283 13.7521 20.4998 14.5809 20.4998Z"
         fill="currentColor" />
   </symbol>
   <!--  -->

   <!-- heart-outline -->
   <symbol id="heart-outline" viewBox="0 0 24 24">
      <mask id="path-1-inside-1_2223_1190" fill="currentColor">
         <path
            d="M0 6.1371C0 11 4.01943 13.5914 6.96173 15.9109C8 16.7294 9 17.5 10 17.5C11 17.5 12 16.7294 13.0383 15.9109C15.9806 13.5914 20 11 20 6.1371C20 1.27416 14.4998 -2.17454 10 2.50063C5.50016 -2.17454 0 1.27416 0 6.1371Z" />
      </mask>
      <path
         d="M6.96173 15.9109L6.0331 17.0889H6.03311L6.96173 15.9109ZM10 2.50063L8.91927 3.54083C9.20204 3.83462 9.59223 4.00063 10 4.00063C10.4078 4.00063 10.798 3.83462 11.0807 3.54083L10 2.50063ZM13.0383 15.9109L12.1096 14.7329L13.0383 15.9109ZM7.89036 14.7329C6.3302 13.503 4.75599 12.3971 3.49907 10.9818C2.29358 9.62433 1.5 8.10043 1.5 6.1371H-1.5C-1.5 9.0367 -0.283864 11.24 1.25593 12.9738C2.7443 14.6498 4.65096 15.9993 6.0331 17.0889L7.89036 14.7329ZM1.5 6.1371C1.5 4.26683 2.5557 2.73732 3.93615 2.10631C5.22206 1.51852 7.05324 1.6021 8.91927 3.54083L11.0807 1.46043C8.44692 -1.27601 5.2781 -1.80566 2.68897 -0.622156C0.194385 0.518124 -1.5 3.14443 -1.5 6.1371H1.5ZM6.03311 17.0889C6.53844 17.4872 7.12866 17.9511 7.73843 18.3075C8.34772 18.6635 9.1192 19 10 19V16C9.8808 16 9.65228 15.9512 9.252 15.7173C8.85221 15.4837 8.42329 15.153 7.89036 14.7329L6.03311 17.0889ZM13.9669 17.0889C15.349 15.9993 17.2557 14.6498 18.7441 12.9738C20.2839 11.24 21.5 9.0367 21.5 6.1371H18.5C18.5 8.10043 17.7064 9.62433 16.5009 10.9818C15.244 12.3971 13.6698 13.503 12.1096 14.7329L13.9669 17.0889ZM21.5 6.1371C21.5 3.14443 19.8056 0.518124 17.311 -0.622156C14.7219 -1.80566 11.5531 -1.27601 8.91927 1.46043L11.0807 3.54083C12.9468 1.6021 14.7779 1.51852 16.0638 2.10631C17.4443 2.73732 18.5 4.26683 18.5 6.1371H21.5ZM12.1096 14.7329C11.5767 15.153 11.1478 15.4837 10.748 15.7173C10.3477 15.9512 10.1192 16 10 16V19C10.8808 19 11.6523 18.6635 12.2616 18.3075C12.8713 17.9511 13.4616 17.4872 13.9669 17.0889L12.1096 14.7329Z"
         fill="currentColor" mask="url(#path-1-inside-1_2223_1190)" />
   </symbol>
   <!--  -->


   <!-- Search -->

   <symbol id="search" viewBox="0 0 24 24">
  <path fill-rule="evenodd" clip-rule="evenodd" d="M8 15C11.5899 15 14.5 12.0899 14.5 8.5C14.5 4.91015 11.5899 2 8 2C4.41015 2 1.5 4.91015 1.5 8.5C1.5 12.0899 4.41015 15 8 15ZM8 16.5C9.9395 16.5 11.7178 15.8098 13.1027 14.6616L14.0513 15.6103C13.9178 16.1107 14.0473 16.6667 14.4398 17.0592L17.4431 20.0625C18.0289 20.6483 18.9786 20.6483 19.5644 20.0625C20.1502 19.4767 20.1502 18.5269 19.5644 17.9412L16.5611 14.9379C16.1685 14.5452 15.6123 14.4158 15.1119 14.5495L14.1632 13.6008C15.3104 12.2162 16 10.4386 16 8.5C16 4.08172 12.4183 0.5 8 0.5C3.58172 0.5 0 4.08172 0 8.5C0 12.9183 3.58172 16.5 8 16.5Z" fill="currentColor"/>
   </symbol>

   <!--  -->
</svg>