<svg width="24" height="24" viewBox="0 0 24 24" fill="none" xmlns="http://www.w3.org/2000/svg">
<path d="M21.425 19.4728L12.0918 3.60397L2.5764 19.4728H21.425ZM13.3229 2.70733L22.797 18.8156C23.3639 19.7794 22.6763 21 21.5665 21H2.43351C1.31829 21 0.631511 19.7686 1.20931 18.805L10.8682 2.69676C11.4281 1.76311 12.771 1.76889 13.3229 2.70733ZM12 14.5C11.4434 14.5 10.9999 14.0623 10.9999 13.5V9C10.9999 8.4377 11.4434 8 12 8C12.5566 8 12.9953 8.43769 12.9953 9V13.5C12.9953 14.0623 12.5566 14.5 12 14.5ZM13 17C13 17.5623 12.5566 18 12 18C11.4434 18 11 17.5623 11 17C11 16.4377 11.4434 16 12 16C12.5566 16 13 16.4377 13 17Z" fill="#E93F3F"/>
</svg>
