<svg width="24" height="18" viewBox="0 0 24 18" fill="none" xmlns="http://www.w3.org/2000/svg">
<path d="M23.1375 3.4123C22.875 2.3998 22.0875 1.6123 21.075 1.3498C19.275 0.862305 12 0.862305 12 0.862305C12 0.862305 4.725 0.862305 2.925 1.3498C1.9125 1.6123 1.125 2.3998 0.8625 3.4123C0.375 5.2498 0.375 8.99981 0.375 8.99981C0.375 8.99981 0.375 12.7873 0.8625 14.5873C1.125 15.5998 1.9125 16.3873 2.925 16.6498C4.725 17.1373 12 17.1373 12 17.1373C12 17.1373 19.275 17.1373 21.075 16.6498C22.0875 16.3873 22.875 15.5998 23.1375 14.5873C23.625 12.7873 23.625 8.99981 23.625 8.99981C23.625 8.99981 23.625 5.2498 23.1375 3.4123ZM9.675 12.4873V5.51231L15.7125 8.99981L9.675 12.4873Z" fill="#C0D3F7"/>
</svg>
