<svg width="0" height="0" style="display: none">

<symbol id="added" width="13" height="10" viewBox="0 0 17 13"   xmlns="http://www.w3.org/2000/svg">
    <path fill="currentColor" d="M11.9512 0.292893C11.5607 -0.0976312 10.9276 -0.0976309 10.537 0.292893L3.99425 6.83568L1.70708 4.5487C1.31654 4.15819 0.683373 4.15821 0.292864 4.54875C-0.097644 4.93929 -0.0976181 5.57246 0.292922 5.96297L3.2872 8.957C3.67773 9.3475 4.31087 9.34748 4.70138 8.95697L11.9512 1.70711C12.3418 1.31658 12.3418 0.683417 11.9512 0.292893Z" />
</symbol>

<symbol id="address" width="24" height="24" viewBox="0 0 24 24"  xmlns="http://www.w3.org/2000/svg">
<path fill="currentColor" d="M5.5 10C5.5 6.2139 8.39575 3.5 12 3.5C15.5896 3.5 18.5 6.41394 18.5 10C18.5 11.0788 18.1052 12.282 17.4538 13.5174C16.8065 14.745 15.9344 15.9511 15.0475 17.0215C14.1625 18.0896 13.2754 19.0075 12.6087 19.6589C12.3749 19.8873 12.1687 20.0824 12 20.2391C11.8313 20.0824 11.6251 19.8873 11.3913 19.6589C10.7246 19.0075 9.83749 18.0896 8.95251 17.0215C8.06561 15.9511 7.19353 14.745 6.54624 13.5174C5.89484 12.282 5.5 11.0788 5.5 10ZM11.1833 21.526C11.2852 21.6189 11.3658 21.6909 11.4215 21.7402C11.8121 22.0859 12.1838 22.0896 12.5785 21.7402C12.6342 21.6909 12.7148 21.6189 12.8167 21.526C13.0206 21.3402 13.3102 21.0706 13.6569 20.7318C14.3496 20.055 15.275 19.0979 16.2025 17.9785C17.1281 16.8614 18.0685 15.5675 18.7806 14.217C19.4886 12.8743 20 11.4212 20 10C20 5.58606 16.4186 2 12 2C7.59612 2 4 5.35697 4 10C4 11.4212 4.51141 12.8743 5.21938 14.217C5.93146 15.5675 6.87189 16.8614 7.79748 17.9785C8.72501 19.0979 9.65041 20.055 10.3431 20.7318C10.6898 21.0706 10.9794 21.3402 11.1833 21.526ZM10 10C10 8.89543 10.8954 8 12 8C13.1046 8 14 8.89543 14 10C14 11.1046 13.1046 12 12 12C10.8954 12 10 11.1046 10 10ZM12 6.5C10.067 6.5 8.5 8.067 8.5 10C8.5 11.933 10.067 13.5 12 13.5C13.933 13.5 15.5 11.933 15.5 10C15.5 8.067 13.933 6.5 12 6.5Z" />
</symbol>

<symbol id="address_second_style" width="24" height="24" viewBox="0 0 24 24"  xmlns="http://www.w3.org/2000/svg">
<path fill="currentColor" d="M12 20.9L16.95 15.95C17.9289 14.971 18.5955 13.7237 18.8655 12.3659C19.1356 11.008 18.9969 9.6006 18.4671 8.32156C17.9373 7.04251 17.04 5.94931 15.8889 5.18017C14.7378 4.41103 13.3844 4.0005 12 4.0005C10.6156 4.0005 9.26221 4.41103 8.11108 5.18017C6.95995 5.94931 6.06275 7.04251 5.53291 8.32156C5.00308 9.6006 4.86441 11.008 5.13445 12.3659C5.40449 13.7237 6.0711 14.971 7.05 15.95L12 20.9ZM12 23.728L5.636 17.364C4.37734 16.1053 3.52018 14.5017 3.17292 12.7558C2.82567 11.01 3.0039 9.20043 3.68509 7.5559C4.36629 5.91137 5.51984 4.50577 6.99988 3.51684C8.47992 2.52792 10.22 2.00008 12 2.00008C13.78 2.00008 15.5201 2.52792 17.0001 3.51684C18.4802 4.50577 19.6337 5.91137 20.3149 7.5559C20.9961 9.20043 21.1743 11.01 20.8271 12.7558C20.4798 14.5017 19.6227 16.1053 18.364 17.364L12 23.728ZM12 13C12.5304 13 13.0391 12.7893 13.4142 12.4142C13.7893 12.0391 14 11.5304 14 11C14 10.4696 13.7893 9.96086 13.4142 9.58579C13.0391 9.21071 12.5304 9 12 9C11.4696 9 10.9609 9.21071 10.5858 9.58579C10.2107 9.96086 10 10.4696 10 11C10 11.5304 10.2107 12.0391 10.5858 12.4142C10.9609 12.7893 11.4696 13 12 13ZM12 15C10.9391 15 9.92172 14.5786 9.17157 13.8284C8.42143 13.0783 8 12.0609 8 11C8 9.93913 8.42143 8.92172 9.17157 8.17157C9.92172 7.42143 10.9391 7 12 7C13.0609 7 14.0783 7.42143 14.8284 8.17157C15.5786 8.92172 16 9.93913 16 11C16 12.0609 15.5786 13.0783 14.8284 13.8284C14.0783 14.5786 13.0609 15 12 15Z" />
</symbol>

<symbol id="arrowLeft" width="33" height="29" viewBox="0 0 33 29"  xmlns="http://www.w3.org/2000/svg">
<path fill="currentColor" d="M15.3347 1.28416C15.9275 1.87691 15.9275 2.83794 15.3347 3.43069L5.78324 12.9822H30.9575C31.7958 12.9822 32.4753 13.6617 32.4753 14.5C32.4753 15.3383 31.7958 16.0178 30.9575 16.0178H5.78324L15.3347 25.5693C15.9275 26.1621 15.9275 27.1231 15.3347 27.7158C14.742 28.3086 13.781 28.3086 13.1882 27.7158L1.04563 15.5733C0.452888 14.9805 0.452888 14.0195 1.04563 13.4267L13.1882 1.28416C13.781 0.691413 14.742 0.691413 15.3347 1.28416Z" />
</symbol>

<symbol id="arrowRight" width="33" height="29" viewBox="0 0 33 29"  xmlns="http://www.w3.org/2000/svg">
<path fill="currentColor" d="M17.7417 1.28416C17.1489 1.87691 17.1489 2.83794 17.7417 3.43069L27.2932 12.9822H2.1189C1.28063 12.9822 0.601074 13.6617 0.601074 14.5C0.601074 15.3383 1.28063 16.0178 2.1189 16.0178H27.2932L17.7417 25.5693C17.1489 26.1621 17.1489 27.1231 17.7417 27.7158C18.3344 28.3086 19.2955 28.3086 19.8882 27.7158L32.0308 15.5733C32.6235 14.9805 32.6235 14.0195 32.0308 13.4267L19.8882 1.28416C19.2955 0.691413 18.3344 0.691413 17.7417 1.28416Z" />
</symbol>

<symbol id="cart" width="20" height="21" viewBox="0 0 20 21" xmlns="http://www.w3.org/2000/svg">
   <path fill="currentColor"
      d="M2.63991 1.99707C3.22814 1.99621 3.73738 2.40559 3.86293 2.98026L6.23487 13.8368C6.51077 15.0996 7.6289 15.9998 8.9215 15.9998H14.7557C15.1699 15.9998 15.5057 15.6641 15.5057 15.2498C15.5057 14.8356 15.1699 14.4998 14.7557 14.4998H8.9215C8.33395 14.4998 7.82571 14.0907 7.7003 13.5166L7.47872 12.5024L14.4938 12.5027C15.6649 12.5027 16.7288 11.8215 17.2186 10.758L19.9067 4.92069C20.2118 4.25817 19.7277 3.50237 18.9982 3.50237L5.51239 3.50237L5.32837 2.6601C5.05214 1.39581 3.93182 0.495178 2.63771 0.497073L0.748902 0.499839C0.334689 0.500445 -0.000605656 0.836723 8.21446e-07 1.25094C0.000607358 1.66515 0.336885 2.00044 0.751098 1.99984L2.63991 1.99707ZM7.15864 11.0025L5.86913 5.0023L18.2176 5.0023L15.856 10.1304C15.6111 10.6622 15.0792 11.0028 14.4936 11.0028L7.15864 11.0025ZM10.0042 18.9998C10.0042 19.8283 9.33237 20.4998 8.5036 20.4998C7.67483 20.4998 7.00298 19.8283 7.00298 18.9998C7.00298 18.1714 7.67483 17.4998 8.5036 17.4998C9.33237 17.4998 10.0042 18.1714 10.0042 18.9998ZM14.5809 20.4998C15.4097 20.4998 16.0815 19.8283 16.0815 18.9998C16.0815 18.1714 15.4097 17.4998 14.5809 17.4998C13.7521 17.4998 13.0803 18.1714 13.0803 18.9998C13.0803 19.8283 13.7521 20.4998 14.5809 20.4998Z"
       />
</symbol>
<symbol id="cartCart" width="18" height="20" viewBox="0 0 18 20"  xmlns="http://www.w3.org/2000/svg">
    <path fill="currentColor" d="M2.77778 6.4V15.4C2.77778 17.3882 4.36965 19 6.33333 19H11.6667C13.6303 19 15.2222 17.3882 15.2222 15.4V6.4M10.7778 9.1V14.5M7.22222 9.1L7.22222 14.5M12.5556 3.7L11.3055 1.80154C10.9758 1.30078 10.4207 1 9.82634 1H8.17366C7.57925 1 7.02418 1.30078 6.69446 1.80154L5.44444 3.7M12.5556 3.7H5.44444M12.5556 3.7H17M5.44444 3.7H1" stroke="#E93F3F" stroke-width="1.5" stroke-linecap="round" stroke-linejoin="round"/>
</symbol>

<symbol id="cartPlus" width="10" height="10" viewBox="0 0 10 10"  xmlns="http://www.w3.org/2000/svg">
<path fill="currentColor" d="M5 0C5.41421 0 5.75 0.335786 5.75 0.75V4.25L9.25 4.25C9.66421 4.25 10 4.58579 10 5C10 5.41421 9.66421 5.75 9.25 5.75H5.75V9.25C5.75 9.66421 5.41421 10 5 10C4.58579 10 4.25 9.66421 4.25 9.25L4.25 5.75H0.75C0.335786 5.75 0 5.41421 0 5C0 4.58579 0.335786 4.25 0.75 4.25L4.25 4.25L4.25 0.75C4.25 0.335786 4.58579 0 5 0Z"  fill-opacity="0.3"/>
</symbol>

<symbol id="chat" width="24" height="24" viewBox="0 0 24 24"  xmlns="http://www.w3.org/2000/svg">
<path fill="currentColor" d="M1 12C1 5.92487 5.92487 1 12 1C18.0751 1 23 5.92487 23 12V22.047C23 22.5733 22.5733 23 22.047 23H14C13.5858 23 13.25 22.6642 13.25 22.25C13.25 21.8358 13.5858 21.5 14 21.5H21.5V17.4874C20.5688 18.4218 19.2805 19 17.8571 19C17.3838 19 17 18.6162 17 18.1429V8.85714C17 8.38376 17.3838 8 17.8571 8C19.0652 8 20.1759 8.41652 21.0536 9.11378C19.832 5.27824 16.2404 2.5 12 2.5C7.75958 2.5 4.16805 5.27824 2.94637 9.11377C3.82407 8.41652 4.93482 8 6.14286 8C6.61624 8 7 8.38376 7 8.85714V18.1429C7 18.6162 6.61624 19 6.14286 19C3.37981 19 1.12568 16.821 1.00508 14.0877C1.00172 14.059 1 14.0297 1 14V12ZM21.5 13.1429C21.5 11.3503 20.2053 9.86017 18.5 9.55654V17.4435C20.2053 17.1398 21.5 15.6497 21.5 13.8571V13.1429ZM2.5 13.8571C2.5 15.6497 3.79471 17.1398 5.5 17.4435V9.55654C3.79471 9.86017 2.5 11.3503 2.5 13.1429V13.8571Z" />
</symbol>

<symbol id="checked" width="17" height="14" viewBox="0 0 17 14"  xmlns="http://www.w3.org/2000/svg">
<path fill="currentColor" d="M16.5027 0.990159C16.8932 1.38068 16.8932 2.01385 16.5027 2.40437L5.89609 13.011C5.70855 13.1985 5.4542 13.3039 5.18898 13.3039C4.92377 13.3039 4.66941 13.1985 4.48188 13.011L0.496994 9.02609C0.10647 8.63556 0.106471 8.0024 0.496995 7.61187C0.88752 7.22135 1.52068 7.22135 1.91121 7.61187L5.18898 10.8897L15.0885 0.990159C15.479 0.599635 16.1122 0.599635 16.5027 0.990159Z" />
</symbol>

<symbol id="chili" width="22" height="24" viewBox="0 0 22 24"  xmlns="http://www.w3.org/2000/svg">
<g clip-path="url(#clip0_2187_9731)">
<path fill="currentColor" d="M21.045 6.12557C20.8517 5.90407 20.673 5.66989 20.4876 5.44164C20.4283 5.48567 20.453 5.45812 20.4817 5.43543C21.0664 4.97327 21.4372 4.37092 21.6446 3.66268C21.8877 2.83236 21.8674 1.99177 21.7513 1.14469C21.7077 0.827041 21.6405 0.53721 21.3222 0.380005H21.0038C20.6232 0.60771 20.5778 0.732502 20.6303 1.17711C20.679 1.58903 20.7356 2.00662 20.7183 2.41854C20.6758 3.42417 20.3769 4.31122 19.3999 4.81039C19.322 4.8501 19.2018 4.85901 19.1192 4.83011C18.0932 4.47275 17.1065 4.55675 16.1577 5.07807C15.3997 5.49458 14.7923 6.08019 14.3055 6.78788C14.1891 6.95724 14.0952 7.15875 14.0513 7.35863C13.4355 10.16 12.2449 12.6917 10.4485 14.928C7.83137 18.1861 4.51388 20.4842 0.619801 21.9752C0.317154 22.0911 0.156355 22.2953 0.174763 22.5568C0.193442 22.8228 0.364798 23.0106 0.689914 23.0767C1.40863 23.2231 2.12546 23.3922 2.85149 23.4892C5.42859 23.8336 7.9272 23.4933 10.3457 22.5549C12.5844 21.6862 14.5538 20.3867 16.3109 18.7657C18.1038 17.1121 19.6636 15.2697 20.7545 13.0699C21.3685 11.832 21.8758 10.5557 21.9835 9.15893C22.071 8.02689 21.8076 6.99938 21.0447 6.12557H21.045ZM20.1121 11.8282C19.4118 13.4921 18.3902 14.9488 17.2023 16.2953C15.5903 18.1226 13.74 19.6566 11.5717 20.7905C9.11315 22.0765 6.50194 22.6656 3.72451 22.4752C3.40752 22.4533 3.09187 22.4079 2.77596 22.3717C2.74727 22.3685 2.7202 22.352 2.67039 22.3337C3.11732 22.1043 3.55099 21.8926 3.97464 21.6627C6.72635 20.1687 9.1478 18.2685 11.1367 15.8396C12.9509 13.6239 14.2257 11.1337 14.9498 8.36426C14.9666 8.2997 14.9872 8.23595 15.0107 8.15546C15.6425 8.28403 16.2495 8.34616 16.8902 8.18436C16.8659 8.4045 16.8458 8.60439 16.8215 8.80373C16.7901 9.06142 16.8328 9.29209 17.0743 9.43579C17.3109 9.57652 17.5334 9.52088 17.7549 9.37745C18.1349 9.13111 18.5228 8.89638 18.9297 8.64301C19.3103 9.31262 19.6955 9.95954 19.836 10.7159C19.8469 10.7747 19.8563 10.8377 19.8479 10.8958C19.8025 11.2031 19.917 11.4268 20.2134 11.5775C20.1785 11.6645 20.1471 11.7469 20.1127 11.8279L20.1121 11.8282ZM20.7608 9.83286C20.7269 9.75426 20.7072 9.69672 20.6787 9.64405C20.3141 8.96688 19.9619 8.28241 19.5772 7.61659C19.3875 7.28813 19.0889 7.24626 18.7551 7.44506C18.5291 7.57985 18.3079 7.72247 18.0559 7.87914C18.0694 7.60875 18.0881 7.3724 18.0903 7.13552C18.0916 6.9856 18.0762 6.83407 18.0551 6.68524C18.0199 6.43511 17.8583 6.30924 17.6195 6.25684C17.3856 6.20552 17.195 6.27494 17.0581 6.46024C16.9741 6.57368 16.9371 6.72143 16.8529 6.83488C16.7722 6.94374 16.6739 7.07258 16.5556 7.11499C16.2048 7.24032 15.8442 7.179 15.4777 7.10959C16.3835 5.90948 17.7023 5.3941 18.9143 5.94567C20.6316 6.72711 21.1682 8.04363 20.7605 9.83259L20.7608 9.83286Z" />
<path d="M15.3649 12.9521C15.0538 12.8602 14.7826 13.018 14.6629 13.3562C14.5874 13.5695 14.5165 13.7854 14.4266 13.9928C13.6356 15.8163 12.4023 17.2971 10.8612 18.5326C10.4546 18.8586 10.0157 19.1447 9.59372 19.452C9.37336 19.6128 9.29432 19.8532 9.37526 20.0914C9.4497 20.311 9.65869 20.4585 9.96621 20.4596C10.0163 20.4393 10.137 20.4112 10.235 20.348C11.8495 19.3065 13.2404 18.0291 14.3332 16.443C14.9236 15.5865 15.4158 14.6784 15.7208 13.6792C15.824 13.3418 15.6662 13.0409 15.3649 12.9521Z" />
</g>
<defs>
<clipPath >
<rect width="21.8261" height="23.2407"  transform="translate(0.173828 0.379639)"/>
</clipPath>
</defs>
</symbol>

<symbol id="close" width="16" height="16" viewBox="0 0 16 16"  xmlns="http://www.w3.org/2000/svg">
    <path fill="currentColor" d="M3.46976 3.46967C3.76265 3.17678 4.23753 3.17678 4.53042 3.46967L8.00005 6.9393L11.4697 3.46969C11.7626 3.17679 12.2374 3.17679 12.5303 3.46969C12.8232 3.76258 12.8232 4.23745 12.5303 4.53035L9.06071 7.99996L12.5304 11.4697C12.8233 11.7626 12.8233 12.2374 12.5304 12.5303C12.2375 12.8232 11.7627 12.8232 11.4698 12.5303L8.00005 9.06062L4.53033 12.5303C4.23744 12.8232 3.76256 12.8232 3.46967 12.5303C3.17678 12.2375 3.17678 11.7626 3.46967 11.4697L6.93939 7.99996L3.46976 4.53033C3.17687 4.23744 3.17687 3.76256 3.46976 3.46967Z" />
</symbol>

<symbol id="countryRu" width="12" height="9" viewBox="0 0 12 9"  xmlns="http://www.w3.org/2000/svg">
<rect width="12" height="3" />
<rect y="3" width="12" height="3" />
<rect y="6" width="12" height="3" />
</symbol>

<symbol id="credit_card" width="24" height="24" viewBox="0 0 24 24"  xmlns="http://www.w3.org/2000/svg">
<path fill="currentColor" d="M0 6.5C0 5.70435 0.316071 4.94129 0.87868 4.37868C1.44129 3.81607 2.20435 3.5 3 3.5H21C21.7956 3.5 22.5587 3.81607 23.1213 4.37868C23.6839 4.94129 24 5.70435 24 6.5V18.5C24 19.2956 23.6839 20.0587 23.1213 20.6213C22.5587 21.1839 21.7956 21.5 21 21.5H3C2.20435 21.5 1.44129 21.1839 0.87868 20.6213C0.316071 20.0587 0 19.2956 0 18.5V6.5ZM3 5C2.60218 5 2.22064 5.15804 1.93934 5.43934C1.65804 5.72064 1.5 6.10218 1.5 6.5V8H22.5V6.5C22.5 6.10218 22.342 5.72064 22.0607 5.43934C21.7794 5.15804 21.3978 5 21 5H3ZM22.5 11H1.5V18.5C1.5 18.8978 1.65804 19.2794 1.93934 19.5607C2.22064 19.842 2.60218 20 3 20H21C21.3978 20 21.7794 19.842 22.0607 19.5607C22.342 19.2794 22.5 18.8978 22.5 18.5V11Z" />
</symbol>

<symbol id="delete" width="24" height="24" viewBox="0 0 24 24"  xmlns="http://www.w3.org/2000/svg">
<path fill="currentColor" d="M14 3.4964C14.2761 3.4964 14.5 3.71972 14.5 3.9952V4.9928H9.5V3.9952C9.5 3.71972 9.72386 3.4964 10 3.4964H14ZM8 3.9952V4.9928H3.75C3.33579 4.9928 3 5.32778 3 5.741C3 6.15422 3.33579 6.4892 3.75 6.4892H5V20.0048C5 21.1067 5.89543 22 7 22H17C18.1046 22 19 21.1067 19 20.0048V6.4892H20.25C20.6642 6.4892 21 6.15422 21 5.741C21 5.32778 20.6642 4.9928 20.25 4.9928H16V3.9952C16 2.89328 15.1046 2 14 2H10C8.89543 2 8 2.89328 8 3.9952ZM17.5 6.4892V20.0048C17.5 20.2803 17.2761 20.5036 17 20.5036H7C6.72386 20.5036 6.5 20.2803 6.5 20.0048V6.4892H17.5ZM13.5 8.73381L13.5 18.211C13.5 18.6242 13.8358 18.9592 14.25 18.9592C14.6642 18.9592 15 18.6242 15 18.211L15 8.73381C15 8.32059 14.6642 7.98561 14.25 7.98561C13.8358 7.98561 13.5 8.32059 13.5 8.73381ZM9 18.211V8.73381C9 8.32059 9.33579 7.98561 9.75 7.98561C10.1642 7.98561 10.5 8.32059 10.5 8.73381V18.211C10.5 18.6242 10.1642 18.9592 9.75 18.9592C9.33579 18.9592 9 18.6242 9 18.211Z" />
</symbol>

<symbol id="heart" width="24" height="24" viewBox="0 0 24 24"  xmlns="http://www.w3.org/2000/svg">
    <path fill="currentColor" d="M2 9.13734C2 14.0003 6.01943 16.5917 8.96173 18.9111C10 19.7296 11 20.5002 12 20.5002C13 20.5002 14 19.7296 15.0383 18.9111C17.9806 16.5917 22 14.0003 22 9.13734C22 4.27441 16.4998 0.825708 12 5.50088C7.50016 0.825708 2 4.27441 2 9.13734Z" />
</symbol>

<symbol id="heartoutline" width="20" height="18" viewBox="0 0 20 18"  xmlns="http://www.w3.org/2000/svg">
   <mask  >
      <path fill="currentColor"
         d="M0 6.1371C0 11 4.01943 13.5914 6.96173 15.9109C8 16.7294 9 17.5 10 17.5C11 17.5 12 16.7294 13.0383 15.9109C15.9806 13.5914 20 11 20 6.1371C20 1.27416 14.4998 -2.17454 10 2.50063C5.50016 -2.17454 0 1.27416 0 6.1371Z" />
   </mask>
   <path
      d="M6.96173 15.9109L6.0331 17.0889H6.03311L6.96173 15.9109ZM10 2.50063L8.91927 3.54083C9.20204 3.83462 9.59223 4.00063 10 4.00063C10.4078 4.00063 10.798 3.83462 11.0807 3.54083L10 2.50063ZM13.0383 15.9109L12.1096 14.7329L13.0383 15.9109ZM7.89036 14.7329C6.3302 13.503 4.75599 12.3971 3.49907 10.9818C2.29358 9.62433 1.5 8.10043 1.5 6.1371H-1.5C-1.5 9.0367 -0.283864 11.24 1.25593 12.9738C2.7443 14.6498 4.65096 15.9993 6.0331 17.0889L7.89036 14.7329ZM1.5 6.1371C1.5 4.26683 2.5557 2.73732 3.93615 2.10631C5.22206 1.51852 7.05324 1.6021 8.91927 3.54083L11.0807 1.46043C8.44692 -1.27601 5.2781 -1.80566 2.68897 -0.622156C0.194385 0.518124 -1.5 3.14443 -1.5 6.1371H1.5ZM6.03311 17.0889C6.53844 17.4872 7.12866 17.9511 7.73843 18.3075C8.34772 18.6635 9.1192 19 10 19V16C9.8808 16 9.65228 15.9512 9.252 15.7173C8.85221 15.4837 8.42329 15.153 7.89036 14.7329L6.03311 17.0889ZM13.9669 17.0889C15.349 15.9993 17.2557 14.6498 18.7441 12.9738C20.2839 11.24 21.5 9.0367 21.5 6.1371H18.5C18.5 8.10043 17.7064 9.62433 16.5009 10.9818C15.244 12.3971 13.6698 13.503 12.1096 14.7329L13.9669 17.0889ZM21.5 6.1371C21.5 3.14443 19.8056 0.518124 17.311 -0.622156C14.7219 -1.80566 11.5531 -1.27601 8.91927 1.46043L11.0807 3.54083C12.9468 1.6021 14.7779 1.51852 16.0638 2.10631C17.4443 2.73732 18.5 4.26683 18.5 6.1371H21.5ZM12.1096 14.7329C11.5767 15.153 11.1478 15.4837 10.748 15.7173C10.3477 15.9512 10.1192 16 10 16V19C10.8808 19 11.6523 18.6635 12.2616 18.3075C12.8713 17.9511 13.4616 17.4872 13.9669 17.0889L12.1096 14.7329Z"
       mask="url(#path-1-inside-1_2223_1190)" />
</symbol>
<symbol id="iconData" width="18" height="21" viewBox="0 0 18 21"  xmlns="http://www.w3.org/2000/svg">
<path fill="currentColor" d="M5.25 1.25C5.25 0.835786 4.91421 0.5 4.5 0.5C4.08579 0.5 3.75 0.835786 3.75 1.25V2.5H3.25C1.45507 2.5 0 3.95507 0 5.75V17.25C0 19.0449 1.45507 20.5 3.25 20.5H14.75C16.5449 20.5 18 19.0449 18 17.25V5.75C18 3.95507 16.5449 2.5 14.75 2.5H14.25V1.25C14.25 0.835786 13.9142 0.5 13.5 0.5C13.0858 0.5 12.75 0.835786 12.75 1.25V2.5H5.25V1.25ZM3.25 4H14.75C15.7165 4 16.5 4.7835 16.5 5.75V7H1.5V5.75C1.5 4.7835 2.2835 4 3.25 4ZM16.5 8.5V17.25C16.5 18.2165 15.7165 19 14.75 19H3.25C2.2835 19 1.5 18.2165 1.5 17.25V8.5H16.5ZM3.25 11C3.25 10.7239 3.47386 10.5 3.75 10.5H5.75C6.02614 10.5 6.25 10.7239 6.25 11V13C6.25 13.2761 6.02614 13.5 5.75 13.5H3.75C3.47386 13.5 3.25 13.2761 3.25 13V11ZM8 10.5C7.72386 10.5 7.5 10.7239 7.5 11V13C7.5 13.2761 7.72386 13.5 8 13.5H10C10.2761 13.5 10.5 13.2761 10.5 13V11C10.5 10.7239 10.2761 10.5 10 10.5H8ZM12 11C12 10.7239 12.2239 10.5 12.5 10.5H14.5C14.7761 10.5 15 10.7239 15 11V13C15 13.2761 14.7761 13.5 14.5 13.5H12.5C12.2239 13.5 12 13.2761 12 13V11Z" />
</symbol>

<symbol id="logo" width="96" height="96" viewBox="0 0 96 96"  xmlns="http://www.w3.org/2000/svg">
<g clip-path="url(#clip0_3038_8868)">
<path fill="currentColor" d="M52.8278 9.50976C52.6022 14.3222 48.6298 18.1536 43.7616 18.1536C38.8934 18.1536 34.6848 14.0899 34.6848 9.0768C34.6848 7.24128 35.2301 5.53248 36.168 4.104L23.5162 0L0 72.4838L44.8378 87.0307C44.951 84.6864 46.8883 82.8202 49.2614 82.8202C51.6346 82.8202 53.6899 84.8026 53.6899 87.2486C53.6899 88.1424 53.425 88.9738 52.9699 89.6688L72.4838 96L96 23.5162L52.8278 9.50976ZM32.4259 77.3501C30.7258 77.3501 29.3482 75.9715 29.3482 74.2723C29.3482 72.5731 30.7267 71.1946 32.4259 71.1946C34.1251 71.1946 35.5037 72.5731 35.5037 74.2723C35.5037 75.9715 34.1251 77.3501 32.4259 77.3501ZM64.9162 84.1094C60.8966 84.1094 57.6374 80.8512 57.6374 76.8307C57.6374 72.8102 60.8957 69.552 64.9162 69.552C68.9366 69.552 72.1949 72.8102 72.1949 76.8307C72.1949 80.8512 68.9366 84.1094 64.9162 84.1094Z" />
<path d="M16.0079 42.0366C15.908 41.594 15.7679 41.3243 13.4879 39.5521C12.4088 38.714 11.1071 37.7483 10.3218 37.2039C5.67732 33.986 5.39316 32.907 5.48916 31.6283C5.61588 29.9588 6.76404 26.6843 8.92404 24.6289C11.5122 22.1655 14.9116 21.4302 17.1916 22.8385C19.0367 23.979 20.2636 26.7755 19.0405 29.9156C17.6591 33.4619 15.1247 34.1953 14.9941 34.2308C14.372 34.3902 13.9928 35.0219 14.1474 35.6468C14.3029 36.2747 14.9365 36.6577 15.5653 36.5031C15.7199 36.4647 19.3746 35.5134 21.2236 30.7662C21.8898 29.0545 22.0328 27.1508 21.6239 25.4065C21.1612 23.4308 20.0543 21.8535 18.4232 20.8455C15.238 18.8775 10.6674 19.7348 7.30932 22.9316C4.55316 25.5543 3.29748 29.5499 3.15348 31.4516C2.9538 34.0993 4.31604 35.8935 8.9874 39.1297C10.3314 40.0609 12.7861 41.9358 13.6396 42.6923C13.4264 43.3844 12.7026 44.8398 11.4844 45.6567C10.6156 46.2395 9.69492 46.3575 8.66868 46.0148C5.98548 45.1211 6.45108 41.6871 6.4722 41.546C6.57012 40.9067 6.1314 40.3086 5.49204 40.2107C4.85268 40.1118 4.2546 40.5515 4.15668 41.1908C3.86484 43.0964 4.27764 47.0219 7.92948 48.2382C8.54388 48.4427 9.15636 48.5435 9.75828 48.5435C11.1234 48.5435 12.428 48.0222 13.5493 47.0075C15.2245 45.4907 16.2469 43.0897 16.0088 42.0375L16.0079 42.0366Z" />
<path d="M17.9239 40.2776C17.6513 41.5804 17.7281 43.6616 18.8427 45.237C19.6692 46.4053 20.9499 47.1359 22.5454 47.348C22.867 47.3912 23.179 47.4104 23.4804 47.4104C26.5735 47.4104 28.6251 45.358 28.7191 45.262C29.1703 44.8021 29.1627 44.0668 28.7057 43.6127C28.2487 43.1586 27.5076 43.1624 27.0516 43.6165C26.9806 43.6876 25.2833 45.3484 22.8555 45.0248C21.8955 44.8962 21.2091 44.5228 20.7559 43.8824C20.0993 42.9541 20.082 41.6706 20.1819 40.965L28.4475 42.068C29.0532 42.1496 29.6196 41.7503 29.7483 41.1532C29.802 40.9007 30.2407 38.638 29.0148 36.788C28.3083 35.7224 27.2254 35.0437 25.7959 34.7701C21.0535 33.8648 18.4932 37.5666 17.9259 40.2757L17.9239 40.2776ZM25.3543 37.0741C26.1473 37.2258 26.7041 37.5532 27.0535 38.0754C27.3655 38.542 27.4807 39.1026 27.5115 39.5816L21.114 38.7272C21.8571 37.6607 23.1569 36.6546 25.3543 37.0741Z" />
<path d="M23.1715 48.9782C16.0733 48.6518 12.7593 52.9286 12.6211 53.111C12.2304 53.6275 12.3331 54.3619 12.8486 54.7517C13.3651 55.1414 14.0995 55.0397 14.4893 54.5241C14.5152 54.4896 17.1888 51.0509 23.063 51.3187C25.3641 51.4243 27.1372 52.1049 28.1904 53.2877C29.0054 54.2025 29.3846 55.4342 29.2867 56.8502C29.1763 58.439 28.2787 59.8809 26.8233 60.8064C25.7856 61.4649 23.639 62.3597 20.4787 61.3862L22.3219 54.2736C22.4841 53.6477 22.1078 53.0083 21.4819 52.8461C20.856 52.6838 20.2166 53.0601 20.0544 53.6861L15.6009 70.871C15.4387 71.4969 15.815 72.1363 16.4409 72.2985C16.5398 72.3245 16.6387 72.336 16.7357 72.336C17.2569 72.336 17.7321 71.9856 17.8685 71.4585L19.8912 63.6547C21.0048 63.984 22.1126 64.1472 23.183 64.1472C24.9715 64.1472 26.6553 63.6902 28.08 62.7849C30.1699 61.4573 31.4621 59.3529 31.6243 57.0134C31.7673 54.9542 31.1846 53.1273 29.9405 51.7305C28.4573 50.0659 26.1168 49.1155 23.1715 48.9792V48.9782Z" />
<path d="M36.695 40.8058C36.7008 40.8125 36.7056 40.8192 36.7113 40.8259C36.8976 41.0448 41.2905 46.2125 43.5571 47.7629C43.7596 47.9011 43.9891 47.9674 44.2176 47.9674C44.591 47.9674 44.9587 47.7888 45.1852 47.4567C45.551 46.9229 45.4137 46.1933 44.88 45.8285C43.5897 44.9463 41.1974 42.3773 39.6211 40.6003C40.3747 40.4083 41.087 40.1059 41.735 39.6941C43.5139 38.5642 44.6121 36.7719 44.7513 34.7779C44.8646 33.1488 44.2713 31.5514 43.0819 30.2823C41.7033 28.8106 39.6412 27.9351 37.559 27.9351H37.5292C31.6339 27.9591 28.8633 31.2471 28.7481 31.3872C28.3372 31.8864 28.4092 32.6256 28.9084 33.0365C29.4076 33.4474 30.1468 33.3754 30.5577 32.8762C30.5788 32.8503 32.7321 30.2986 37.5388 30.2794H37.56C39.0048 30.2794 40.4294 30.8784 41.3721 31.8855C42.1113 32.6746 42.4809 33.6442 42.4137 34.6176C42.3273 35.8618 41.6227 36.9917 40.4784 37.7184C39.1065 38.5901 37.3516 38.7504 35.4787 38.1898L37.0022 33.3821C37.1971 32.7658 36.8563 32.1072 36.239 31.9114C35.6217 31.7165 34.9641 32.0583 34.7683 32.6746L30.0364 47.6122C29.8416 48.2285 30.1823 48.8871 30.7996 49.0829C30.9177 49.1203 31.0368 49.1376 31.1539 49.1376C31.6511 49.1376 32.112 48.8189 32.2704 48.3197L34.7721 40.4218C35.4182 40.6157 36.0624 40.7443 36.696 40.8058H36.695Z" />
<path d="M52.3889 46.9526C52.6615 46.9805 52.9265 46.9929 53.1847 46.9929C56.5246 46.9929 58.6625 44.8387 58.7585 44.7398C58.9207 44.5728 59.0302 44.3606 59.0714 44.1321L59.8193 40.008C59.9287 39.407 59.5572 38.8224 58.9668 38.6669L53.6215 37.2518C52.9956 37.0867 52.3543 37.4592 52.1892 38.0841C52.0231 38.7101 52.3966 39.3513 53.0215 39.5165L57.3204 40.655L56.8366 43.32C56.2615 43.7913 54.7265 44.8349 52.625 44.6217C51.3396 44.4912 50.2346 43.9219 49.5137 43.0195C48.7841 42.1056 48.4884 40.8864 48.6583 39.4925C48.8542 37.8902 49.6423 34.1376 52.7316 33.9101C55.9735 33.6691 57.9665 35.7379 58.0558 35.8329C58.4945 36.3053 59.2327 36.3341 59.707 35.8982C60.1831 35.4605 60.2138 34.7193 59.7761 34.2432C59.6638 34.1213 56.969 31.2499 52.5588 31.5744C49.2132 31.8201 46.8852 34.6752 46.3313 39.2102C46.0836 41.2435 46.5502 43.0665 47.682 44.4835C48.7994 45.8822 50.4708 46.7597 52.387 46.9545L52.3889 46.9526Z" />
<path d="M36.1389 52.8344C35.5101 52.6952 34.8813 53.0927 34.7411 53.7243L32.4534 64.0117C32.3132 64.6434 32.7107 65.2693 33.3433 65.4095C33.4288 65.4287 33.5142 65.4373 33.5987 65.4373C34.1353 65.4373 34.6201 65.0658 34.7411 64.5195L37.0288 54.2322C37.1689 53.6005 36.7715 52.9746 36.1389 52.8344Z" />
<path d="M35.8538 48.2612L35.4477 50.114C35.3095 50.7457 35.7098 51.3706 36.3415 51.5089C36.426 51.5271 36.5104 51.5358 36.593 51.5358C37.1316 51.5358 37.6164 51.1623 37.7364 50.6151L38.1424 48.7623C38.2807 48.1306 37.8804 47.5057 37.2487 47.3674C36.617 47.2282 35.992 47.6295 35.8538 48.2612Z" />
<path d="M61.4639 46.9652C61.5494 46.9844 61.6348 46.993 61.7193 46.993C62.2559 46.993 62.7407 46.6215 62.8617 46.0753L65.1494 35.7879C65.2895 35.1562 64.8921 34.5303 64.2595 34.3901C63.6287 34.2509 63.0019 34.6474 62.8617 35.2791L60.574 45.5665C60.4339 46.1981 60.8313 46.8241 61.4639 46.9642V46.9652Z" />
<path d="M64.4621 33.0652C64.5466 33.0835 64.631 33.0921 64.7136 33.0921C65.2522 33.0921 65.737 32.7187 65.857 32.1715L66.263 30.3187C66.4013 29.686 66.001 29.062 65.3693 28.9238C64.7376 28.7855 64.1126 29.1859 63.9744 29.8175L63.5683 31.6703C63.4301 32.302 63.8304 32.927 64.4621 33.0652Z" />
<path d="M76.2653 32.67C74.4509 32.0652 72.4234 32.3302 70.5562 33.416C68.4231 34.6563 66.8237 36.8134 66.3811 39.0444C66.0547 40.6908 66.3917 42.3651 67.3306 43.759C68.2685 45.152 69.696 46.0937 71.3501 46.4115C71.8032 46.4988 72.2592 46.5411 72.7133 46.5411C74.2291 46.5411 75.7287 46.062 77.04 45.1424C78.8333 43.8848 80.0496 41.9811 80.377 39.919C80.8916 36.6828 79.1616 33.6339 76.2653 32.6691V32.67ZM78.0624 39.5523C77.8368 40.9692 76.9517 42.342 75.6941 43.2243C74.5123 44.0528 73.1271 44.3686 71.7908 44.1104C70.754 43.9116 69.8602 43.3212 69.2727 42.4496C68.6852 41.5769 68.474 40.5296 68.6784 39.4995C68.9943 37.9078 70.1645 36.3536 71.7331 35.4406C72.5808 34.9481 73.4583 34.6956 74.2935 34.6956C74.7178 34.6956 75.1306 34.76 75.5232 34.8915C77.5671 35.5721 78.3476 37.7504 78.0615 39.5504L78.0624 39.5523Z" />
<path d="M50.1984 61.9642C50.0986 61.3248 49.4976 60.889 48.8602 60.9878L40.8586 62.2406L49.9556 50.88C50.2551 50.5066 50.2964 49.9891 50.0612 49.5725C49.826 49.1558 49.3594 48.9235 48.8861 48.9869L40.01 50.1658C39.3687 50.2512 38.9175 50.8397 39.0029 51.481C39.0884 52.1222 39.6768 52.5725 40.3181 52.488L46.3018 51.6931L37.1415 63.1325C36.8391 63.5098 36.7997 64.0339 37.0426 64.4525C37.2538 64.8173 37.6426 65.0362 38.0554 65.0362C38.1159 65.0362 38.1764 65.0314 38.2368 65.0218L49.2212 63.3024C49.8605 63.2026 50.2973 62.6026 50.1975 61.9642H50.1984Z" />
<path d="M63.2147 62.8916L52.744 64.7368L63.1763 51.7412C63.4826 51.3601 63.52 50.8283 63.2694 50.4078C63.0198 49.9883 62.535 49.7675 62.0531 49.8548L52.0029 51.6856C51.3664 51.8017 50.944 52.4113 51.0602 53.0478C51.1763 53.6843 51.784 54.1057 52.4224 53.9905L59.3843 52.7224L48.9693 65.6968C48.664 66.0769 48.6266 66.6068 48.8742 67.0273C49.0874 67.3873 49.4733 67.6024 49.8822 67.6024C49.9494 67.6024 50.0176 67.5966 50.0858 67.5851L63.6218 65.1995C64.2592 65.0872 64.6845 64.4795 64.5722 63.842C64.4598 63.2056 63.8531 62.7812 63.2147 62.8916Z" />
<path d="M76.227 55.5014C76.2145 55.4774 76.202 55.4524 76.1886 55.4294L72.7729 49.054C72.5876 48.7075 72.2391 48.4771 71.8475 48.4406C71.4548 48.4041 71.0718 48.5673 70.826 48.8745L62.5047 59.2627C62.1006 59.7676 62.1812 60.5049 62.6871 60.9091C62.9031 61.0819 63.1614 61.1664 63.4187 61.1664C63.7623 61.1664 64.1022 61.0166 64.3335 60.7276L66.5915 57.9081L74.5086 57.2534L75.5895 59.2723C75.8948 59.8425 76.6043 60.0575 77.1755 59.7513C77.7457 59.446 77.9607 58.7356 77.6545 58.1654L76.227 55.5004V55.5014ZM68.6084 55.391L71.546 51.7238L73.3028 55.0022L68.6094 55.39L68.6084 55.391Z" />
</g>
<defs>
<clipPath >
<rect width="96" height="96" />
</clipPath>
</defs>
</symbol>

<symbol id="mail" width="20" height="16" viewBox="0 0 20 16"  xmlns="http://www.w3.org/2000/svg">
<path fill="currentColor" d="M4.41598 4.37595L9.72261 7.9137C9.89056 8.02567 10.1094 8.02567 10.2773 7.9137L15.5839 4.37595C15.9286 4.14619 16.3942 4.23932 16.624 4.58396C16.8538 4.92861 16.7606 5.39426 16.416 5.62403L10.6933 9.43913C10.2735 9.71904 9.72646 9.71904 9.30658 9.43913L3.58393 5.62403C3.23929 5.39426 3.14616 4.92861 3.37592 4.58396C3.60568 4.23932 4.07134 4.14619 4.41598 4.37595Z" />
<path d="M0 3C0 1.34315 1.34315 0 3 0H17C18.6569 0 20 1.34315 20 3V13C20 14.6569 18.6569 16 17 16H3C1.34315 16 0 14.6569 0 13V3ZM3 1.5C2.17157 1.5 1.5 2.17157 1.5 3V13C1.5 13.8284 2.17157 14.5 3 14.5H17C17.8284 14.5 18.5 13.8284 18.5 13V3C18.5 2.17157 17.8284 1.5 17 1.5H3Z" />
</symbol>

<symbol id="mapPin" width="80" height="95" viewBox="0 0 80 95"  xmlns="http://www.w3.org/2000/svg">
<g filter="url(#filter0_f_1142_17237)">
<ellipse cx="40.0002" cy="87.7698" rx="11.6667" ry="4.23077"  fill-opacity="0.2"/>
</g>
<g filter="url(#filter1_d_1142_17237)">
<path fill="currentColor" fill-rule="evenodd" clip-rule="evenodd" d="M40 4C59.33 4 75 19.9111 75 39.5385C75 54.5874 65.7879 67.4516 52.7772 72.6344L41.9935 87.6011C41.7687 87.9144 41.4702 88.1701 41.1232 88.3467C40.7762 88.5232 40.391 88.6154 40 88.6154C39.609 88.6154 39.2238 88.5232 38.8768 88.3467C38.5298 88.1701 38.2313 87.9144 38.0065 87.6011L27.2228 72.6344C14.2121 67.4516 5 54.5874 5 39.5385C5 19.9111 20.67 4 40 4Z" />
</g>
<path d="M68.3332 39.5388C68.3332 23.65 55.6479 10.7695 39.9998 10.7695C24.3518 10.7695 11.6665 23.65 11.6665 39.5388C11.6665 55.4276 24.3518 68.308 39.9998 68.308C55.6479 68.308 68.3332 55.4276 68.3332 39.5388Z" />
<g clip-path="url(#clip0_1142_17237)">
<path d="M22.0835 40.9656C21.739 40.9656 21.3917 40.9059 21.0388 40.7836C18.955 40.0726 18.7281 37.7946 18.899 36.6911C18.955 36.3214 19.2995 36.0683 19.6636 36.1252C20.0277 36.1821 20.277 36.5319 20.221 36.9016C20.2098 36.9841 19.9381 38.9748 21.4673 39.4953C22.0527 39.6943 22.5793 39.6289 23.075 39.2933C23.7725 38.8213 24.187 37.9794 24.3102 37.5784C23.8229 37.1376 22.4252 36.0484 21.6606 35.5052C18.9998 33.6197 18.2268 32.5788 18.3444 31.0431C18.4312 29.9396 19.1538 27.6275 20.7335 26.1116C22.6577 24.2659 25.2681 23.7768 27.0831 24.9257C28.013 25.5144 28.6403 26.4302 28.9008 27.5763C29.1305 28.5887 29.0465 29.6922 28.6628 30.6819C27.5984 33.4291 25.509 33.9752 25.4222 33.9979C25.0636 34.0861 24.7023 33.8643 24.6127 33.4974C24.5259 33.1334 24.7443 32.7693 25.1001 32.6783C25.1757 32.6584 26.6237 32.2375 27.4192 30.1842C28.1222 28.3669 27.4276 26.743 26.3773 26.0775C25.0777 25.2556 23.1367 25.6765 21.655 27.0985C20.4198 28.2844 19.756 30.1813 19.6804 31.1483C19.6244 31.8906 19.784 32.5162 22.428 34.3904C22.8762 34.7061 23.6156 35.2692 24.2318 35.7583C25.5314 36.7907 25.6098 36.9471 25.6658 37.203C25.8003 37.8145 25.2121 39.2023 24.2514 40.0783C23.61 40.6641 22.8622 40.9656 22.0835 40.9627" />
<path d="M28.5873 35.2951L32.2368 35.8013C32.22 35.5226 32.1556 35.1984 31.9791 34.9282C31.7803 34.6239 31.4638 34.4334 31.01 34.3452C29.7552 34.0978 29.013 34.678 28.5873 35.2951ZM29.9205 40.3346C29.7468 40.3346 29.5704 40.3232 29.3855 40.2976C28.4752 40.1725 27.7442 39.7459 27.2765 39.0662C26.6435 38.1504 26.6043 36.9446 26.7611 36.1881C27.0888 34.6183 28.5593 32.4768 31.2649 33.0114C32.0799 33.1735 32.6989 33.5688 33.0995 34.186C33.7969 35.261 33.542 36.572 33.5112 36.7171C33.4384 37.064 33.1135 37.2944 32.7662 37.2461L28.0495 36.592C27.9907 37.0015 27.9991 37.7438 28.3716 38.2841C28.6293 38.6567 29.0214 38.8728 29.5676 38.9496C30.954 39.143 31.9259 38.1817 31.9651 38.1419C32.2256 37.8803 32.6485 37.8774 32.909 38.1419C33.1695 38.4064 33.1723 38.833 32.9146 39.0975C32.8614 39.1515 31.685 40.3403 29.9205 40.3317" />
<path d="M26.0246 54.7686C25.9686 54.7686 25.9126 54.7601 25.8566 54.7459C25.5009 54.652 25.2852 54.2795 25.3804 53.9154L27.9544 43.9616C28.0469 43.5976 28.4138 43.3814 28.7723 43.4781C29.1308 43.572 29.3437 43.9446 29.2484 44.3086L26.6744 54.2624C26.596 54.5695 26.3243 54.7686 26.0246 54.7686Z" />
<path d="M34.2985 41.3489C34.2312 41.3489 34.164 41.3375 34.0968 41.3176C33.7439 41.2039 33.5506 40.8199 33.6627 40.4644L36.3935 31.8131C36.5055 31.4577 36.8836 31.2586 37.2338 31.3752C37.5867 31.4889 37.7799 31.8729 37.6679 32.2284L34.937 40.8797C34.8474 41.1697 34.5813 41.3518 34.2985 41.3518" />
<path d="M29.7192 50.0351C28.9181 50.0351 28.0835 49.8673 27.2516 49.5374C26.9071 49.4009 26.7391 49.0056 26.8735 48.6586C27.008 48.3117 27.3973 48.1382 27.739 48.2747C29.7836 49.0852 31.1644 48.5193 31.803 48.1098C32.6349 47.5751 33.1502 46.7418 33.2175 45.8204C33.2763 44.9985 33.0634 44.2846 32.5985 43.7528C31.9991 43.0646 30.988 42.6664 29.6744 42.601C26.3217 42.4361 24.7897 44.424 24.7729 44.4439C24.5488 44.7425 24.1287 44.7994 23.8346 44.5719C23.5405 44.3444 23.4845 43.9178 23.7085 43.6192C23.787 43.5139 25.6888 41.0397 29.7388 41.2445C31.4193 41.3298 32.7553 41.8843 33.5984 42.8513C34.307 43.6618 34.6347 44.7226 34.5507 45.9171C34.4526 47.2736 33.7132 48.4908 32.5172 49.2559C31.7022 49.7791 30.7387 50.0408 29.7192 50.0351Z" />
<path d="M37.9871 36.5566C37.3121 36.5566 36.6091 36.4145 35.9089 36.1386C35.5643 36.0021 35.3963 35.6068 35.5307 35.2598C35.6652 34.91 36.0517 34.7394 36.3962 34.8759C37.609 35.3565 38.7629 35.311 39.6424 34.7479C40.2978 34.3298 40.7011 33.6757 40.7515 32.9534C40.7908 32.3903 40.5835 31.8272 40.1634 31.3693C39.6256 30.7834 38.8161 30.4336 37.9899 30.4308H37.9787C35.2338 30.4308 33.9987 31.9068 33.9875 31.9239C33.7522 32.2139 33.3293 32.2538 33.0464 32.0149C32.7607 31.776 32.7215 31.3465 32.9567 31.0593C33.024 30.9797 34.6121 29.0771 37.9759 29.0742H37.9927C39.1803 29.0771 40.3566 29.589 41.1409 30.445C41.8187 31.1844 42.152 32.1087 42.0847 33.0529C42.0035 34.2075 41.3705 35.2456 40.3538 35.8969C39.662 36.3405 38.847 36.5623 37.9843 36.5595" />
<path d="M41.76 40.696C41.6311 40.696 41.4995 40.6562 41.3818 40.5766C40.0906 39.6722 37.5923 36.669 37.4858 36.541C37.2478 36.2538 37.2842 35.8272 37.5671 35.5854C37.85 35.3437 38.2701 35.3807 38.5082 35.6679C39.1972 36.4983 41.1914 38.7963 42.1381 39.4589C42.4434 39.6722 42.519 40.0959 42.3089 40.4031C42.1801 40.5936 41.97 40.6989 41.7544 40.696" />
<path d="M46.8799 40.1501C46.7314 40.1501 46.5802 40.1416 46.4261 40.1245C45.331 40.0079 44.3787 39.496 43.7457 38.6827C43.1015 37.8579 42.8382 36.8 42.9839 35.6226C43.3088 32.9948 44.642 31.3453 46.5522 31.2088C49.0702 31.0296 50.6022 32.699 50.6666 32.7701C50.9159 33.0459 50.8963 33.4754 50.6246 33.7285C50.3529 33.9816 49.93 33.9617 49.6807 33.6887C49.6303 33.6346 48.496 32.4317 46.6446 32.5653C44.8801 32.6905 44.4235 34.8661 44.3087 35.7932C44.2079 36.6009 44.3759 37.309 44.7904 37.838C45.1994 38.3641 45.8296 38.694 46.5634 38.7737C47.7622 38.9016 48.6416 38.2987 48.9693 38.0285L49.2494 36.4843L46.7959 35.816C46.4401 35.7193 46.2273 35.3467 46.3225 34.9827C46.4177 34.6215 46.7847 34.4054 47.1432 34.5021L50.1933 35.3325C50.5294 35.4235 50.7423 35.7619 50.6778 36.1117L50.2437 38.5006C50.2185 38.6343 50.1569 38.7566 50.0645 38.8533C50.0084 38.9102 48.7845 40.1558 46.8771 40.1501" />
<path d="M35.6625 50.8036C35.6149 50.8036 35.5645 50.7979 35.5169 50.7866C35.1556 50.7041 34.9315 50.3401 35.0127 49.9732L36.3375 44.0151C36.4188 43.6483 36.7773 43.4207 37.1358 43.5032C37.4971 43.5857 37.7212 43.9497 37.6399 44.3166L36.3151 50.2747C36.2451 50.5903 35.9678 50.8065 35.6597 50.8036" />
<path d="M37.3987 42.7525C37.3511 42.7525 37.3035 42.7468 37.2559 42.7354C36.8945 42.6529 36.6677 42.2917 36.7489 41.9249L36.9842 40.8499C37.0654 40.483 37.4211 40.2526 37.7824 40.3351C38.1437 40.4176 38.3706 40.7788 38.2894 41.1456L38.0541 42.2178C37.9841 42.5363 37.7068 42.7496 37.3987 42.7496" />
<path d="M51.7533 40.1669C51.7057 40.1669 51.6553 40.1612 51.6077 40.1498C51.2464 40.0674 51.0223 39.7033 51.1035 39.3365L52.4283 33.3784C52.5096 33.0115 52.8681 32.784 53.2294 32.8665C53.5907 32.949 53.8148 33.313 53.7335 33.6799L52.4087 39.6379C52.3387 39.9536 52.0614 40.1698 51.7561 40.1669" />
<path d="M58.9542 33.0626C58.478 33.0626 57.9767 33.2047 57.4893 33.4891C56.5931 34.0153 55.9209 34.914 55.7388 35.8354C55.6212 36.4326 55.7388 37.0412 56.0721 37.5475C56.4054 38.0537 56.9152 38.3978 57.5061 38.5144C58.268 38.6651 59.0606 38.486 59.7356 38.0082C60.4555 37.4991 60.9624 36.7056 61.094 35.8837C61.2621 34.84 60.8196 33.5773 59.6544 33.1792C59.4303 33.1024 59.1951 33.0654 58.9514 33.0626M58.0299 39.925C57.7694 39.925 57.5089 39.8994 57.2513 39.8482C56.3074 39.6605 55.4951 39.1116 54.9602 38.3039C54.428 37.4934 54.2375 36.5236 54.428 35.5681C54.6857 34.2769 55.6016 33.0284 56.8227 32.3146C57.8899 31.6889 59.0494 31.5382 60.0829 31.8937C61.7354 32.4596 62.7157 34.2286 62.4161 36.1056C62.2256 37.3 61.5282 38.4006 60.5003 39.1258C59.7496 39.6577 58.8926 39.9307 58.0271 39.9278" />
<path d="M38.2086 50.5816C37.9733 50.5816 37.7521 50.4536 37.6316 50.2403C37.4944 49.9986 37.5168 49.6943 37.6905 49.4753L42.9421 42.8603L39.525 43.3096C39.1581 43.358 38.822 43.0935 38.7772 42.7238C38.7296 42.3512 38.9873 42.0128 39.3542 41.9644L44.4237 41.299C44.6926 41.262 44.9587 41.3985 45.0931 41.6402C45.2276 41.882 45.2024 42.1834 45.0315 42.3996L39.8163 48.9691L44.3873 48.2581C44.7514 48.2012 45.0931 48.4543 45.1491 48.8269C45.2052 49.1966 44.9531 49.5436 44.589 49.6004L38.3151 50.5759C38.2814 50.5816 38.245 50.5845 38.2114 50.5845" />
<path d="M44.9557 52.0882C44.7232 52.0882 44.5019 51.9631 44.3815 51.7526C44.2415 51.508 44.2639 51.2009 44.4375 50.9819L50.4089 43.4796L46.4317 44.2019C46.0676 44.2673 45.7203 44.0228 45.6559 43.653C45.5915 43.2833 45.8323 42.9307 46.1965 42.8653L51.9382 41.8215C52.2127 41.7704 52.49 41.9012 52.6328 42.1458C52.7757 42.3903 52.7533 42.6975 52.5768 42.9193L46.597 50.433L52.5796 49.3836C52.9437 49.321 53.291 49.5685 53.3527 49.9382C53.4143 50.3079 53.1706 50.6577 52.8065 50.7231L45.0733 52.0797C45.0341 52.0854 44.9949 52.0882 44.9557 52.0882Z" />
<path d="M52.6943 48.3852C52.5486 48.3852 52.4002 48.3368 52.2769 48.2344C51.9884 47.9984 51.9436 47.5718 52.1761 47.2789L56.946 41.2724C57.086 41.0961 57.3045 41.0023 57.5313 41.0222C57.7554 41.0449 57.9543 41.1786 58.0579 41.3805L60.8279 46.6731C61.0016 47.0058 60.8784 47.4154 60.5507 47.5917C60.223 47.768 59.8196 47.6429 59.646 47.3101L57.3521 42.9276L53.218 48.132C53.0864 48.2998 52.8903 48.3852 52.6943 48.3852Z" />
<path d="M54.1707 46.5245C53.8261 46.5245 53.5349 46.2543 53.5068 45.8988C53.4788 45.5263 53.7533 45.1964 54.1202 45.1679L59.3662 44.7442C59.7388 44.7157 60.0553 44.9945 60.0861 45.367C60.1141 45.7424 59.8396 46.0695 59.4727 46.0979L54.2267 46.5217C54.2071 46.5217 54.1903 46.5217 54.1707 46.5217" />
</g>
<defs>
<filter  x="26.3335" y="81.5391" width="27.3335" height="12.4609" filterUnits="userSpaceOnUse" color-interpolation-filters="sRGB">
<feFlood flood-opacity="0" result="BackgroundImageFix"/>
<feBlend mode="normal" in="SourceGraphic" in2="BackgroundImageFix" result="shape"/>
<feGaussianBlur stdDeviation="1" result="effect1_foregroundBlur_1142_17237"/>
</filter>
<filter  x="0" y="0" width="80" height="94.6152" filterUnits="userSpaceOnUse" color-interpolation-filters="sRGB">
<feFlood flood-opacity="0" result="BackgroundImageFix"/>
<feColorMatrix in="SourceAlpha" type="matrix" values="0 0 0 0 0 0 0 0 0 0 0 0 0 0 0 0 0 0 127 0" result="hardAlpha"/>
<feOffset dy="1"/>
<feGaussianBlur stdDeviation="2.5"/>
<feComposite in2="hardAlpha" operator="out"/>
<feColorMatrix type="matrix" values="0 0 0 0 0 0 0 0 0 0 0 0 0 0 0 0 0 0 0.1 0"/>
<feBlend mode="normal" in2="BackgroundImageFix" result="effect1_dropShadow_1142_17237"/>
<feBlend mode="normal" in="SourceGraphic" in2="effect1_dropShadow_1142_17237" result="shape"/>
</filter>
<clipPath >
<rect width="44.1387" height="30.4615"  transform="translate(18.3335 24.3086)"/>
</clipPath>
</defs>
</symbol>

<symbol id="mapPoint" width="38" height="48" viewBox="0 0 38 48"  xmlns="http://www.w3.org/2000/svg">
<path fill="currentColor" d="M3.8335 19.3333C3.8335 10.4991 10.5903 4.16663 19.0002 4.16663C27.3758 4.16663 34.1668 10.9658 34.1668 19.3333C34.1668 21.8506 33.2455 24.6579 31.7256 27.5405C30.2153 30.405 28.1804 33.2192 26.111 35.7168C24.046 38.2089 21.9761 40.3507 20.4204 41.8706C19.8749 42.4036 19.3939 42.8589 19.0002 43.2246C18.6064 42.8589 18.1254 42.4036 17.5799 41.8706C16.0242 40.3507 13.9543 38.2089 11.8894 35.7168C9.81991 33.2192 7.78507 30.405 6.27472 27.5405C4.75479 24.6579 3.83349 21.8506 3.8335 19.3333ZM17.0945 46.2273C17.3324 46.4441 17.5205 46.6122 17.6504 46.7271C18.5617 47.5337 19.429 47.5423 20.35 46.7271C20.4799 46.6122 20.6679 46.4441 20.9058 46.2273C21.3815 45.7938 22.0572 45.1647 22.8664 44.3741C24.4825 42.7951 26.6418 40.5618 28.806 37.9498C30.9658 35.3433 33.1601 32.3241 34.8216 29.1729C36.4735 26.0399 37.6668 22.6494 37.6668 19.3333C37.6668 9.0341 29.3101 0.666626 19.0002 0.666626C8.72444 0.666626 0.333506 8.49955 0.333496 19.3333C0.333496 22.6494 1.52678 26.0399 3.17872 29.1729C4.84024 32.3241 7.03457 35.3433 9.19429 37.9498C11.3585 40.5618 13.5178 42.7951 15.134 44.3741C15.9431 45.1647 16.6188 45.7938 17.0945 46.2273ZM14.3335 19.3333C14.3335 16.756 16.4228 14.6666 19.0002 14.6666C21.5775 14.6666 23.6668 16.756 23.6668 19.3333C23.6668 21.9106 21.5775 24 19.0002 24C16.4228 24 14.3335 21.9106 14.3335 19.3333ZM19.0002 11.1666C14.4898 11.1666 10.8335 14.823 10.8335 19.3333C10.8335 23.8436 14.4898 27.5 19.0002 27.5C23.5105 27.5 27.1668 23.8436 27.1668 19.3333C27.1668 14.823 23.5105 11.1666 19.0002 11.1666Z" />
</symbol>

<symbol id="paperclip" width="24" height="24" viewBox="0 0 24 24"  xmlns="http://www.w3.org/2000/svg">
<path fill="currentColor" d="M15.75 3C14.707 3 13.6816 3.4043 12.8906 4.19531L5.85937 11.2266C3.62988 13.4561 3.62988 17.083 5.85937 19.3125C8.08887 21.542 11.7158 21.542 13.9453 19.3125L18.6328 14.625L17.5781 13.5703L12.8906 18.2578C11.2354 19.9131 8.56934 19.9131 6.91406 18.2578C5.25879 16.6025 5.25879 13.9365 6.91406 12.2812L13.9453 5.25C14.9531 4.24219 16.5703 4.24219 17.5781 5.25C18.5859 6.25781 18.5859 7.875 17.5781 8.88281L10.5469 15.9141C10.1865 16.2744 9.61816 16.2744 9.25781 15.9141C8.89746 15.5537 8.89746 14.9854 9.25781 14.625L15.7031 8.17969L14.6484 7.125L8.20312 13.5703C7.26855 14.5049 7.26855 16.0342 8.20312 16.9688C9.1377 17.9033 10.667 17.9033 11.6016 16.9688L18.6328 9.9375C20.2148 8.35547 20.2148 5.77734 18.6328 4.19531C17.8418 3.4043 16.793 3 15.75 3Z" />
</symbol>

<symbol id="phone_custom" width="22" height="22" viewBox="0 0 22 22"  xmlns="http://www.w3.org/2000/svg">
<path fill="currentColor" d="M6.54833 14.4421C8.05621 15.9506 10.488 18.0847 12.9866 19.3116C15.5293 20.5601 17.5476 20.6258 18.9917 19.1475L18.9977 19.1413L19.0038 19.1352C19.7239 18.4148 20.097 17.9386 20.2191 17.5842C20.2629 17.4573 20.2557 17.3946 20.2433 17.3477C20.2274 17.2875 20.1653 17.1231 19.9021 16.8599C19.4813 16.4389 18.6368 15.8425 17.794 15.3014C17.3199 14.997 16.8388 14.7032 16.3515 14.4203C16.2434 14.358 16.1454 14.2668 16.0136 14.2751C15.9221 14.2808 15.788 14.3195 15.6426 14.4234L15.6229 14.4374L14.135 15.4298C13.7889 15.6816 13.3421 15.9006 12.801 15.9006C12.3058 15.9006 11.9221 15.7021 11.8227 15.6507C11.7625 15.6195 11.7047 15.5832 11.6461 15.5492C10.6807 14.9054 9.70264 14.1454 8.72296 13.1653C7.52763 11.9695 6.76683 10.8815 6.33998 10.241L6.24659 10.08C6.24459 10.076 6.24189 10.0707 6.23857 10.0643C6.18714 9.96482 5.98871 9.58096 5.98871 9.08559C5.98871 8.54427 6.20764 8.09734 6.45935 7.75111L6.83905 7.18133C6.84919 7.16612 6.85973 7.15026 6.87066 7.13381C7.02259 6.90524 7.25027 6.56271 7.51113 6.27422C7.59253 6.14303 7.61071 6.0539 7.6138 6.00602C7.61665 5.9617 7.61374 5.87038 7.51387 5.71052C7.19761 5.2043 6.92715 4.67425 6.59329 4.16161C6.05886 3.34099 5.45811 2.50993 5.02984 2.08149L4.98918 2.04081L4.95176 1.99714C4.7966 1.81605 4.69502 1.77401 4.65718 1.76184C3.8904 1.51528 3.19124 2.52581 2.74156 2.99384C1.53289 4.25185 1.4476 6.11956 2.46561 8.5427C3.45635 10.9009 5.24475 13.1842 6.52891 14.423L6.54833 14.4421ZM8.68369 7.21333C8.68369 7.21333 8.28444 7.71259 8.08482 8.01214L7.68555 8.61129C7.38611 9.0107 7.48592 9.21041 7.58574 9.41012C7.98499 10.0092 8.68369 11.0078 9.78164 12.1062C10.68 13.0049 11.5783 13.7038 12.4766 14.303C12.6763 14.4028 12.8759 14.5027 13.2751 14.2031L14.7723 13.2046C15.471 12.7053 16.3694 12.6054 17.0681 13.1047C17.0681 13.1047 19.8629 14.7024 20.9608 15.8008C22.5578 17.3984 21.4599 18.7964 20.0625 20.1944C15.7705 24.5879 8.58388 18.5967 5.48964 15.5012C2.69485 12.8052 -2.19604 5.71552 1.69671 1.92106C2.59504 0.922524 3.29373 0.423253 3.99243 0.323399C4.79094 0.123691 5.48964 0.323399 6.08853 1.02238C7.18648 2.12077 8.7835 4.81683 8.7835 4.91669C9.28257 5.71552 9.18276 6.51435 8.68369 7.21333Z" />
</symbol>

<symbol id="repeat" width="24" height="24" viewBox="0 0 24 24"  xmlns="http://www.w3.org/2000/svg">
<path fill="currentColor" d="M4.50006 12C4.50006 7.85786 7.85792 4.5 12.0001 4.5C13.4329 4.5 14.7698 4.90106 15.9071 5.59667C16.2605 5.81279 16.7221 5.70153 16.9383 5.34816C17.1544 4.9948 17.0431 4.53314 16.6897 4.31702C15.3235 3.48143 13.7169 3 12.0001 3C7.02949 3 3.00006 7.02944 3.00006 12C3.00006 12.5375 3.04727 13.0646 3.1379 13.5771L1.70196 12.1411C1.40907 11.8482 0.934194 11.8482 0.641301 12.1411C0.348408 12.434 0.348407 12.9089 0.641301 13.2018L3.46973 16.0302C3.76262 16.3231 4.23749 16.3231 4.53039 16.0302L7.35882 13.2018C7.65171 12.9089 7.65171 12.434 7.35882 12.1411C7.06592 11.8482 6.59105 11.8482 6.29816 12.1411L4.70209 13.7372C4.57009 13.1803 4.50006 12.5988 4.50006 12ZM19.4315 10.9809L17.7006 12.7031C17.407 12.9953 16.9321 12.9941 16.64 12.7005C16.3478 12.4068 16.349 11.932 16.6426 11.6398L19.4781 8.81846C19.6197 8.67759 19.8116 8.59901 20.0113 8.60013C20.2111 8.60124 20.4021 8.68197 20.5421 8.82441L23.3389 11.6703C23.6292 11.9657 23.6251 12.4406 23.3297 12.7309C23.0342 13.0212 22.5594 13.0171 22.269 12.7217L20.9811 11.4111C20.9937 11.6059 21.0001 11.8022 21.0001 12C21.0001 16.9706 16.9706 21 12.0001 21C10.5737 21 9.22282 20.6676 8.02259 20.0755C7.65113 19.8922 7.49858 19.4425 7.68186 19.071C7.86514 18.6996 8.31484 18.547 8.6863 18.7303C9.68468 19.2229 10.8089 19.5 12.0001 19.5C16.1422 19.5 19.5001 16.1421 19.5001 12C19.5001 11.654 19.4767 11.3138 19.4315 10.9809Z" />
</symbol>

<symbol id="search" width="20" height="21" viewBox="0 0 20 21"  xmlns="http://www.w3.org/2000/svg">
<path fill="currentColor" fill-rule="evenodd" clip-rule="evenodd" d="M8 15C11.5899 15 14.5 12.0899 14.5 8.5C14.5 4.91015 11.5899 2 8 2C4.41015 2 1.5 4.91015 1.5 8.5C1.5 12.0899 4.41015 15 8 15ZM8 16.5C9.9395 16.5 11.7178 15.8098 13.1027 14.6616L14.0513 15.6103C13.9178 16.1107 14.0473 16.6667 14.4398 17.0592L17.4431 20.0625C18.0289 20.6483 18.9786 20.6483 19.5644 20.0625C20.1502 19.4767 20.1502 18.5269 19.5644 17.9412L16.5611 14.9379C16.1685 14.5452 15.6123 14.4158 15.1119 14.5495L14.1632 13.6008C15.3104 12.2162 16 10.4386 16 8.5C16 4.08172 12.4183 0.5 8 0.5C3.58172 0.5 0 4.08172 0 8.5C0 12.9183 3.58172 16.5 8 16.5Z" />
</symbol>

<symbol id="send" width="25" height="24" viewBox="0 0 25 24"  xmlns="http://www.w3.org/2000/svg">
<path fill="currentColor" d="M7 12H10.5M7.95352 4.26033L19.1842 9.87225C20.9386 10.7489 20.9386 13.2511 19.1842 14.1278L7.95352 19.7397C5.95607 20.7378 3.80682 18.6853 4.71382 16.6458L6.35018 12.9662C6.62373 12.3511 6.62373 11.6489 6.35018 11.0338L4.71382 7.35425C3.80682 5.31474 5.95607 3.26221 7.95352 4.26033Z" stroke="white" stroke-width="1.7" stroke-linecap="round"/>
</symbol>

<symbol id="shape" width="10" height="6" viewBox="0 0 10 6"  xmlns="http://www.w3.org/2000/svg">
<path fill="currentColor" d="M1.20706 0.5C0.761605 0.5 0.538521 1.03857 0.853504 1.35355L4.6464 5.14645C4.84166 5.34171 5.15824 5.34171 5.3535 5.14645L9.1464 1.35355C9.46138 1.03857 9.2383 0.5 8.79284 0.5H1.20706Z" />
</symbol>

<symbol id="sizeSelected" width="13" height="11" viewBox="0 0 13 11"  xmlns="http://www.w3.org/2000/svg">
<path fill="currentColor" d="M12.3292 1.16789C11.9387 0.777369 11.3055 0.777369 10.915 1.16789L4.37218 7.71068L2.08501 5.4237C1.69447 5.03319 1.0613 5.03321 0.670794 5.42375C0.280286 5.81429 0.280312 6.44746 0.670852 6.83797L3.66513 9.832C4.05566 10.2225 4.6888 10.2225 5.07931 9.83197L12.3292 2.58211C12.7197 2.19158 12.7197 1.55842 12.3292 1.16789Z" />
</symbol>

<symbol id="sliderArrowLeft" width="35" height="35" viewBox="0 0 35 35"  xmlns="http://www.w3.org/2000/svg">
<rect width="35" height="35" rx="15" />
<path fill="currentColor" d="M19.5303 11.4697C19.2374 11.1768 18.7626 11.1768 18.4697 11.4697L12.4697 17.4697C12.1768 17.7626 12.1768 18.2374 12.4697 18.5303L18.4697 24.5303C18.7626 24.8232 19.2374 24.8232 19.5303 24.5303C19.8232 24.2374 19.8232 23.7626 19.5303 23.4697L14.0607 18L19.5303 12.5303C19.8232 12.2374 19.8232 11.7626 19.5303 11.4697Z" />
</symbol>

<symbol id="sliderArrowRight" width="35" height="35" viewBox="0 0 35 35"  xmlns="http://www.w3.org/2000/svg">
<rect x="35" y="35" width="35" height="35" rx="15" transform="rotate(-180 35 35)" />
<path fill="currentColor" d="M15.4697 23.5303C15.7626 23.8232 16.2374 23.8232 16.5303 23.5303L22.5303 17.5303C22.8232 17.2374 22.8232 16.7626 22.5303 16.4697L16.5303 10.4697C16.2374 10.1768 15.7626 10.1768 15.4697 10.4697C15.1768 10.7626 15.1768 11.2374 15.4697 11.5303L20.9393 17L15.4697 22.4697C15.1768 22.7626 15.1768 23.2374 15.4697 23.5303Z" />
</symbol>

<symbol id="sm-locked" width="16" height="16" viewBox="0 0 16 16"  xmlns="http://www.w3.org/2000/svg">
<path fill="currentColor" d="M4.5 4.5C4.5 2.567 6.067 1 8 1C9.933 1 11.5 2.567 11.5 4.5V5H12.25C13.2165 5 14 5.7835 14 6.75V12.25C14 13.2165 13.2165 14 12.25 14H3.75C2.7835 14 2 13.2165 2 12.25V6.75C2 5.7835 2.7835 5 3.75 5H4.5V4.5ZM10 4.5C10 3.39543 9.10457 2.5 8 2.5C6.89543 2.5 6 3.39543 6 4.5V5H10V4.5ZM8 8.25C7.30964 8.25 6.75 8.80964 6.75 9.5C6.75 10.1904 7.30964 10.75 8 10.75C8.69036 10.75 9.25 10.1904 9.25 9.5C9.25 8.80964 8.69036 8.25 8 8.25Z" />
</symbol>

<symbol id="smile-sad" width="41" height="40" viewBox="0 0 41 40"  xmlns="http://www.w3.org/2000/svg">
<g clip-path="url(#clip0_1100_14385)">
<path fill="currentColor" d="M20.666 0.49939C9.91602 0.49939 1.16602 9.24939 1.16602 19.9994C1.16602 30.7494 9.91602 39.5619 20.7285 39.5619C31.541 39.5619 40.291 30.8119 40.291 19.9994C40.291 9.18689 31.416 0.49939 20.666 0.49939ZM20.666 36.7494C11.416 36.7494 3.91602 29.2494 3.91602 19.9994C3.91602 10.7494 11.4785 3.31189 20.666 3.31189C29.8535 3.31189 37.416 10.8119 37.416 20.0619C37.416 29.3119 29.916 36.7494 20.666 36.7494Z" />
<path d="M13.166 16.7494C14.5467 16.7494 15.666 15.6301 15.666 14.2494C15.666 12.8687 14.5467 11.7494 13.166 11.7494C11.7853 11.7494 10.666 12.8687 10.666 14.2494C10.666 15.6301 11.7853 16.7494 13.166 16.7494Z" />
<path d="M28.166 16.7494C29.5467 16.7494 30.666 15.6301 30.666 14.2494C30.666 12.8687 29.5467 11.7494 28.166 11.7494C26.7853 11.7494 25.666 12.8687 25.666 14.2494C25.666 15.6301 26.7853 16.7494 28.166 16.7494Z" />
<path d="M20.6663 24.9998C17.2288 24.9998 13.9788 26.2498 11.4788 28.6248C10.9163 29.1248 10.8538 30.0623 11.4163 30.6248C11.9163 31.1873 12.8538 31.2498 13.4163 30.6873C15.4163 28.8748 17.9788 27.8123 20.6663 27.8123C23.3538 27.8123 25.9788 28.8123 27.9163 30.6873C28.1663 30.9373 28.5413 31.0623 28.8538 31.0623C29.2288 31.0623 29.6038 30.9373 29.8538 30.6248C30.3538 30.0623 30.3538 29.1873 29.7913 28.6248C27.3538 26.3123 24.1038 24.9998 20.6663 24.9998Z" />
</g>
<defs>
<clipPath >
<rect width="40" height="40"  transform="translate(0.666016)"/>
</clipPath>
</defs>
</symbol>

<symbol id="smile" width="40" height="40" viewBox="0 0 40 40"  xmlns="http://www.w3.org/2000/svg">
<g clip-path="url(#clip0_1100_14401)">
<path fill="currentColor" d="M20 0.49939C9.25 0.49939 0.5 9.24939 0.5 19.9994C0.5 30.7494 9.25 39.5619 20.0625 39.5619C30.875 39.5619 39.625 30.8119 39.625 19.9994C39.625 9.18689 30.75 0.49939 20 0.49939ZM20 36.7494C10.75 36.7494 3.25 29.2494 3.25 19.9994C3.25 10.7494 10.8125 3.31189 20 3.31189C29.1875 3.31189 36.75 10.8119 36.75 20.0619C36.75 29.3119 29.25 36.7494 20 36.7494Z" />
<path d="M12.5 16.7494C13.8807 16.7494 15 15.6301 15 14.2494C15 12.8687 13.8807 11.7494 12.5 11.7494C11.1193 11.7494 10 12.8687 10 14.2494C10 15.6301 11.1193 16.7494 12.5 16.7494Z" />
<path d="M27.5 16.7494C28.8807 16.7494 30 15.6301 30 14.2494C30 12.8687 28.8807 11.7494 27.5 11.7494C26.1193 11.7494 25 12.8687 25 14.2494C25 15.6301 26.1193 16.7494 27.5 16.7494Z" />
<path d="M27.2503 25.3738C25.2503 27.1863 22.6878 28.2488 20.0003 28.2488C17.3128 28.2488 14.6878 27.2488 12.7503 25.3738C12.1878 24.8738 11.3128 24.8738 10.7503 25.4363C10.2503 25.9988 10.2503 26.8738 10.8128 27.4363C13.3128 29.7488 16.5628 31.0613 20.0003 31.0613C23.4378 31.0613 26.6878 29.8113 29.1878 27.4363C29.7503 26.9363 29.8128 25.9988 29.2503 25.4363C28.6878 24.8738 27.8128 24.8738 27.2503 25.3738Z" />
</g>
<defs>
<clipPath >
<rect width="40" height="40" />
</clipPath>
</defs>
</symbol>

<symbol id="smileActive" width="40" height="40" viewBox="0 0 40 40"  xmlns="http://www.w3.org/2000/svg">
<g clip-path="url(#clip0_1100_14386)">
<path fill="currentColor" d="M20 0.49939C9.25 0.49939 0.5 9.24939 0.5 19.9994C0.5 30.7494 9.25 39.5619 20.0625 39.5619C30.875 39.5619 39.625 30.8119 39.625 19.9994C39.625 9.18689 30.75 0.49939 20 0.49939ZM20 36.7494C10.75 36.7494 3.25 29.2494 3.25 19.9994C3.25 10.7494 10.8125 3.31189 20 3.31189C29.1875 3.31189 36.75 10.8119 36.75 20.0619C36.75 29.3119 29.25 36.7494 20 36.7494Z" />
<path d="M12.5 16.7494C13.8807 16.7494 15 15.6301 15 14.2494C15 12.8687 13.8807 11.7494 12.5 11.7494C11.1193 11.7494 10 12.8687 10 14.2494C10 15.6301 11.1193 16.7494 12.5 16.7494Z" />
<path d="M27.5 16.7494C28.8807 16.7494 30 15.6301 30 14.2494C30 12.8687 28.8807 11.7494 27.5 11.7494C26.1193 11.7494 25 12.8687 25 14.2494C25 15.6301 26.1193 16.7494 27.5 16.7494Z" />
<path d="M27.2503 25.3738C25.2503 27.1863 22.6878 28.2488 20.0003 28.2488C17.3128 28.2488 14.6878 27.2488 12.7503 25.3738C12.1878 24.8738 11.3128 24.8738 10.7503 25.4363C10.2503 25.9988 10.2503 26.8738 10.8128 27.4363C13.3128 29.7488 16.5628 31.0613 20.0003 31.0613C23.4378 31.0613 26.6878 29.8113 29.1878 27.4363C29.7503 26.9363 29.8128 25.9988 29.2503 25.4363C28.6878 24.8738 27.8128 24.8738 27.2503 25.3738Z" />
</g>
<defs>
<clipPath >
<rect width="40" height="40" />
</clipPath>
</defs>
</symbol>

<symbol id="smileSadActive" width="41" height="40" viewBox="0 0 41 40"  xmlns="http://www.w3.org/2000/svg">
<g clip-path="url(#clip0_1100_14400)">
<path fill="currentColor" d="M20.666 0.49939C9.91602 0.49939 1.16602 9.24939 1.16602 19.9994C1.16602 30.7494 9.91602 39.5619 20.7285 39.5619C31.541 39.5619 40.291 30.8119 40.291 19.9994C40.291 9.18689 31.416 0.49939 20.666 0.49939ZM20.666 36.7494C11.416 36.7494 3.91602 29.2494 3.91602 19.9994C3.91602 10.7494 11.4785 3.31189 20.666 3.31189C29.8535 3.31189 37.416 10.8119 37.416 20.0619C37.416 29.3119 29.916 36.7494 20.666 36.7494Z" />
<path d="M13.166 16.7494C14.5467 16.7494 15.666 15.6301 15.666 14.2494C15.666 12.8687 14.5467 11.7494 13.166 11.7494C11.7853 11.7494 10.666 12.8687 10.666 14.2494C10.666 15.6301 11.7853 16.7494 13.166 16.7494Z" />
<path d="M28.166 16.7494C29.5467 16.7494 30.666 15.6301 30.666 14.2494C30.666 12.8687 29.5467 11.7494 28.166 11.7494C26.7853 11.7494 25.666 12.8687 25.666 14.2494C25.666 15.6301 26.7853 16.7494 28.166 16.7494Z" />
<path d="M20.6663 24.9998C17.2288 24.9998 13.9788 26.2498 11.4788 28.6248C10.9163 29.1248 10.8538 30.0623 11.4163 30.6248C11.9163 31.1873 12.8538 31.2498 13.4163 30.6873C15.4163 28.8748 17.9788 27.8123 20.6663 27.8123C23.3538 27.8123 25.9788 28.8123 27.9163 30.6873C28.1663 30.9373 28.5413 31.0623 28.8538 31.0623C29.2288 31.0623 29.6038 30.9373 29.8538 30.6248C30.3538 30.0623 30.3538 29.1873 29.7913 28.6248C27.3538 26.3123 24.1038 24.9998 20.6663 24.9998Z" />
</g>
<defs>
<clipPath >
<rect width="40" height="40"  transform="translate(0.666016)"/>
</clipPath>
</defs>
</symbol>

<symbol id="sprite" xmlns="http://www.w3.org/2000/svg" style="display: none;">

   <!-- CART -->
   <symbol  viewBox="0 0 24 24">
      <path fill="currentColor"
         d="M2.63991 1.99707C3.22814 1.99621 3.73738 2.40559 3.86293 2.98026L6.23487 13.8368C6.51077 15.0996 7.6289 15.9998 8.9215 15.9998H14.7557C15.1699 15.9998 15.5057 15.6641 15.5057 15.2498C15.5057 14.8356 15.1699 14.4998 14.7557 14.4998H8.9215C8.33395 14.4998 7.82571 14.0907 7.7003 13.5166L7.47872 12.5024L14.4938 12.5027C15.6649 12.5027 16.7288 11.8215 17.2186 10.758L19.9067 4.92069C20.2118 4.25817 19.7277 3.50237 18.9982 3.50237L5.51239 3.50237L5.32837 2.6601C5.05214 1.39581 3.93182 0.495178 2.63771 0.497073L0.748902 0.499839C0.334689 0.500445 -0.000605656 0.836723 8.21446e-07 1.25094C0.000607358 1.66515 0.336885 2.00044 0.751098 1.99984L2.63991 1.99707ZM7.15864 11.0025L5.86913 5.0023L18.2176 5.0023L15.856 10.1304C15.6111 10.6622 15.0792 11.0028 14.4936 11.0028L7.15864 11.0025ZM10.0042 18.9998C10.0042 19.8283 9.33237 20.4998 8.5036 20.4998C7.67483 20.4998 7.00298 19.8283 7.00298 18.9998C7.00298 18.1714 7.67483 17.4998 8.5036 17.4998C9.33237 17.4998 10.0042 18.1714 10.0042 18.9998ZM14.5809 20.4998C15.4097 20.4998 16.0815 19.8283 16.0815 18.9998C16.0815 18.1714 15.4097 17.4998 14.5809 17.4998C13.7521 17.4998 13.0803 18.1714 13.0803 18.9998C13.0803 19.8283 13.7521 20.4998 14.5809 20.4998Z"
          />
   </symbol>
   <!--  -->

   <!-- heart-outline -->
   <symbol  viewBox="0 0 24 24">
      <mask  >
         <path
            d="M0 6.1371C0 11 4.01943 13.5914 6.96173 15.9109C8 16.7294 9 17.5 10 17.5C11 17.5 12 16.7294 13.0383 15.9109C15.9806 13.5914 20 11 20 6.1371C20 1.27416 14.4998 -2.17454 10 2.50063C5.50016 -2.17454 0 1.27416 0 6.1371Z" />
      </mask>
      <path
         d="M6.96173 15.9109L6.0331 17.0889H6.03311L6.96173 15.9109ZM10 2.50063L8.91927 3.54083C9.20204 3.83462 9.59223 4.00063 10 4.00063C10.4078 4.00063 10.798 3.83462 11.0807 3.54083L10 2.50063ZM13.0383 15.9109L12.1096 14.7329L13.0383 15.9109ZM7.89036 14.7329C6.3302 13.503 4.75599 12.3971 3.49907 10.9818C2.29358 9.62433 1.5 8.10043 1.5 6.1371H-1.5C-1.5 9.0367 -0.283864 11.24 1.25593 12.9738C2.7443 14.6498 4.65096 15.9993 6.0331 17.0889L7.89036 14.7329ZM1.5 6.1371C1.5 4.26683 2.5557 2.73732 3.93615 2.10631C5.22206 1.51852 7.05324 1.6021 8.91927 3.54083L11.0807 1.46043C8.44692 -1.27601 5.2781 -1.80566 2.68897 -0.622156C0.194385 0.518124 -1.5 3.14443 -1.5 6.1371H1.5ZM6.03311 17.0889C6.53844 17.4872 7.12866 17.9511 7.73843 18.3075C8.34772 18.6635 9.1192 19 10 19V16C9.8808 16 9.65228 15.9512 9.252 15.7173C8.85221 15.4837 8.42329 15.153 7.89036 14.7329L6.03311 17.0889ZM13.9669 17.0889C15.349 15.9993 17.2557 14.6498 18.7441 12.9738C20.2839 11.24 21.5 9.0367 21.5 6.1371H18.5C18.5 8.10043 17.7064 9.62433 16.5009 10.9818C15.244 12.3971 13.6698 13.503 12.1096 14.7329L13.9669 17.0889ZM21.5 6.1371C21.5 3.14443 19.8056 0.518124 17.311 -0.622156C14.7219 -1.80566 11.5531 -1.27601 8.91927 1.46043L11.0807 3.54083C12.9468 1.6021 14.7779 1.51852 16.0638 2.10631C17.4443 2.73732 18.5 4.26683 18.5 6.1371H21.5ZM12.1096 14.7329C11.5767 15.153 11.1478 15.4837 10.748 15.7173C10.3477 15.9512 10.1192 16 10 16V19C10.8808 19 11.6523 18.6635 12.2616 18.3075C12.8713 17.9511 13.4616 17.4872 13.9669 17.0889L12.1096 14.7329Z"
          mask="url(#path-1-inside-1_2223_1190)" />
   </symbol>
   <!--  -->


   <!-- Search -->

   <symbol  viewBox="0 0 24 24">
  <path fill-rule="evenodd" clip-rule="evenodd" d="M8 15C11.5899 15 14.5 12.0899 14.5 8.5C14.5 4.91015 11.5899 2 8 2C4.41015 2 1.5 4.91015 1.5 8.5C1.5 12.0899 4.41015 15 8 15ZM8 16.5C9.9395 16.5 11.7178 15.8098 13.1027 14.6616L14.0513 15.6103C13.9178 16.1107 14.0473 16.6667 14.4398 17.0592L17.4431 20.0625C18.0289 20.6483 18.9786 20.6483 19.5644 20.0625C20.1502 19.4767 20.1502 18.5269 19.5644 17.9412L16.5611 14.9379C16.1685 14.5452 15.6123 14.4158 15.1119 14.5495L14.1632 13.6008C15.3104 12.2162 16 10.4386 16 8.5C16 4.08172 12.4183 0.5 8 0.5C3.58172 0.5 0 4.08172 0 8.5C0 12.9183 3.58172 16.5 8 16.5Z" />
   </symbol>

   <!--  -->
</symbol>
<symbol id="telegram" width="24" height="20" viewBox="0 0 24 20"  xmlns="http://www.w3.org/2000/svg">
<path fill="currentColor" d="M23.55 2.04989L20.025 18.5499C19.7625 19.7124 19.0875 19.9749 18.1125 19.4499L12.825 15.5499L10.2375 18.0249C9.97497 18.2874 9.71247 18.5499 9.11247 18.5499L9.52497 13.1124L19.3875 4.14989C19.8 3.73739 19.275 3.58739 18.75 3.92489L6.48747 11.6499L1.19996 10.0374C0.0374617 9.66239 0.0374617 8.87489 1.46246 8.34989L22.0125 0.362404C23.025 0.0624043 23.8875 0.587404 23.55 2.04989Z" />
</symbol>

<symbol id="vk_grey" width="25" height="16" viewBox="0 0 25 16"  xmlns="http://www.w3.org/2000/svg">
<path fill="currentColor" d="M10.172 10.9119V0.613281H14.1705V6.31714C17.3694 5.93688 19.3909 2.35613 20.0018 0.613281H24.167C23.6671 4.25741 20.3628 7.05653 18.6689 7.90155C21.5012 8.77297 25 12.9716 25 15.3483H20.6682C19.0688 11.2922 15.67 10.0669 14.1705 9.96128V15.3483C4.75723 15.982 -0.240983 8.53531 0.00893731 0.613281H4.17411C4.42403 8.05999 8.4226 10.2782 10.172 10.9119Z" />
</symbol>

<symbol id="warning-red" width="24" height="24" viewBox="0 0 24 24"  xmlns="http://www.w3.org/2000/svg">
<path fill="currentColor" d="M21.425 19.4728L12.0918 3.60397L2.5764 19.4728H21.425ZM13.3229 2.70733L22.797 18.8156C23.3639 19.7794 22.6763 21 21.5665 21H2.43351C1.31829 21 0.631511 19.7686 1.20931 18.805L10.8682 2.69676C11.4281 1.76311 12.771 1.76889 13.3229 2.70733ZM12 14.5C11.4434 14.5 10.9999 14.0623 10.9999 13.5V9C10.9999 8.4377 11.4434 8 12 8C12.5566 8 12.9953 8.43769 12.9953 9V13.5C12.9953 14.0623 12.5566 14.5 12 14.5ZM13 17C13 17.5623 12.5566 18 12 18C11.4434 18 11 17.5623 11 17C11 16.4377 11.4434 16 12 16C12.5566 16 13 16.4377 13 17Z" />
</symbol>

<symbol id="webforms" width="24" height="24" viewBox="0 0 24 24"  xmlns="http://www.w3.org/2000/svg">
<path fill="currentColor" d="M19 3.5C19.2761 3.5 19.5 3.72386 19.5 4V20C19.5 20.2761 19.2761 20.5 19 20.5H5C4.72386 20.5 4.5 20.2761 4.5 20V4C4.5 3.72386 4.72386 3.5 5 3.5H19ZM5 2C3.89543 2 3 2.89543 3 4V20C3 21.1046 3.89543 22 5 22H19C20.1046 22 21 21.1046 21 20V4C21 2.89543 20.1046 2 19 2H5ZM6 11C6 10.7239 6.22386 10.5 6.5 10.5H8.5C8.77614 10.5 9 10.7239 9 11V13C9 13.2761 8.77614 13.5 8.5 13.5H6.5C6.22386 13.5 6 13.2761 6 13V11ZM6.5 5.5C6.22386 5.5 6 5.72386 6 6V8C6 8.27614 6.22386 8.5 6.5 8.5H8.5C8.77614 8.5 9 8.27614 9 8V6C9 5.72386 8.77614 5.5 8.5 5.5H6.5ZM11 7C11 6.58579 11.3358 6.25 11.75 6.25H17.25C17.6642 6.25 18 6.58579 18 7C18 7.41421 17.6642 7.75 17.25 7.75H11.75C11.3358 7.75 11 7.41421 11 7ZM11.75 11.25H17.25C17.6642 11.25 18 11.5858 18 12C18 12.4142 17.6642 12.75 17.25 12.75H11.75C11.3358 12.75 11 12.4142 11 12C11 11.5858 11.3358 11.25 11.75 11.25ZM6 16C6 15.7239 6.22386 15.5 6.5 15.5H8.5C8.77614 15.5 9 15.7239 9 16V18C9 18.2761 8.77614 18.5 8.5 18.5H6.5C6.22386 18.5 6 18.2761 6 18V16ZM11.75 16.25C11.3358 16.25 11 16.5858 11 17C11 17.4142 11.3358 17.75 11.75 17.75H17.25C17.6642 17.75 18 17.4142 18 17C18 16.5858 17.6642 16.25 17.25 16.25H11.75Z" />
</symbol>

<symbol id="wk" width="24" height="24" viewBox="0 0 24 24"  xmlns="http://www.w3.org/2000/svg">
<path fill="currentColor" d="M15.525 0.375H8.475C1.9125 0.375 0.375 1.9125 0.375 8.475V15.6C0.375 22.0875 1.9125 23.625 8.475 23.625H15.6C22.0875 23.625 23.625 22.0875 23.625 15.525V8.475C23.625 1.9125 22.0875 0.375 15.525 0.375ZM19.125 16.95H17.4375C16.8 16.95 16.575 16.425 15.4125 15.2625C14.4 14.25 13.95 14.1375 13.725 14.1375C13.425 14.1375 13.3125 14.175 13.3125 14.6625V16.2C13.3125 16.6125 13.2 16.8375 12.1125 16.8375C10.3125 16.8375 8.3625 15.7125 6.9375 13.725C4.8375 10.7625 4.3125 8.55 4.3125 8.0625C4.3125 7.8 4.35 7.575 4.8375 7.575H6.525C6.9375 7.575 7.125 7.725 7.275 8.2125C8.1375 10.65 9.4875 12.75 10.0875 12.75C10.3125 12.75 10.3875 12.6375 10.3875 12.1125V9.6375C10.35 8.475 9.75 8.4375 9.75 7.95C9.75 7.8 9.9 7.5375 10.1625 7.5375H12.7875C13.1625 7.5375 13.275 7.6875 13.275 8.175V11.5125C13.275 11.8875 13.425 12 13.5375 12C13.7625 12 13.95 11.8875 14.325 11.475C15.525 10.0875 16.3875 8.025 16.3875 8.025C16.5 7.7625 16.6875 7.5375 17.1375 7.5375H18.825C19.35 7.5375 19.4625 7.8 19.35 8.175C19.125 9.1875 17.0625 12.075 17.0625 12.075C16.9125 12.3375 16.8 12.4875 17.0625 12.825C17.2125 13.0875 17.85 13.575 18.225 14.025C18.975 14.8875 19.5 15.5625 19.65 16.05C19.8375 16.6875 19.6125 16.95 19.125 16.95Z" />
</symbol>

<symbol id="yandex" width="16" height="20" viewBox="0 0 16 20"  xmlns="http://www.w3.org/2000/svg">
<path fill="currentColor" d="M9.69044 16.6071V20H6.33109V14.2857L0 0H3.51009L8.44145 11.1607C9.38896 13.3036 9.69044 14.0402 9.69044 16.6071ZM16 0L11.8869 9.66518H8.46299L12.5976 0H16Z" />
</symbol>

<symbol id="youtube" width="24" height="18" viewBox="0 0 24 18"  xmlns="http://www.w3.org/2000/svg">
<path fill="currentColor" d="M23.1375 3.4123C22.875 2.3998 22.0875 1.6123 21.075 1.3498C19.275 0.862305 12 0.862305 12 0.862305C12 0.862305 4.725 0.862305 2.925 1.3498C1.9125 1.6123 1.125 2.3998 0.8625 3.4123C0.375 5.2498 0.375 8.99981 0.375 8.99981C0.375 8.99981 0.375 12.7873 0.8625 14.5873C1.125 15.5998 1.9125 16.3873 2.925 16.6498C4.725 17.1373 12 17.1373 12 17.1373C12 17.1373 19.275 17.1373 21.075 16.6498C22.0875 16.3873 22.875 15.5998 23.1375 14.5873C23.625 12.7873 23.625 8.99981 23.625 8.99981C23.625 8.99981 23.625 5.2498 23.1375 3.4123ZM9.675 12.4873V5.51231L15.7125 8.99981L9.675 12.4873Z" />
</symbol>

</svg>